<!DOCTYPE svg PUBLIC "-//W3C//DTD SVG 1.1//EN" "http://www.w3.org/Graphics/SVG/1.1/DTD/svg11.dtd">
<!-- Uploaded to: SVG Repo, www.svgrepo.com, Transformed by: SVG Repo Mixer Tools -->
<svg fill="#D4A867" height="800px" width="800px" version="1.1" id="Layer_1" xmlns="http://www.w3.org/2000/svg" xmlns:xlink="http://www.w3.org/1999/xlink" viewBox="0 0 234.368 234.368" xml:space="preserve">
<g id="SVGRepo_bgCarrier" stroke-width="0"/>
<g id="SVGRepo_tracerCarrier" stroke-linecap="round" stroke-linejoin="round"/>
<g id="SVGRepo_iconCarrier"> <g> <g> <g> <path d="M191.134,23.504H171.67v-8.032h8.028c4.264,0,7.736-3.468,7.736-7.736S183.966,0,179.698,0H54.67 c-4.264,0-7.736,3.468-7.736,7.736s3.468,7.736,7.736,7.736h8.028v8.032H43.234c-10.9,0-19.764,8.868-19.764,19.768v32.88h2.564 c0,12.316,0,24.632,0,36.944c0,0.104,0.04,0.18,0.056,0.272c-0.02,0.724,0.428,1.46,1.364,1.46c2.772,0,5.54,0,8.312,0 c0,1.328,0,2.656,0,3.984c-3.288,0.348-5.864,3.104-5.864,6.48v12.02c0,3.612,2.936,6.552,6.552,6.552h1.012 c3.608,0,6.548-2.94,6.548-6.552v-12.02c0-3.22-2.344-5.892-5.412-6.432c0-1.896,0-3.796,0-5.692 c0-0.176-0.096-0.316-0.224-0.436c-0.204-0.416-0.588-0.736-1.192-0.736c-2.772,0-5.54,0-8.312,0c0-11.948,0-23.896,0-35.844 h5.072c-0.56,1.044-0.908,2.22-0.908,3.488c0,4.112,3.344,7.456,7.456,7.456h2.584l9.472,116.66 c-3.228,0.928-5.612,3.876-5.612,7.4l0.004,16.064h14.752c-0.504,0.74-0.868,1.58-0.868,2.54c0,2.54,2.068,4.608,4.604,4.608 h12.4c2.54,0,4.604-2.068,4.604-4.608c0-0.96-0.364-1.8-0.868-2.54l66.52-0.008c-0.508,0.74-0.872,1.584-0.872,2.548 c0,2.54,2.068,4.608,4.604,4.608h12.396c2.544,0,4.608-2.068,4.608-4.608c0-0.964-0.364-1.808-0.872-2.548h19.476v-16.064 c0-3.524-2.38-6.472-5.612-7.4l7.328-90.212h14.044c2.848,0,5.168-2.32,5.168-5.168c0-2.848-2.32-5.168-5.168-5.168h-13.204 l1.308-16.096h2.584c4.112,0,7.456-3.344,7.456-7.456c0-1.268-0.348-2.444-0.908-3.488h10.472V43.272h0.004 C210.898,32.372,202.03,23.504,191.134,23.504z M37.458,121.576c2.048,0,3.712,1.668,3.712,3.712v12.02 c0,2.048-1.664,3.716-3.712,3.716h-1.012c-2.048,0-3.716-1.668-3.716-3.716v-12.02c0-2.048,1.668-3.712,3.716-3.712H37.458z M54.67,11.504c-2.08,0-3.764-1.688-3.764-3.764s1.688-3.764,3.764-3.764h125.024c2.08,0,3.764,1.688,3.764,3.764 c0,2.076-1.688,3.764-3.764,3.764H54.67z M167.698,15.472v8.032H66.666v-8.032H167.698z M50.906,211.156 c0-2.076,1.688-3.764,3.764-3.764h4.892l-4.82,8.384h-3.836V211.156z M77.378,215.776h-5.036l4.512-8.388h4.92l-4.512,8.328 L77.378,215.776z M69.766,215.776H64.57l4.936-8.388h4.776L69.766,215.776z M61.938,215.776h-4.58l4.82-8.384h4.696 L61.938,215.776z M77.83,231.528h-12.4c-0.976,0-1.768-0.796-1.768-1.772s0.792-1.772,1.768-1.772h12.4 c0.976,0,1.768,0.796,1.768,1.772S78.806,231.528,77.83,231.528z M164.218,231.528h-12.396c-0.976,0-1.768-0.796-1.768-1.772 s0.792-1.772,1.768-1.772h12.396c0.976,0,1.772,0.796,1.772,1.772S165.194,231.528,164.218,231.528z M183.458,211.144v4.632 h-29.752v2.836h29.752v4.624l-132.552,0.012v-4.64h92.804v-2.836h-63.9l4.544-8.388l41.756-0.004h53.612 C181.786,207.4,183.458,209.076,183.458,211.144z M140.754,167.744v13.384c0,11.828-9.62,21.444-21.448,21.444h-6.804 c-11.824,0-21.444-9.62-21.444-21.444v-19.404c0-1.052,0.856-1.908,1.912-1.908h43.568c2.328,0,4.224,1.892,4.224,4.22v1.44 H96.45v2.268H140.754z M177.866,203.408l-48.944,0.004c8.616-3.732,14.664-12.312,14.664-22.284v-17.092 c0-3.892-3.168-7.056-7.06-7.056H92.962c-2.616,0-4.748,2.128-4.748,4.744v2.764h-4.712c-6.268,0-11.368,5.1-11.368,11.368 s5.096,11.368,11.368,11.368h5.516c1.892,7.276,7.064,13.24,13.856,16.184H56.498l-9.444-116.32h48.024l8.932,31.952 c1.084,3.86,4.884,6.556,9.232,6.556h8.224c4.348,0,8.144-2.696,9.236-6.568l1.504-5.508h52.96L177.866,203.408z M83.61,168.844 v-0.004c-3.576,0-6.48,2.908-6.48,6.484v1.076c0,3.576,2.908,6.484,6.48,6.484h4.696c0.052,0.704,0.136,1.392,0.244,2.08h-5.044 c-5.02,0-9.1-4.084-9.1-9.1s4.084-9.1,9.1-9.1h4.712v2.08H83.61z M88.218,171.108v9.5h-4.604c-2.324,0-4.216-1.888-4.216-4.212 v-1.076c0-2.324,1.892-4.212,4.216-4.212H88.218z M130.038,110.692l-2.072,7.584c-0.748,2.644-3.416,4.488-6.504,4.488h-8.224 c-3.084,0-5.756-1.844-6.504-4.484l-8.716-31.188h38.464L130.038,110.692z M139.422,87.096h47.888l-1.308,16.096h-50.976 L139.422,87.096z M203.186,106.028c1.284,0,2.332,1.044,2.332,2.332c0,1.288-1.048,2.332-2.332,2.332h-70.208l1.272-4.664 H203.186z M193.874,83.128H40.49c-1.92,0-3.488-1.564-3.488-3.488s1.568-3.488,3.488-3.488h153.384 c1.92,0,3.488,1.564,3.488,3.488S195.794,83.128,193.874,83.128z M206.926,51.244V72.18H193.87H40.49H27.434V51.244h18.784 v-2.836H27.434v-5.136c0-8.712,7.084-15.8,15.796-15.8h147.9c8.712,0,15.796,7.088,15.796,15.8v5.136h-18.784v2.836H206.926z"/> <path d="M117.158,34.592c-8.4,0-15.236,6.832-15.236,15.236s6.836,15.236,15.236,15.236c8.4,0,15.236-6.832,15.236-15.236 S125.558,34.592,117.158,34.592z M117.158,61.092c-6.212,0-11.264-5.052-11.264-11.264c0-6.212,5.056-11.264,11.264-11.264 s11.264,5.052,11.264,11.264C128.422,56.04,123.37,61.092,117.158,61.092z"/> <circle cx="69.902" cy="49.832" r="3.984"/> <circle cx="164.422" cy="49.832" r="3.984"/> </g> </g> </g> </g>
</svg>