<svg xmlns="http://www.w3.org/2000/svg" id="&#x421;&#x43B;&#x43E;&#x439;_1" data-name="&#x421;&#x43B;&#x43E;&#x439; 1" viewBox="0 0 208.62 199.42"><defs><style>.cls-1{fill:#fff;}.cls-2{fill:#e0b159;}</style></defs><polygon class="cls-1" points="16 90.22 16.33 88.2 9.49 87.09 10.86 78.67 10.88 78.55 8.9 78.23 7.52 86.77 2.28 85.93 3.81 76.45 3.83 76.33 1.88 76.02 0.02 87.52 0 87.64 15.88 90.2 16 90.22"></polygon><path class="cls-1" d="M207.46,390.67a7,7,0,0,0,2.7.56,6.17,6.17,0,0,0,2.07-.35,5.59,5.59,0,0,0,3.35-3.31,5.06,5.06,0,0,0-.13-4.59l1.55.63.78-1.89-11.38-4.67-.78,1.89,1.58.65a4.89,4.89,0,0,0-3.3,3.05,5.71,5.71,0,0,0,0,4.82A6.45,6.45,0,0,0,207.46,390.67Zm-1.78-7.43A3.72,3.72,0,0,1,208,381a4.13,4.13,0,0,1,1.31-.21,5.35,5.35,0,0,1,2,.43,4.72,4.72,0,0,1,2.52,2.18,3.75,3.75,0,0,1,.07,3.26,3.94,3.94,0,0,1-2.37,2.32,5.07,5.07,0,0,1-5.83-2.39A3.93,3.93,0,0,1,205.68,383.24Z" transform="translate(-193.33 -321.24)"></path><path class="cls-1" d="M214.72,369a2.55,2.55,0,0,0,1.85.53,4.31,4.31,0,0,0,1.71-.66,11.08,11.08,0,0,0,1.6-1.28c.5-.49,1-.93,1.48-1.32a4.74,4.74,0,0,1,1.35-.82,1.16,1.16,0,0,1,1.16.15,1.48,1.48,0,0,1,.58,1.72,4.82,4.82,0,0,1-.37,1,10.06,10.06,0,0,1-.59,1,4.11,4.11,0,0,1-.85.87,2.36,2.36,0,0,1-2.78.25l-.1-.05-1.21,1.73.11.07a3.87,3.87,0,0,0,2.07.62,4.24,4.24,0,0,0,1.1-.16,5.85,5.85,0,0,0,3.25-2.5,6.26,6.26,0,0,0,1.32-3.54,3.18,3.18,0,0,0-1.49-2.73,2.66,2.66,0,0,0-1.88-.56,4.14,4.14,0,0,0-1.74.64,9.52,9.52,0,0,0-1.61,1.28c-.49.47-1,.92-1.47,1.32a5.53,5.53,0,0,1-1.33.85,1.09,1.09,0,0,1-1.12-.14,1.32,1.32,0,0,1-.62-1.21,4,4,0,0,1,.83-1.9c1-1.47,2.05-1.92,3.12-1.36l.09.05,1.19-1.7-.12-.06a3.56,3.56,0,0,0-2.73-.36,5.45,5.45,0,0,0-2.94,2.3,6,6,0,0,0-1.31,3.49A3.15,3.15,0,0,0,214.72,369Z" transform="translate(-193.33 -321.24)"></path><path class="cls-1" d="M233.37,359.51l1.51-1.39-4.8-5.2a3.45,3.45,0,0,1-1-2.57,3.54,3.54,0,0,1,1.17-2.42,3.12,3.12,0,0,1,2.38-.89,3.6,3.6,0,0,1,2.41,1.27l4.8,5.21,1.51-1.39-4.84-5.25A5.31,5.31,0,0,0,232.7,345a4.33,4.33,0,0,0-1.85.29,5.88,5.88,0,0,0-1.79,1.18,4,4,0,0,0-1.2,2,6.18,6.18,0,0,0-.2,1.86l-4.4-4.76-1.51,1.39,11.54,12.49Z" transform="translate(-193.33 -321.24)"></path><rect class="cls-1" x="240.47" y="331.96" width="2.19" height="2.61" transform="matrix(0.84, -0.54, 0.54, 0.84, -334.42, -139.59)"></rect><polygon class="cls-1" points="55.56 25.46 55.62 25.56 57.35 24.46 50.82 14.18 50.76 14.08 49.03 15.18 55.56 25.46"></polygon><path class="cls-1" d="M259,339.19a5.59,5.59,0,0,0,2.39.54,6.44,6.44,0,0,0,2.45-.51,5.87,5.87,0,0,0,3.46-3.4,7.05,7.05,0,0,0-3.38-8.33,6.34,6.34,0,0,0-8.3,3.37,7,7,0,0,0,3.38,8.33Zm2.38-10.32a3.54,3.54,0,0,1,1.67.42,5.26,5.26,0,0,1,2.37,5.85,4.08,4.08,0,0,1-5.55,2.25,5.21,5.21,0,0,1-2.37-5.85,3.68,3.68,0,0,1,2.28-2.33A4.34,4.34,0,0,1,261.41,328.87Z" transform="translate(-193.33 -321.24)"></path><path class="cls-1" d="M277.62,334.56l2-.32-1.12-7a3.43,3.43,0,0,1,2.92-4.06,3.14,3.14,0,0,1,2.47.57,3.54,3.54,0,0,1,1.3,2.4l1.12,7,2-.32-1.13-7.05a5.36,5.36,0,0,0-2.13-3.68,4.43,4.43,0,0,0-1.71-.78,5.71,5.71,0,0,0-2.15,0,4.09,4.09,0,0,0-2.08,1,6.3,6.3,0,0,0-1.2,1.44l-.26-1.64-2,.32,1.92,12Z" transform="translate(-193.33 -321.24)"></path><path class="cls-1" d="M386.46,440.63l-.12,0-1.84,6.6a7.17,7.17,0,0,0-.22,2.84,6.94,6.94,0,0,0,.9,2.72,8.17,8.17,0,0,0,5.11,3.8,9.51,9.51,0,0,0,2.58.37,7.73,7.73,0,0,0,3.76-1,7,7,0,0,0,2.19-1.86,7.34,7.34,0,0,0,1.28-2.54l1.82-6.49,0-.11Zm1.21,2.46,11.84,3.32L398.24,451a5,5,0,0,1-2.82,3.35,7.08,7.08,0,0,1-8.35-2.34,5,5,0,0,1-.67-4.33h0Z" transform="translate(-193.33 -321.24)"></path><path class="cls-1" d="M384.64,464.54a6.28,6.28,0,0,0-4.74-.75,6,6,0,0,0-3.85,3,5.85,5.85,0,0,0-.87,3.62,6,6,0,0,0,1.35,3.11l.11.13,1.06-1.87,0-.06,0-.06a3.54,3.54,0,0,1,0-3.92,4,4,0,0,1,2.35-1.95,4.28,4.28,0,0,1,2.84.15l-4.93,8.66-.06.11.73.42a6.83,6.83,0,0,0,3.39,1,5.94,5.94,0,0,0,1.32-.15,6.35,6.35,0,0,0,4.43-7.78A6.41,6.41,0,0,0,384.64,464.54Zm.86,7.51a3.94,3.94,0,0,1-2.22,1.87,4.16,4.16,0,0,1-2.67-.1l3.92-6.88A4.15,4.15,0,0,1,386,469.2,3.87,3.87,0,0,1,385.5,472.05Z" transform="translate(-193.33 -321.24)"></path><path class="cls-1" d="M373.47,483.57h-.05a4.36,4.36,0,0,0-1.78.46,10.47,10.47,0,0,0-1.74,1.07,19.38,19.38,0,0,1-1.63,1.13,5,5,0,0,1-1.44.65,1.17,1.17,0,0,1-1.14-.3,1.46,1.46,0,0,1-.35-1.77,4.23,4.23,0,0,1,.48-.92,8.75,8.75,0,0,1,.7-.89,4.27,4.27,0,0,1,1-.77,2.38,2.38,0,0,1,2.79.09l.09.07,1.42-1.58-.1-.08a3.86,3.86,0,0,0-3.09-.84A5.88,5.88,0,0,0,365,482a6.32,6.32,0,0,0-1.74,3.36,3.19,3.19,0,0,0,1.15,2.89,2.7,2.7,0,0,0,1.79.79h0a4.44,4.44,0,0,0,1.81-.43,10.08,10.08,0,0,0,1.74-1.07c.55-.41,1.1-.79,1.63-1.14a5.23,5.23,0,0,1,1.41-.67,1.07,1.07,0,0,1,1.1.27c.81.72.62,1.73-.58,3.06s-2.27,1.65-3.27,1l-.08-.06-1.39,1.54.11.08a3.68,3.68,0,0,0,2.16.72l.51,0a5.5,5.5,0,0,0,3.2-1.93,5.91,5.91,0,0,0,1.72-3.3,3.12,3.12,0,0,0-1.13-2.69A2.61,2.61,0,0,0,373.47,483.57Z" transform="translate(-193.33 -321.24)"></path><rect class="cls-1" x="362.95" y="502.9" width="2.2" height="2.6" transform="translate(-427.83 14.19) rotate(-38.42)"></rect><polygon class="cls-1" points="162.03 170.37 161.96 170.27 160.35 171.55 167.93 181.09 168 181.18 169.61 179.91 162.03 170.37"></polygon><path class="cls-1" d="M346.17,500.28a5.64,5.64,0,0,0-4.69.42,5.07,5.07,0,0,0-2.82,3.64l-.61-1.15a3.86,3.86,0,0,1-.49-2.86,4,4,0,0,1,2.18-2.2c1.56-.83,2.86-.83,3.86,0l.06.05,2-1.05-.12-.11a4.9,4.9,0,0,0-3-1.4,7.07,7.07,0,0,0-4,1,5.88,5.88,0,0,0-2.95,3.14,5.28,5.28,0,0,0,.56,4.3l5.46,10.34.06.1,1.81-1-.78-1.48a4.9,4.9,0,0,0,4.47-.25,5.8,5.8,0,0,0,3.09-3.7,6.83,6.83,0,0,0-4.13-7.82Zm2.16,7.37a4.25,4.25,0,0,1-5.34,2.83,5.1,5.1,0,0,1-2.9-5.49,4,4,0,0,1,.7-1.42,4.3,4.3,0,0,1,1.36-1.1,4.35,4.35,0,0,1,2-.53,3.74,3.74,0,0,1,1.27.23,4.51,4.51,0,0,1,2.43,2.22A4.57,4.57,0,0,1,348.33,507.65Z" transform="translate(-193.33 -321.24)"></path><path class="cls-1" d="M327.37,506.91l-2,.52,1.78,6.83a3.48,3.48,0,0,1-.35,2.75,3.44,3.44,0,0,1-2.17,1.57,3.11,3.11,0,0,1-2.51-.33,3.6,3.6,0,0,1-1.53-2.26l-1.78-6.86-2,.52,1.8,6.91a5.34,5.34,0,0,0,2.48,3.45,4.35,4.35,0,0,0,1.77.61,4.41,4.41,0,0,0,.52,0,6.47,6.47,0,0,0,1.62-.22,4.07,4.07,0,0,0,2-1.16,6.37,6.37,0,0,0,1.05-1.54l.41,1.6,2-.52L327.4,507Z" transform="translate(-193.33 -321.24)"></path><path class="cls-1" d="M310.68,412.64l-.12,0-1.87,2.17,0,0v.06a2,2,0,0,0,.16,1.14,3.51,3.51,0,0,0,.61.85c.23.25.48.5.73.75a3.64,3.64,0,0,1,.6.77l.07.11.13,0c.63-.14.81-.49.85-.76a5.82,5.82,0,0,0,.06-1,6.57,6.57,0,0,1,.05-1c0-.27.24-.47.6-.61l.22-.08-.13-.19c-.14-.22-.27-.42-.37-.61a5.88,5.88,0,0,0-.35-.6,2,2,0,0,0-1.2-.94Z" transform="translate(-193.33 -321.24)"></path><path class="cls-1" d="M375.34,430.63a13.85,13.85,0,0,0,1.56-.74,3.9,3.9,0,0,0,.36-.25.92.92,0,0,1,.3-.18l3.4-1.64.3.3.12-.1a5.79,5.79,0,0,1,1.51-.91,13.26,13.26,0,0,0,1.59-.74.58.58,0,0,0,.5-.26c.1-.15.21-.31.33-.47a3.23,3.23,0,0,1,.38-.43.46.46,0,0,1,.47-.06l.08,0,.07-.06a3.08,3.08,0,0,0,.57-.57,6.47,6.47,0,0,1,.5-.56l.45-.51a2.73,2.73,0,0,0,.28-.33l.26-.31.45-.47.13-.12-.13-.12v-.06a.4.4,0,0,1,0-.15v-.43a.41.41,0,0,0-.27-.41l-.1,0-.08.06a10.77,10.77,0,0,1-.88.67l-.93.6-.88.56a5.32,5.32,0,0,0-.58.38,6.57,6.57,0,0,0-.5.44l-.74.69-.26-.32-.14.14a9.78,9.78,0,0,1-.77.69.82.82,0,0,1-.84.11l-.08,0-.07.05a1.32,1.32,0,0,1-.48.17,4.12,4.12,0,0,0-.57.11,1.7,1.7,0,0,0-.53.24,1.19,1.19,0,0,0-.41.64l-.84.09a5.39,5.39,0,0,0-.85.14,3,3,0,0,0-.78.33,2,2,0,0,0-.63.63,3,3,0,0,0-.22.45c0,.13-.09.27-.12.4a1.48,1.48,0,0,1-.42,0,.41.41,0,0,1-.33-.22l-.06-.1-.11,0a8.89,8.89,0,0,0-1.61.43c-.52.2-1,.41-1.49.61s-1,.42-1.48.61a7.14,7.14,0,0,1-1.53.38,3.34,3.34,0,0,0-2.06-.22,5.68,5.68,0,0,1-1,0,1.08,1.08,0,0,1-.65-.29,1.94,1.94,0,0,1,.61-.71,5.22,5.22,0,0,1,.95-.53,9.84,9.84,0,0,1,1-.36,4.21,4.21,0,0,0,1-.43,2.42,2.42,0,0,0,.75-.71,2,2,0,0,0,.29-1l.44.09a5.09,5.09,0,0,1,.62.16l.08,0,.07-.05a1.29,1.29,0,0,0,.49-.58,1.57,1.57,0,0,1,.34-.51.71.71,0,0,0,.55.21A.35.35,0,0,0,373,425a2.12,2.12,0,0,0,.25-.6,2.31,2.31,0,0,1,.3-.61c.1-.13.31-.16.64-.07l.07,0,.07,0a3.71,3.71,0,0,0,1.21-1.22,14.59,14.59,0,0,0,.74-1.48l.46-.9a5.37,5.37,0,0,1,.51-.8,1.65,1.65,0,0,0,.3-1,1.35,1.35,0,0,0-.27-.83.82.82,0,0,0,.26-1,2.48,2.48,0,0,0-.92-1.25,3.21,3.21,0,0,0-1.67-.64,2.37,2.37,0,0,0-1.87.74.83.83,0,0,0-1-.14,3.84,3.84,0,0,0-.64.55,4.67,4.67,0,0,1-.66.57.87.87,0,0,1-.86,0l-.11,0-.08.07a12.72,12.72,0,0,1-1.2,1c-.42.31-.85.64-1.26,1s-.8.69-1.18,1.06a6.38,6.38,0,0,0-1,1.3l0,.06v.07a1.34,1.34,0,0,1,0,.61,1.11,1.11,0,0,1-.18.38,3,3,0,0,1-.3.35,3.49,3.49,0,0,0-.41.52l-.05.07,0,.08a.64.64,0,0,0,.2.28.16.16,0,0,1,.06.14c0,.21-.05.28-.07.3a.3.3,0,0,1-.19.08h-.36l-.39,0h-.17v.18a3.24,3.24,0,0,0,0,.45c0,.13,0,.27,0,.43a3.47,3.47,0,0,1-.17,1.12,4.28,4.28,0,0,1-.47.9,1.75,1.75,0,0,0-.29,1.15,1.25,1.25,0,0,1,0,.19.85.85,0,0,0-.3.32l-.29-.29-.11.2c-.32.6-.54.73-.64.77a1.51,1.51,0,0,1-.59.06,1.84,1.84,0,0,0-.73.07,1.53,1.53,0,0,0-.72.71.58.58,0,0,0-.41-.19h0a.71.71,0,0,0-.49.24,1,1,0,0,0-.64-.34,1.42,1.42,0,0,0-.62.09l-.53.22a.63.63,0,0,1-.47,0,.53.53,0,0,1-.16-.08l-.2-.17a1.84,1.84,0,0,1-.8-1.12,8,8,0,0,1-.08-1.19,3.55,3.55,0,0,0-.18-1.15,1.65,1.65,0,0,0-1.05-.9,2,2,0,0,1,.33-.77,2.41,2.41,0,0,1,.63-.56,7.88,7.88,0,0,1,.82-.43c.31-.14.63-.3.95-.48l.12-.07,0-.14a2,2,0,0,1-.1-1.15,4.69,4.69,0,0,1,.37-1c.17-.32.32-.65.48-1a2.39,2.39,0,0,0,.17-1.2v-.06l0-.05a1.47,1.47,0,0,0-.55-.33,1.32,1.32,0,0,0-.62,0,1.59,1.59,0,0,0-.57.23,1,1,0,0,0-.39.47,8.3,8.3,0,0,0-1.55,2.13c-.43.84-.87,1.6-1.29,2.27l0,.06a2.43,2.43,0,0,1-.75,1.39,9.75,9.75,0,0,1-1.39,1.06c-.52.33-1.05.69-1.58,1.07a4.49,4.49,0,0,0-1.24,1.36,1.07,1.07,0,0,0-.74.18,2,2,0,0,0-.47.56l-.33.66a1.57,1.57,0,0,1-.27.43,1.25,1.25,0,0,0-1-.05,4.6,4.6,0,0,0-.82.44,4.34,4.34,0,0,1-.65.41c-.06,0-.23.12-.55-.09l-.15-.1-.09.15a.46.46,0,0,1-.3.23,1.7,1.7,0,0,1-.39,0,5.05,5.05,0,0,0-.49-.68.57.57,0,0,1-.1-.58c.32-.12.69-.32.67-.65a1.05,1.05,0,0,0-.06-.24s0,0,0,0l.1-.1-.33-.53-.11.06a2.85,2.85,0,0,1-.23-.37s-.07-.17.21-.36l.05,0,0-.06a12.24,12.24,0,0,1,.82-1.86l1-1.83c.31-.61.61-1.24.88-1.87a10.21,10.21,0,0,0,.62-2c0-.14.09-.29.13-.45a1.17,1.17,0,0,0,0-.52,1,1,0,0,0-.5-.94,1.67,1.67,0,0,0-1-.25,1.33,1.33,0,0,0-.89.43,1,1,0,0,0-.2,1,9.08,9.08,0,0,0-2.56,3.2,13.67,13.67,0,0,0-1.19,4l0,.11.09.06c.1.07.1.12.06.2l-.24.53a1.2,1.2,0,0,0-.11.61c0,.3.34.46.55.53,0,.13,0,.26,0,.39s0,.16-.23.28l-.12.06,0,.13c0,.2.1.41.16.61l-.64.43c-.24.19-.46.39-.67.59s-.43.38-.66.57l-.22.15-.5.32-.49.32a1.71,1.71,0,0,0-.28.17l-.85.41a10.24,10.24,0,0,0-.85.58,11.44,11.44,0,0,0-1.48.25l-1.31.32a6.6,6.6,0,0,0-.52-1.19c-.24-.43-.48-.86-.73-1.29l-.06-.06c-.17-.11-.36-.23-.55-.37s-.32-.22-.49-.32c0-.19.08-.39.14-.6s.12-.48.17-.72a5.2,5.2,0,0,0,.31-.63c.15-.32.3-.68.44-1l.41-1c.12-.31.19-.48.22-.55a8.42,8.42,0,0,0,.24-.86l.2-.85a3,3,0,0,0,.38-.83,4.88,4.88,0,0,1,.29-.82l.42-.87c.12-.25.24-.5.34-.74l.31-.73c.09-.22.19-.48.31-.76l1-.16,1.05-.19.21,0-1.07-2.4-2.11-.63-.07.06a1.6,1.6,0,0,1-.35.18l-.54.2-.56.18c-.2.06-.36.11-.48.16l0,0-.37.22-.55.27-.57.25-.43.18-1.63.63a9.21,9.21,0,0,0-1.59.82l-.73.57c-.17.14-.41.31-.74.56a3.92,3.92,0,0,0-.57.74,5.67,5.67,0,0,1-.49.72,3.19,3.19,0,0,1-.64.54,6.62,6.62,0,0,0-.73.56l-.78,1.67s0,.06-.19.23l-.4.42-.41.4a.88.88,0,0,0-.23.33l-.69,1.58a8.83,8.83,0,0,0-.55.74c-.17.24-.34.5-.52.77l-.05.07,0,.08a1.91,1.91,0,0,1,.07.28,1.16,1.16,0,0,0-.71.44l0,0v0c-.05.31-.15.5-.27.54a2.13,2.13,0,0,1-.58.11,2.85,2.85,0,0,0-.71.12.92.92,0,0,0-.57.71,1.22,1.22,0,0,1-.63.07l-.63-.15a2.28,2.28,0,0,0-.7-.07,1.77,1.77,0,0,0-.85.31,7.41,7.41,0,0,0-1.14,0,1.2,1.2,0,0,1-.93-.26l-.08-.07-.1,0c-.22.08-.51.16-.63,0a1.55,1.55,0,0,1-.26-.65,5.64,5.64,0,0,1-.1-.94,1.56,1.56,0,0,0-.13-.63.75.75,0,0,0,.3-.34,2.74,2.74,0,0,0,.16-.53,1.28,1.28,0,0,1,.15-.4c0-.08.16-.11.34-.11h.28l-.12-.26a1.4,1.4,0,0,1-.14-1.23,4.78,4.78,0,0,1,.69-1,8.85,8.85,0,0,0,.8-1.08,1.94,1.94,0,0,0,.14-1.62,1.18,1.18,0,0,0-.26-.5s0,0,0-.05l.13-.32-.33.08-.19.07a1.4,1.4,0,0,0-.17-.09,2,2,0,0,0-.56,0h-.6l-.05.05-.58.55a5.25,5.25,0,0,0-.6.65,3.31,3.31,0,0,0-.41.73c-.3.29-.6.59-.88.9L304,426.67a7.54,7.54,0,0,1-1.82,1.46,1.28,1.28,0,0,0-.72,0,1.89,1.89,0,0,0-.58.3,2.74,2.74,0,0,0-.47.49,4.19,4.19,0,0,1-.39.45,4,4,0,0,0-1.12.4,6,6,0,0,0-1.1.73,12.13,12.13,0,0,0-1,.92l-.66.76-.82-1.15-.62.58a4.15,4.15,0,0,1-.37-.53,4.27,4.27,0,0,1-.4-.8,3.71,3.71,0,0,1-.2-.83,1.8,1.8,0,0,1,.07-.77v-.08c-.11-1-.21-2-.3-3.07a21.69,21.69,0,0,1-.07-3c.62-1.27,1.19-2.58,1.69-3.89s1-2.61,1.51-4l.45-1.31.09-.27c.17-.51.37-1,.57-1.56a2.26,2.26,0,0,1,.91-1.31,2.45,2.45,0,0,1,1.19-.25l1.38.05a2.43,2.43,0,0,0,1.43-.41,1.2,1.2,0,0,0,.86.15,1.11,1.11,0,0,0,.64-.36l.48.48h.07a4.47,4.47,0,0,0,1.26-.1l1.22-.29a10.49,10.49,0,0,1,1.17-.23,2.64,2.64,0,0,1,1.05,0l.11,0,.07-.1a1,1,0,0,1,.76-.48,5.32,5.32,0,0,1,1,.08,5.71,5.71,0,0,0,1.17.09,1.65,1.65,0,0,0,1.17-.58l.07-.07,0-.1a1.07,1.07,0,0,1,0-.62c.06-.2.1-.38.14-.54a1,1,0,0,0-.06-.58,1.67,1.67,0,0,0-.68-.62l-.06,0H313l-1.13.25a11.84,11.84,0,0,1-1.24.25,10.53,10.53,0,0,1-1.23.14,6.45,6.45,0,0,1-1.1,0h-.07l-.05,0a.52.52,0,0,1-.45.1,2.88,2.88,0,0,1-.56-.23,4.3,4.3,0,0,0-.69-.26,1.21,1.21,0,0,0-.88.11l0,0,0,.05c-.11.19-.29.43-.5.44a1.67,1.67,0,0,1-.61-.09,3.6,3.6,0,0,0-.7-.18.83.83,0,0,0-.7.24.89.89,0,0,0-1-.08,3.42,3.42,0,0,1-.54.18.9.9,0,0,1-.46,0c-.19-.23-.4-.48-.65-.74a.64.64,0,0,1-.08-.76,3.11,3.11,0,0,0,.53-.69.65.65,0,0,1,.49-.39h.14v-.14a1.24,1.24,0,0,1,.21-.47,4.78,4.78,0,0,0,.35-.59.84.84,0,0,0,.08-.63.75.75,0,0,0-.4-.43,3.19,3.19,0,0,0,.4-.75,9.73,9.73,0,0,0,.29-1c.08-.34.15-.68.22-1a7,7,0,0,1,.27-.95l0-.14-.12-.07c-.27-.16-.54-.31-.82-.45a1.82,1.82,0,0,0-1-.15l-.06,0A4.78,4.78,0,0,0,299,399a10.36,10.36,0,0,0-.95,2.2c-.24.78-.45,1.58-.63,2.37a8.69,8.69,0,0,1-.78,2.18,5.28,5.28,0,0,1-1.43,1,5.42,5.42,0,0,1-1.51.43,7.74,7.74,0,0,1-1.6,0,16.63,16.63,0,0,1-1.77-.29h-.06l-.06,0a1.26,1.26,0,0,1-.63.2,4.47,4.47,0,0,0-.7.07,1.12,1.12,0,0,0-.59.28,1.25,1.25,0,0,0-.3.85v.36a.52.52,0,0,0,.41.45,2.86,2.86,0,0,0,1.24,0,2.33,2.33,0,0,1,.64,0l.25.12a4.15,4.15,0,0,0,1.15.25c.73,0,1.48,0,2.21.08a4.55,4.55,0,0,1,.86.18c-.62,1.59-1.23,3.21-1.81,4.83s-1.12,3.38-1.57,5.09c-.18.69-.35,1.39-.51,2.09s-.33,1.38-.51,2.1l-.11.48a1.65,1.65,0,0,0,0,.56,6.41,6.41,0,0,0,.16,1,5.49,5.49,0,0,1,.16.85,1.48,1.48,0,0,1,0,.21c-.09.06-.17.13-.26.18a.83.83,0,0,1-.43.11h-.18v.18c0,.54-.09.63-.09.63a.5.5,0,0,1-.36,0,2.9,2.9,0,0,0-.6-.11.62.62,0,0,0-.55.4l-.29-.29-.11.2c-.33.6-.54.73-.64.77a1.56,1.56,0,0,1-.6.06,1.79,1.79,0,0,0-.72.07,1.45,1.45,0,0,0-.72.71.62.62,0,0,0-.41-.19h0a.73.73,0,0,0-.5.24,1,1,0,0,0-.64-.34,1.4,1.4,0,0,0-.61.09l-.53.22a.66.66,0,0,1-.48,0,.53.53,0,0,1-.16-.08,1.39,1.39,0,0,0-.2-.17,1.84,1.84,0,0,1-.8-1.12,9.64,9.64,0,0,1-.08-1.19,3.55,3.55,0,0,0-.18-1.15,1.62,1.62,0,0,0-1-.9,1.87,1.87,0,0,1,.32-.77,2.59,2.59,0,0,1,.63-.56,7.15,7.15,0,0,1,.83-.43c.31-.14.62-.3.94-.48l.13-.07-.05-.14a2,2,0,0,1-.1-1.15,4.72,4.72,0,0,1,.38-1c.16-.32.32-.65.48-1a2.39,2.39,0,0,0,.16-1.2v-.06l0-.05a1.43,1.43,0,0,0-.54-.33,1.36,1.36,0,0,0-.63,0,1.75,1.75,0,0,0-.57.23,1.06,1.06,0,0,0-.39.47,8.52,8.52,0,0,0-1.54,2.13c-.44.84-.87,1.6-1.3,2.27l0,.06a2.42,2.42,0,0,1-.74,1.39,9.75,9.75,0,0,1-1.39,1.06c-.52.33-1.05.69-1.58,1.07A4.4,4.4,0,0,0,273.1,428a1.09,1.09,0,0,0-.74.18,1.94,1.94,0,0,0-.46.56,6.77,6.77,0,0,0-.33.66,1.85,1.85,0,0,1-.27.43,1.27,1.27,0,0,0-1-.05,4.51,4.51,0,0,0-.81.44,5,5,0,0,1-.66.41s-.23.12-.55-.09l-.14-.1-.1.15a.42.42,0,0,1-.3.23,1.68,1.68,0,0,1-.39,0,4.22,4.22,0,0,0-.48-.68.53.53,0,0,1-.1-.58c.31-.12.68-.32.66-.65a1.14,1.14,0,0,0-.27-.65,2.49,2.49,0,0,1-.33-.56s-.08-.17.2-.36l0,0,0-.06a13.31,13.31,0,0,1,.82-1.86q.49-.91,1-1.83c.32-.61.62-1.24.89-1.87a10.18,10.18,0,0,0,.61-2c.05-.14.09-.29.14-.45a1.34,1.34,0,0,0,0-.52,1,1,0,0,0-.51-.94,1.66,1.66,0,0,0-1-.25,1.33,1.33,0,0,0-.89.43,1,1,0,0,0-.19,1,8.86,8.86,0,0,0-2.56,3.2c-.07.14-.12.29-.18.43a2.48,2.48,0,0,0-.4.26.9.9,0,0,0-.7-.47h0a1.51,1.51,0,0,0-.75.24,4.38,4.38,0,0,1-.64.34c-.1,0-.26.08-.52-.15l-.09-.09-.11.07a3,3,0,0,1-1.85.43,4.82,4.82,0,0,1-1.81-.62v-2.63a6.47,6.47,0,0,0-.17-.67l-.29-.91c-.1-.31-.2-.62-.31-.93s-.17-.53-.21-.68l0-.07-.05,0a2,2,0,0,0-1.63-.43,4.58,4.58,0,0,0-1.32.6c-.42.27-.86.53-1.31.78a2.3,2.3,0,0,1-1.49.24l-.33-.05.15.3a.3.3,0,0,1,0,.26l-.16.39a2.07,2.07,0,0,0-.09.4.51.51,0,0,0,.14.37l-.27.21c-.16.08-.31.17-.48.24l-.53.26a2.14,2.14,0,0,0-.52.37l-.06.06v.09a1,1,0,0,1-.27.95,6,6,0,0,1-.93.66,4.1,4.1,0,0,0-.9.73,1.23,1.23,0,0,0-.16,1.23.94.94,0,0,0-.42.42l-.94.46c-.58.31-1.17.62-1.75.91a6.52,6.52,0,0,1-1.61.55,16.09,16.09,0,0,0-1.14-5.75,28.6,28.6,0,0,0-2.85-5.34,28.47,28.47,0,0,0,1.62-3.95,14.26,14.26,0,0,0,.68-4.34,7.93,7.93,0,0,0-.26-1.94c-.16-.67-.32-1.29-.49-1.84l-.22-.59a4.09,4.09,0,0,1-.18-.57v-.06a2.54,2.54,0,0,0-.67-1,3.39,3.39,0,0,0-.93-.56,5.41,5.41,0,0,0-1.07-.27l-1.07-.19-.42-.08a1.79,1.79,0,0,0-1,0l-.77.19c-.26.06-.52.14-.77.22l-.57.19a12.19,12.19,0,0,0-3.51,2.07,17,17,0,0,0-2.63,2.87,23.38,23.38,0,0,0-2,3.41c-.58,1.18-1.15,2.41-1.69,3.63s-1.07,2.31-1.62,3.43a26.11,26.11,0,0,1-1.91,3.23l0,.05v.06a3.26,3.26,0,0,1-.17,1.32c-.15.41-.31.81-.49,1.19s-.35.81-.51,1.2a3.79,3.79,0,0,0-.24,1.29,1.29,1.29,0,0,0-.9.67,2.63,2.63,0,0,0-.2.94,4.45,4.45,0,0,1-.13.89,1,1,0,0,1-.66.61l-.14.06,0,.14a3.85,3.85,0,0,1,.06,1.19c0,.45-.1.92-.17,1.41l-.2,1.51a5.75,5.75,0,0,0,0,1.55l0,.11.1,0a2.25,2.25,0,0,0,1.36.08,1.66,1.66,0,0,0,.84-.58,4.05,4.05,0,0,0,.52-1q.19-.54.42-1.08a4.83,4.83,0,0,1,.54-1,2.24,2.24,0,0,1,.85-.72l1.85,1.33a2.06,2.06,0,0,1,.31.23,2.4,2.4,0,0,0,.37.28,18,18,0,0,0,1.91.92c.7.29,1.43.56,2.18.8s1.49.45,2.22.63,1.43.31,2.06.41a16.56,16.56,0,0,0,2.22.15,16.3,16.3,0,0,0,2.21-.15,9.16,9.16,0,0,0,4.08-1.66l.1-.07,0-.12a.7.7,0,0,1,.05-.68,1.65,1.65,0,0,1,.61-.44c.3-.13.58-.24.86-.34a1.48,1.48,0,0,0,.72-.48l.1-.13-.28-.23c.54-.35,1.08-.68,1.61-1a16.94,16.94,0,0,1,1.81-.87c.42-.18.83-.4,1.24-.61a.49.49,0,0,1,0,.12,6,6,0,0,1-.38,1c-.16.34-.31.69-.46,1a2.5,2.5,0,0,0-.16,1.22v0l0,0a5.15,5.15,0,0,1,.64,1.11,3.78,3.78,0,0,1,.27,1.26v.2l.2,0a1.25,1.25,0,0,1,.58,0,1.83,1.83,0,0,1,.49.23c.16.11.33.23.49.36a2.93,2.93,0,0,0,.56.36l.05,0h0a10,10,0,0,0,3-.91,8.81,8.81,0,0,0,2.46-1.78,1.12,1.12,0,0,0,1-.28,2.43,2.43,0,0,0,.42-.8,8.82,8.82,0,0,1,.31-.86.94.94,0,0,1,.65-.51l.23-.07-.13-.2a2.7,2.7,0,0,0-.2-.25.09.09,0,0,1,0-.05,1.47,1.47,0,0,0,.94-.8,8,8,0,0,0,.38-1.14,5,5,0,0,1,.37-1c.13-.25.42-.39.89-.43a1.45,1.45,0,0,1,.36,0,2.36,2.36,0,0,0,.47,0,2.29,2.29,0,0,1,.74.05,2.69,2.69,0,0,0,.9,0c1-.17,1.91-.29,2.71-.39l.6-.09q-.15.63-.24,1.26v.11l.08.06c.1.07.1.12.06.2l-.23.53a1.33,1.33,0,0,0-.12.61c0,.3.35.46.56.53,0,.13,0,.26,0,.39s0,.16-.23.28l-.11.06,0,.13a8.65,8.65,0,0,0,.55,1.75c.25.57.5,1.14.75,1.73l0,.1h.12a1.08,1.08,0,0,1,.64.17,6.4,6.4,0,0,1,.49.42,4.5,4.5,0,0,0,.52.46,1.16,1.16,0,0,0,.72.21h.13a1.17,1.17,0,0,0,.28-.05l.27-.09a6,6,0,0,0,1.45-.61,2.25,2.25,0,0,0,1-1.14,4.41,4.41,0,0,0,1.58-.39,8.28,8.28,0,0,0,1.68-1,9.48,9.48,0,0,0,1.43-1.33,7,7,0,0,0,.94-1.38h0a1,1,0,0,1,.73.23,1.5,1.5,0,0,1,.35.7,6.69,6.69,0,0,1,.15.93,2.06,2.06,0,0,0,.32.92c.12.15.18.21.26.22a.58.58,0,0,1,.12.08,2.21,2.21,0,0,1,.39.35,3.31,3.31,0,0,0,.45.39,5.76,5.76,0,0,0,4.66,1.18h.05l0,0a1.49,1.49,0,0,1,.52-.35l.59-.24a2.58,2.58,0,0,0,.56-.33,1.58,1.58,0,0,0,.38-.58c.2-.11.35-.2.48-.26a1.28,1.28,0,0,1,.32-.12l.37-.05.61,0h.06l2.09-1.58a6.93,6.93,0,0,0,.66,2,5.86,5.86,0,0,0,2,2.24,5.5,5.5,0,0,0,.63.34,5.87,5.87,0,0,0,.68.26,3.51,3.51,0,0,0,.66.07,4.82,4.82,0,0,0,1.26-.19,5.28,5.28,0,0,0,1.67-.75,1.23,1.23,0,0,0,.38,0,1.47,1.47,0,0,1,.73,0,.35.35,0,0,1,.18.18l.11.23.17-.19a16.4,16.4,0,0,1,1.61-1.52,19.43,19.43,0,0,1,1.74-1.28l.57-.36.57-.35a4.58,4.58,0,0,0,.94-.76c0,.2,0,.41,0,.62a5.46,5.46,0,0,0,.21,1.22,2.35,2.35,0,0,0,.59,1,4.38,4.38,0,0,0,.38.35,2.89,2.89,0,0,1,.35.35c.16.18.32.37.48.58a3.29,3.29,0,0,0,.59.59,2.25,2.25,0,0,0,.7.37,1.67,1.67,0,0,0,.71,0,.49.49,0,0,0,.37.26h.07a.73.73,0,0,0,.38-.12,2.19,2.19,0,0,0,.35-.27.49.49,0,0,1,.22-.15,1.06,1.06,0,0,1,.45,0l.54,0c.42,0,.77,0,1,0a2.81,2.81,0,0,0,1.05-.14l.08,0,0-.08c.08-.19.21-.43.38-.47.41-.09.87,0,1.22-.16s.35-.26.44-.6h.12l.07,0c.63-.42,1.12-.74,1.48-.94l.18-.11c.06.08.1.15.16.24.23.33.41.59.55.77l0,.06,1.83.18h0c.24-.07.51-.13.81-.2a4.57,4.57,0,0,0,.86-.28,6.78,6.78,0,0,0,1.51-.88l.15-.12-.28.78a4.21,4.21,0,0,0-.23.8,4.61,4.61,0,0,0-.07.86c0,.29,0,.57,0,.85v0l.54,1.47a5.61,5.61,0,0,1-.26.66,2.47,2.47,0,0,0-.27.79q-.07.36-.15.81a6.54,6.54,0,0,1-.21.77,7.09,7.09,0,0,1-.38.72c-.15.25-.28.51-.4.76s-.23.51-.34.79l-.33.77,0,.05c0,.31-.09.59-.13.83l-.12.59c0,.17-.05.25-.05.28a4.68,4.68,0,0,1-.34.72c-.14.26-.28.52-.39.78a4.1,4.1,0,0,0-.27.86,5.09,5.09,0,0,1-.21.79c-.11.3-.22.58-.31.86l-.28.85v0q.06.38.15.87c.06.32.12.66.19,1s.14.67.22,1a3.94,3.94,0,0,0,.27.82q-.06.24-.12.54c-.05.21-.09.4-.14.58l0,.14,2,.9,2,.16,0,0c.5-.32,1-.66,1.45-1s.94-.75,1.38-1.13c.2-.18.43-.36.67-.55a5,5,0,0,0,.67-.62c.09-.11.23-.3.43-.58s.38-.55.57-.85.38-.58.55-.87a6,6,0,0,0,.36-.67,6.52,6.52,0,0,0,.31-.85,7.62,7.62,0,0,1,.3-.81l.71-1.55v-.06l.07-.24c0-.15.09-.33.16-.53s.13-.39.19-.58a1.38,1.38,0,0,0,.09-.36c.05-.3.08-.59.12-.88s.07-.57.12-.84a6.3,6.3,0,0,1,.18-.84,8.06,8.06,0,0,0,.19-.88,12.13,12.13,0,0,0,.15-1.75,8.87,8.87,0,0,0-.15-1.8l-.09-.41,0,0v0l.23-.05a1.53,1.53,0,0,1,.3,0h.11l.05-.09c0-.09.09-.17.14-.26a.6.6,0,0,0,.09-.15l.31.06a1.67,1.67,0,0,1,.4.1l.1,0,.08-.08.25-.2.43-.34c.14-.13.28-.24.4-.34l.21-.19.15-.05.35-.1.53-.15,0,0a1.1,1.1,0,0,0,.27-.2l.22-.21.2-.17a4.9,4.9,0,0,0,.66-.56l.6-.57a4.61,4.61,0,0,1,.67-.47,7.07,7.07,0,0,0,.73-.46l0,0c.11.26.22.5.32.76l.05.1h.11a1.06,1.06,0,0,1,.64.17,4.93,4.93,0,0,1,.49.42,4.6,4.6,0,0,0,.53.46,1.13,1.13,0,0,0,.71.21h.13a1.1,1.1,0,0,0,.28-.05,1.48,1.48,0,0,0,.28-.09,5.88,5.88,0,0,0,1.44-.61,2.25,2.25,0,0,0,1-1.14,4.41,4.41,0,0,0,1.59-.39,8.2,8.2,0,0,0,1.67-1,8.61,8.61,0,0,0,1.43-1.33,6.26,6.26,0,0,0,.94-1.38h0a1,1,0,0,1,.74.23,1.6,1.6,0,0,1,.35.7c.06.29.11.61.15.93a1.84,1.84,0,0,0,.32.92c.12.15.18.21.26.22l.11.08a2.71,2.71,0,0,1,.4.35,2.73,2.73,0,0,0,.44.39,5.77,5.77,0,0,0,4.66,1.18h.06l0,0a1.37,1.37,0,0,1,.51-.35l.6-.24a2.51,2.51,0,0,0,.55-.33,1.48,1.48,0,0,0,.39-.58l.47-.26a1.34,1.34,0,0,1,.33-.12l.37-.05.61,0h.06l1.07-.81a7.17,7.17,0,0,0,.42.64c.19.26.39.56.58.88a5.15,5.15,0,0,0,.65.88,2.16,2.16,0,0,0,.83.55,1.16,1.16,0,0,0,.38.06,1.79,1.79,0,0,0,.71-.17,5,5,0,0,0,1.81,0c.29,0,.57-.07.84-.08a4.25,4.25,0,0,1,.8,0h.06l.05,0a1.94,1.94,0,0,1,.87-.22,6.3,6.3,0,0,0,1.14-.15,1.79,1.79,0,0,0,.87-.44.93.93,0,0,0,.1-1l.27-.08C374.29,431,374.82,430.84,375.34,430.63Zm-.83-12.54h0a3.69,3.69,0,0,1-.17.41,4.26,4.26,0,0,0-.26.6,11.91,11.91,0,0,1-.9,1.87,2.46,2.46,0,0,1-1.52,1.14l-.07,0,0,.07a2.29,2.29,0,0,1-.84.91c-.4.24-.82.47-1.26.68s-.87.45-1.29.7a3.3,3.3,0,0,0-.93.79l-.1-.09a.5.5,0,0,0-.33-.17,5.55,5.55,0,0,0,.43-.84,8.58,8.58,0,0,1,.39-.91,3.79,3.79,0,0,1,.52-.78A1.87,1.87,0,0,1,369,422l.11,0v-.12c0-.35.06-.7.11-1s.1-.58.16-.88a1.84,1.84,0,0,0,1.07,0,2.77,2.77,0,0,0,.88-.52,6.83,6.83,0,0,0,.69-.73,3.17,3.17,0,0,1,.67-.61,1.52,1.52,0,0,1,.78-.24A2.24,2.24,0,0,1,374.51,418.09Zm-54.16,11.36,0-.05v-.06a1.19,1.19,0,0,1,.12-.67,1.91,1.91,0,0,1,.33-.37,1.88,1.88,0,0,0,.39-.54,2.48,2.48,0,0,0,.14-1.14l0-.29-.22.13a3.52,3.52,0,0,1,.24-.4,2.52,2.52,0,0,1,.49-.49,4.53,4.53,0,0,0,1.08-1.21l.45-.63a7.31,7.31,0,0,1,1.77-1.75c.62-.41,1.34-.85,2.13-1.29h.06l.05-.05c.31-.31.63-.61.95-.89s.48-.42.71-.64c0,.08,0,.16,0,.24s0,.36,0,.52a14.57,14.57,0,0,0-.63,1.68c-.18.59-.38,1.17-.56,1.69l-.34.45c-.21.27-.45.56-.71.87s-.51.65-.73,1a3.1,3.1,0,0,0-.41.69,8.11,8.11,0,0,0-1.48,1.14l-1.38,1.33a4.46,4.46,0,0,1-.68.63,7.87,7.87,0,0,0-.68.6c-.36,0-.72.06-1.05.11l-.75.11C319.9,429.94,320.11,429.72,320.35,429.45Zm8,5.07-.62.11c-.28,0-.58,0-.89.05a2.44,2.44,0,0,1,.14-.34,3.26,3.26,0,0,0,.2-.48,1.64,1.64,0,0,0,.44-.09,1.05,1.05,0,0,1,.47,0,1.26,1.26,0,0,1,.27,0l.23.07c0,.12.06.24.09.35s0,.17.07.27A2.57,2.57,0,0,0,328.32,434.52Zm-3.89,6.91a6.92,6.92,0,0,1,.21-.79,14.28,14.28,0,0,1,.61-1.48l.63-1.36c.6-.13,1.21-.23,1.81-.3l1.71-.23c0,.25.08.5.13.73l.15.85.16,1.95a8,8,0,0,0-.43,1.75c-.09.63-.16,1.24-.2,1.81l-.33.77c-.11.25-.23.5-.36.74l-.88,1.45c-.14.26-.27.51-.39.77a3.17,3.17,0,0,1-.42.65l-.23.17-.43.32-.47.33a1.8,1.8,0,0,1-.29.19l-.06.06a10,10,0,0,0-.8,1.35,5.38,5.38,0,0,0-.66.38c-.21.14-.44.28-.67.41a8.75,8.75,0,0,1-1.22.46l-.38-.44-.4-.46c0-.21.1-.45.17-.69s.14-.56.19-.82.09-.54.13-.82.09-.55.14-.79c.11-.53.25-1.06.41-1.57s.34-1,.5-1.57c0-.17.12-.44.23-.78a4.72,4.72,0,0,1,.29-.73,6,6,0,0,1,.45-.71,4.74,4.74,0,0,0,.44-.75A4.66,4.66,0,0,0,324.43,441.43Zm.66-11.1.1,0c-.09.15-.18.3-.26.46q-.39.17-.75.36l-.69.32,1.07-.81A1.58,1.58,0,0,1,325.09,430.33Zm-69.29-7.84a.36.36,0,0,1-.22.12,1.54,1.54,0,0,1-.43.05,1.64,1.64,0,0,1-.44-.09,1.38,1.38,0,0,1-.24-.11.81.81,0,0,0-.21-.64l-.47-.47a2.27,2.27,0,0,1-.38-.44.45.45,0,0,1,0-.37,1.07,1.07,0,0,0,.82-.19,2.41,2.41,0,0,0,.6-.63l.47-.71a1.45,1.45,0,0,1,.45-.44,1.35,1.35,0,0,1,.5.74,2.52,2.52,0,0,1,0,1q-.11.54-.27,1.11A3.9,3.9,0,0,0,255.8,422.49Zm-1.61,6.09a1.44,1.44,0,0,0-.71.73l-.51,1.14a1.73,1.73,0,0,1-.55.74c-.18.13-.54.06-1-.22l-.07,0-.08,0a3.32,3.32,0,0,1-.66.2q-.36.06-.72.15a3.61,3.61,0,0,0-.72.25,2.08,2.08,0,0,0-.38.22l0,0a.7.7,0,0,0-.28-.26l-.1-.05-.31.21a4,4,0,0,0,.2-.94q.06-.81.15-1.62a5.67,5.67,0,0,1,.34-1.46,1.82,1.82,0,0,1,1-1l.16-.07-.07-.15a1.54,1.54,0,0,1-.15-1,2.41,2.41,0,0,1,.4-.82,5.12,5.12,0,0,1,.68-.73,5,5,0,0,0,.67-.71,2.48,2.48,0,0,1,1.1.38c.34.23.67.49,1,.75a9.09,9.09,0,0,0,1,.74,2.2,2.2,0,0,0,1.09.35,2.83,2.83,0,0,1-.4,1.44,11.86,11.86,0,0,1-1,1.45l-.1.13Zm-14.7-1.74.12.19a.88.88,0,0,1,.19.52.47.47,0,0,1-.16.32,1.83,1.83,0,0,1-.45.29c-.19.09-.37.17-.56.24l-.67.3a1.62,1.62,0,0,0-.62.53l-.72.16-.72.15-1.37.27a3.36,3.36,0,0,0-1.18.5.53.53,0,0,0-.39-.25.89.89,0,0,0-.47.08l-.43.18a.43.43,0,0,1-.35,0l-.09,0-.07,0a1.67,1.67,0,0,1-.91.26h0a6.9,6.9,0,0,1-1.18-.14c-.38-.07-.79-.16-1.2-.26a5.12,5.12,0,0,0-1.12-.16h0a5.48,5.48,0,0,0-1-.46l-1.07-.33a10.36,10.36,0,0,1-2.29-1.18l-2.06-1.38a22.93,22.93,0,0,0,2.32-4.58c.6-1.63,1.2-3.3,1.76-5,.25-.76.52-1.52.79-2.25s.56-1.49.83-2.23v0a11.38,11.38,0,0,0,1.2-1.84c.33-.65.66-1.32,1-2l.14-.29.22-.45c.08-.16.14-.31.2-.45a.87.87,0,0,0,.1-.31V406a1.11,1.11,0,0,1,.18-.65,1.84,1.84,0,0,1,.44-.48,4.68,4.68,0,0,1,.62-.39l.66-.36a7,7,0,0,0,.77-.47,2.29,2.29,0,0,0,.59-.67l.05-.06a4.26,4.26,0,0,1,.87-.34,5.11,5.11,0,0,1,1-.14,6.39,6.39,0,0,1,1.07,0,3.58,3.58,0,0,1,.9.23,2,2,0,0,1,.81.66,9.56,9.56,0,0,1,.64.88c0,.31,0,.59,0,.85a.94.94,0,0,0,.55.75,11.3,11.3,0,0,1,.11,2.11,9.51,9.51,0,0,1-.26,1.81,13,13,0,0,1-.6,1.75c-.26.59-.56,1.24-.9,1.94l-.61,1.36a2.6,2.6,0,0,1-1.35.27,3.82,3.82,0,0,1-1.42-.27l-.08,0-.07,0a3.67,3.67,0,0,1-1.41.38c-.56.05-1.11.12-1.64.22a4.28,4.28,0,0,0-1.46.57,2.21,2.21,0,0,0-.89,1.48v.06l0,.06a1,1,0,0,1,.12.72,4.16,4.16,0,0,1-.28.74l-.33.67a.78.78,0,0,0,0,.71.74.74,0,0,0,.46.38,2.12,2.12,0,0,1,.31.14v0a1.42,1.42,0,0,0,1,.78,4,4,0,0,0,1.33,0c.45-.08.91-.18,1.36-.3a3.89,3.89,0,0,1,1.16-.15H233l0,0q.48-.24,1.08-.6c.39-.23.79-.5,1.19-.78a10.09,10.09,0,0,0,1.09-.91,3.86,3.86,0,0,0,.63-.81,7.4,7.4,0,0,1,1.2,1.71,12.69,12.69,0,0,1,.9,2.23c.23.78.43,1.58.59,2.4s.27,1.4.41,2.06a.5.5,0,0,0-.37.17Zm-5.42-9.6v.53c-.2.1-.38.18-.56.25a6.72,6.72,0,0,0-.66.32c-.41.22-.81.42-1.21.6a5.76,5.76,0,0,1-1.13.37c.14-.24.27-.49.41-.76a4.91,4.91,0,0,1,.52-.79,2.16,2.16,0,0,1,.66-.55,1.6,1.6,0,0,1,.75-.17H233l.18,0a.69.69,0,0,0,.28,0,1.21,1.21,0,0,1,.43,0C233.94,417.07,234,417.1,234.07,417.24Z" transform="translate(-193.33 -321.24)"></path><path class="cls-2" d="M298.45,516.41a95,95,0,0,1-94.86-94.86h-1.92a96.89,96.89,0,0,0,96.78,96.79c1.68,0,3.4-.05,5.09-.13l-.1-1.93C301.78,516.37,300.1,516.41,298.45,516.41Z" transform="translate(-193.33 -321.24)"></path><path class="cls-2" d="M393.31,421.55h1.93a96.9,96.9,0,0,0-96.79-96.79v1.93A95,95,0,0,1,393.31,421.55Z" transform="translate(-193.33 -321.24)"></path><path class="cls-2" d="M355.86,479.43a82,82,0,0,1-115.76,0l-1.37,1.36a83.86,83.86,0,0,0,118.49,0c1-1,2.06-2.1,3-3.19l-1.44-1.29C357.87,477.37,356.87,478.42,355.86,479.43Z" transform="translate(-193.33 -321.24)"></path><path class="cls-2" d="M240.1,363.67a81.84,81.84,0,0,1,115.76,0l1.36-1.37a83.89,83.89,0,0,0-118.49,0Z" transform="translate(-193.33 -321.24)"></path></svg>