<svg xmlns="http://www.w3.org/2000/svg" id="&#x421;&#x43B;&#x43E;&#x439;_1" data-name="&#x421;&#x43B;&#x43E;&#x439; 1" viewBox="0 0 173.15 197.75"><defs><style>.cls-1{fill:#fff;}.cls-2{fill:#e0b159;}</style></defs><path class="cls-1" d="M221.87,379.72a1.15,1.15,0,1,0,0,2.29h6.89a1.15,1.15,0,1,0,0-2.29h-2.12v-20l14.11,21.51a1.61,1.61,0,0,0,1.43.83h4a1.15,1.15,0,1,0,0-2.29h-2.47v-22h2.47a1.15,1.15,0,1,0,0-2.3h-6.89a1.15,1.15,0,0,0,0,2.3h2.12v20l-14.11-21.5a1.6,1.6,0,0,0-1.42-.84h-4a1.15,1.15,0,1,0,0,2.3h2.47v22Z" transform="translate(-211.07 -322.07)"></path><path class="cls-1" d="M250.81,382h6.89a1.15,1.15,0,1,0,0-2.29h-1.86l2.45-6.4c0-.07.07-.15.32-.15h10.3c.24,0,.28.08.31.14l2.47,6.42h-1.87a1.15,1.15,0,1,0,0,2.29h6.89a1.15,1.15,0,0,0,0-2.29h-2.36s-.09,0-.16-.16l-9.05-23.51a1.32,1.32,0,0,0-1.38-1,1.29,1.29,0,0,0-1.36.93l-9,23.5c-.07.13-.15.23-.19.23h-2.36a1.15,1.15,0,1,0,0,2.29Zm12.95-22.88,4.52,11.74h-9Z" transform="translate(-211.07 -322.07)"></path><path class="cls-1" d="M275.34,363a1.07,1.07,0,0,0,1.14-1.14v-4.11H284v22H281.5a1.15,1.15,0,1,0,0,2.29h7.25a1.15,1.15,0,1,0,0-2.29h-2.47v-22h7.49v4.11a1.15,1.15,0,0,0,2.3,0v-5.26a1.08,1.08,0,0,0-1.15-1.15H275.34a1.08,1.08,0,0,0-1.15,1.15v5.26A1.07,1.07,0,0,0,275.34,363Z" transform="translate(-211.07 -322.07)"></path><path class="cls-1" d="M300.61,357.72h2.47v14.62a9.74,9.74,0,0,0,2.85,7.23,10,10,0,0,0,17.22-7.23V357.72h2.48a1.15,1.15,0,0,0,0-2.3h-6.89a1.15,1.15,0,1,0,0,2.3h2.11v14.62a7.39,7.39,0,0,1-2.17,5.62,8.36,8.36,0,0,1-11.13,0,7.39,7.39,0,0,1-2.17-5.62V357.72h2.12a1.15,1.15,0,1,0,0-2.3h-6.89a1.15,1.15,0,1,0,0,2.3Z" transform="translate(-211.07 -322.07)"></path><path class="cls-1" d="M330.13,379.72a1.15,1.15,0,1,0,0,2.29H337a1.15,1.15,0,1,0,0-2.29H334.9v-9.3h4.71l6.77,9.31h-1.75a1.15,1.15,0,1,0,0,2.29h7.26a1.15,1.15,0,0,0,0-2.29h-2.36a.74.74,0,0,1-.42-.3l-6.59-9a7.9,7.9,0,0,0,5.56-2,8.43,8.43,0,0,0,0-11,8.05,8.05,0,0,0-5.81-2H330.13a1.15,1.15,0,1,0,0,2.3h2.47v22Zm12.14-11.61H334.9V357.72h7.37a5.83,5.83,0,0,1,4.16,1.35,5.95,5.95,0,0,1,0,7.69A5.83,5.83,0,0,1,342.27,368.11Z" transform="translate(-211.07 -322.07)"></path><path class="cls-1" d="M355.8,379.72a1.15,1.15,0,1,0,0,2.29h17.59a1.07,1.07,0,0,0,1.15-1.14v-5.08a1.15,1.15,0,0,0-2.3,0v3.93H360.58v-10h8v1.75a1.15,1.15,0,0,0,2.3,0v-5.81a1.15,1.15,0,0,0-2.3,0v1.76h-8v-9.66h11.3v3.93a1.15,1.15,0,0,0,2.3,0v-5.08a1.08,1.08,0,0,0-1.15-1.15H355.8a1.15,1.15,0,1,0,0,2.3h2.48v22Z" transform="translate(-211.07 -322.07)"></path><path class="cls-2" d="M291.81,424.2l-.09-.14a3.13,3.13,0,0,0-.62.11c-8,2.14-12,5.87-12,11.06a9.75,9.75,0,0,0,2.87,7.26,10.55,10.55,0,0,0,7.48,2.73c5.61,0,10.42-2.44,14.29-7.26l.15-.2,0,0Z" transform="translate(-211.07 -322.07)"></path><path class="cls-1" d="M223.82,466.76a12,12,0,0,0-9.26,3.87,15.46,15.46,0,0,0,0,19.57,13,13,0,0,0,18.52,0,15.46,15.46,0,0,0,0-19.57A12,12,0,0,0,223.82,466.76Zm0,25a9.65,9.65,0,0,1-7.57-3.17,13.06,13.06,0,0,1,0-16.39,10.61,10.61,0,0,1,15.13,0,13,13,0,0,1,0,16.39A9.62,9.62,0,0,1,223.82,491.78Z" transform="translate(-211.07 -322.07)"></path><path class="cls-1" d="M261.4,491.42H259a.77.77,0,0,1-.41-.3l-6.59-9a7.9,7.9,0,0,0,5.56-2,8.43,8.43,0,0,0,0-11,8,8,0,0,0-5.81-2H239.64a1.15,1.15,0,1,0,0,2.29h2.48v22h-2.48a1.15,1.15,0,1,0,0,2.29h6.89a1.15,1.15,0,1,0,0-2.29h-2.11v-9.3h4.71l6.77,9.31h-1.75a1.15,1.15,0,1,0,0,2.29h7.25a1.15,1.15,0,1,0,0-2.29Zm-17-22h7.37a5.81,5.81,0,0,1,4.15,1.36,5.93,5.93,0,0,1,0,7.68,5.81,5.81,0,0,1-4.15,1.36h-7.37Z" transform="translate(-211.07 -322.07)"></path><path class="cls-1" d="M287.33,479.09h-6.89a1.15,1.15,0,0,0,0,2.29h2.12V488c-2.32,2.52-4.91,3.8-7.7,3.8a9,9,0,0,1-7.11-3.19,11.94,11.94,0,0,1-2.84-8.16,12.15,12.15,0,0,1,2.79-8.18,8.72,8.72,0,0,1,6.94-3.2,10.06,10.06,0,0,1,5.88,2,12.79,12.79,0,0,1,2,1.81v2.31a1.15,1.15,0,0,0,2.3,0v-6.89a1.15,1.15,0,0,0-2.3,0v1.37a12.39,12.39,0,0,0-7.92-2.88,11,11,0,0,0-8.67,3.92,14.44,14.44,0,0,0-3.36,9.75,14.22,14.22,0,0,0,3.42,9.74,11.43,11.43,0,0,0,9,3.9,12,12,0,0,0,7.56-2.87v1.36a1.15,1.15,0,1,0,2.3,0V481.38h2.47a1.15,1.15,0,1,0,0-2.29Z" transform="translate(-211.07 -322.07)"></path><path class="cls-1" d="M314.09,491.42h-2.36s-.09,0-.16-.16l-9.05-23.51a1.32,1.32,0,0,0-1.38-1,1.29,1.29,0,0,0-1.36.93l-9,23.5c-.07.13-.15.23-.19.23h-2.36a1.15,1.15,0,0,0,0,2.29h6.89a1.15,1.15,0,1,0,0-2.29h-1.86l2.46-6.41c0-.06.06-.14.31-.14h10.3c.24,0,.28.07.31.14l2.47,6.42H307.2a1.15,1.15,0,1,0,0,2.29h6.89a1.15,1.15,0,1,0,0-2.29Zm-17.46-8.86,4.51-11.73,4.52,11.74Z" transform="translate(-211.07 -322.07)"></path><path class="cls-1" d="M341.61,469.41a1.15,1.15,0,1,0,0-2.29h-6.89a1.15,1.15,0,1,0,0,2.29h2.11v20L322.72,468a1.6,1.6,0,0,0-1.42-.84h-4a1.15,1.15,0,1,0,0,2.29h2.48v22h-2.47a1.15,1.15,0,1,0,0,2.29h6.89a1.15,1.15,0,1,0,0-2.29h-2.12v-20l14.1,21.5a1.6,1.6,0,0,0,1.43.84h4a1.15,1.15,0,1,0,0-2.29h-2.48v-22Z" transform="translate(-211.07 -322.07)"></path><path class="cls-1" d="M355.45,469.41a1.15,1.15,0,1,0,0-2.29H348.2a1.15,1.15,0,1,0,0,2.29h2.48v22H348.2a1.15,1.15,0,1,0,0,2.29h7.25a1.15,1.15,0,1,0,0-2.29H353v-22Z" transform="translate(-211.07 -322.07)"></path><path class="cls-1" d="M383.74,488.58a1,1,0,0,0-.8-.3,1.23,1.23,0,0,0-.72.39,10.23,10.23,0,0,1-7.75,3.11,9.9,9.9,0,0,1-7.68-3.17,11.75,11.75,0,0,1-2.89-8.14,12.22,12.22,0,0,1,2.79-8.2,8.68,8.68,0,0,1,6.94-3.22,10.11,10.11,0,0,1,5.89,2,13.16,13.16,0,0,1,2,1.81v2.31a1.15,1.15,0,0,0,2.3,0v-6.89a1.15,1.15,0,0,0-2.3,0v1.36a12.36,12.36,0,0,0-7.92-2.87,11,11,0,0,0-8.69,3.9,14.5,14.5,0,0,0-3.34,9.76,14.09,14.09,0,0,0,3.5,9.76,11.87,11.87,0,0,0,9.2,3.89,13.14,13.14,0,0,0,9.55-3.8,1.09,1.09,0,0,0,.36-.79A1.39,1.39,0,0,0,383.74,488.58Z" transform="translate(-211.07 -322.07)"></path><path class="cls-2" d="M264.22,515.44a3.53,3.53,0,0,0-.83-.51,3.61,3.61,0,0,0,2.21-1,2.58,2.58,0,0,0,.72-1.86,2.92,2.92,0,0,0-.44-1.56,2.25,2.25,0,0,0-1.15-1,6.05,6.05,0,0,0-2.11-.28H258v10.38h1.38V515H261a4.46,4.46,0,0,1,.77.05,1.81,1.81,0,0,1,.62.28,3,3,0,0,1,.7.69c.26.33.59.81,1,1.43l1.38,2.16h1.73l-1.81-2.82A7.12,7.12,0,0,0,264.22,515.44Zm-1.88-1.59h-2.95v-3.43h3.28a2.47,2.47,0,0,1,1.69.47,1.54,1.54,0,0,1,.54,1.21,1.62,1.62,0,0,1-.28.93,1.53,1.53,0,0,1-.81.63A4.4,4.4,0,0,1,262.34,513.85Z" transform="translate(-211.07 -322.07)"></path><path class="cls-2" d="M272.26,512a3.29,3.29,0,0,0-2.53,1.05,4.16,4.16,0,0,0-1,2.94,4,4,0,0,0,1,2.86,3.92,3.92,0,0,0,4.77.37,3.21,3.21,0,0,0,1.15-1.79l-1.32-.16a2.44,2.44,0,0,1-.78,1.18,2,2,0,0,1-1.2.36,2.1,2.1,0,0,1-1.57-.65,2.93,2.93,0,0,1-.7-1.9h5.61v-.34a4,4,0,0,0-.95-2.89A3.21,3.21,0,0,0,272.26,512Zm-2.12,3.21a2.29,2.29,0,0,1,.66-1.57,2,2,0,0,1,1.48-.59,2,2,0,0,1,1.58.73,2.65,2.65,0,0,1,.48,1.43Z" transform="translate(-211.07 -322.07)"></path><path class="cls-2" d="M282.71,515.68a16.7,16.7,0,0,0-1.89-.59c-.62-.17-1-.28-1.13-.33a1,1,0,0,1-.48-.34.66.66,0,0,1-.16-.44.83.83,0,0,1,.37-.68,2.07,2.07,0,0,1,1.26-.29,1.85,1.85,0,0,1,1.15.32,1.35,1.35,0,0,1,.49.91l1.25-.17a2.68,2.68,0,0,0-.44-1.16,2.1,2.1,0,0,0-1-.7,4.35,4.35,0,0,0-1.55-.25,4,4,0,0,0-1.11.15,2.79,2.79,0,0,0-.81.37,2.05,2.05,0,0,0-.62.72,1.83,1.83,0,0,0-.23.93,1.88,1.88,0,0,0,.28,1,1.85,1.85,0,0,0,.82.71,11.62,11.62,0,0,0,1.94.61,5.43,5.43,0,0,1,1.31.44.76.76,0,0,1,.37.68,1.08,1.08,0,0,1-.42.84,2.07,2.07,0,0,1-1.31.35,2,2,0,0,1-1.35-.4,1.74,1.74,0,0,1-.59-1.16l-1.27.2a2.83,2.83,0,0,0,1,1.8,3.49,3.49,0,0,0,2.23.61,3.86,3.86,0,0,0,1.59-.31,2.38,2.38,0,0,0,1.07-.87,2.1,2.1,0,0,0,.37-1.2,1.89,1.89,0,0,0-.3-1.09A2.07,2.07,0,0,0,282.71,515.68Z" transform="translate(-211.07 -322.07)"></path><path class="cls-2" d="M288.46,518.56a.83.83,0,0,1-.43-.09.45.45,0,0,1-.22-.25,2,2,0,0,1-.07-.7v-4.4H289v-1h-1.28V509.5l-1.27.77v1.86h-.93v1h.93v4.33a4.32,4.32,0,0,0,.16,1.5,1.16,1.16,0,0,0,.54.58,2.11,2.11,0,0,0,1.07.22,5.14,5.14,0,0,0,1-.11l-.19-1.13A4.75,4.75,0,0,1,288.46,518.56Z" transform="translate(-211.07 -322.07)"></path><path class="cls-2" d="M297.23,516.5v-1.7a7.68,7.68,0,0,0-.06-1.18,2,2,0,0,0-.4-.86,2.08,2.08,0,0,0-.89-.57,4.51,4.51,0,0,0-1.56-.23,5,5,0,0,0-1.71.27,2.38,2.38,0,0,0-1.12.75,3.05,3.05,0,0,0-.56,1.3l1.24.17a1.91,1.91,0,0,1,.64-1.12,2.21,2.21,0,0,1,1.32-.31,2.14,2.14,0,0,1,1.46.43,1.41,1.41,0,0,1,.36,1.1s0,.15,0,.33a12.22,12.22,0,0,1-2.27.44,8.24,8.24,0,0,0-1.14.19,2.81,2.81,0,0,0-.91.42,1.87,1.87,0,0,0-.66.73,2.16,2.16,0,0,0,.41,2.56,2.77,2.77,0,0,0,1.91.6,3.78,3.78,0,0,0,1.4-.25,4.54,4.54,0,0,0,1.37-.85,2.54,2.54,0,0,0,.25.93h1.33a3,3,0,0,1-.32-.9A19,19,0,0,1,297.23,516.5Zm-1.29-.16a3,3,0,0,1-.21,1.28,1.93,1.93,0,0,1-.84.88,2.57,2.57,0,0,1-1.31.32,1.66,1.66,0,0,1-1.13-.34,1.06,1.06,0,0,1-.38-.85,1,1,0,0,1,.17-.6,1.18,1.18,0,0,1,.51-.42,4.62,4.62,0,0,1,1.11-.25,9.19,9.19,0,0,0,2.08-.48Z" transform="translate(-211.07 -322.07)"></path><path class="cls-2" d="M304.87,516.16a4,4,0,0,1-.21,1.47,1.62,1.62,0,0,1-.71.8,2.06,2.06,0,0,1-1.08.29,1.58,1.58,0,0,1-1-.28,1.34,1.34,0,0,1-.51-.79,7.57,7.57,0,0,1-.08-1.35v-4.17h-1.27v4.66a5.8,5.8,0,0,0,.08,1.19,2.33,2.33,0,0,0,.39.95,2,2,0,0,0,.86.64,3,3,0,0,0,1.24.25,2.77,2.77,0,0,0,2.39-1.27v1.1h1.14v-7.52h-1.28Z" transform="translate(-211.07 -322.07)"></path><path class="cls-2" d="M311,512.21a3.12,3.12,0,0,0-.81,1.06v-1.14H309v7.52h1.28v-3.94a5,5,0,0,1,.21-1.48,1.35,1.35,0,0,1,.47-.7,1.19,1.19,0,0,1,.75-.25,1.87,1.87,0,0,1,.94.27l.44-1.18a2.54,2.54,0,0,0-1.31-.41A1.42,1.42,0,0,0,311,512.21Z" transform="translate(-211.07 -322.07)"></path><path class="cls-2" d="M320.81,516.5v-1.7a6.29,6.29,0,0,0-.07-1.18,1.9,1.9,0,0,0-.39-.86,2.08,2.08,0,0,0-.89-.57,4.51,4.51,0,0,0-1.56-.23,5,5,0,0,0-1.71.27,2.47,2.47,0,0,0-1.13.75,3.18,3.18,0,0,0-.56,1.3l1.25.17a2,2,0,0,1,.63-1.12,2.27,2.27,0,0,1,1.33-.31,2.11,2.11,0,0,1,1.45.43,1.41,1.41,0,0,1,.36,1.1v.33a12.36,12.36,0,0,1-2.28.44,8.32,8.32,0,0,0-1.13.19,2.86,2.86,0,0,0-.92.42,2,2,0,0,0-.66.73,2.13,2.13,0,0,0-.25,1,2,2,0,0,0,.67,1.55,2.74,2.74,0,0,0,1.9.6,3.88,3.88,0,0,0,1.41-.25,4.39,4.39,0,0,0,1.36-.85,2.75,2.75,0,0,0,.26.93h1.33a2.78,2.78,0,0,1-.32-.9A17,17,0,0,1,320.81,516.5Zm-1.29-.16a3,3,0,0,1-.21,1.28,2,2,0,0,1-.84.88,2.57,2.57,0,0,1-1.31.32,1.64,1.64,0,0,1-1.13-.34,1.07,1.07,0,0,1-.39-.85,1.06,1.06,0,0,1,.18-.6,1.21,1.21,0,0,1,.5-.42,4.87,4.87,0,0,1,1.12-.25,9.33,9.33,0,0,0,2.08-.48Z" transform="translate(-211.07 -322.07)"></path><path class="cls-2" d="M329.3,512.85a2,2,0,0,0-.86-.65,3.17,3.17,0,0,0-1.25-.24,2.69,2.69,0,0,0-2.39,1.24v-1.07h-1.15v7.52h1.28v-4.11a2.58,2.58,0,0,1,.59-2,2.08,2.08,0,0,1,1.41-.52,1.59,1.59,0,0,1,.88.24,1.16,1.16,0,0,1,.53.61,3.45,3.45,0,0,1,.15,1.17v4.57h1.28V515a6.73,6.73,0,0,0-.08-1.24A2.28,2.28,0,0,0,329.3,512.85Z" transform="translate(-211.07 -322.07)"></path><path class="cls-2" d="M335.38,518.51a4.93,4.93,0,0,1-.56,0,.88.88,0,0,1-.44-.09.54.54,0,0,1-.22-.25,2.34,2.34,0,0,1-.07-.7v-4.4h1.29v-1h-1.29V509.5l-1.26.77v1.86h-.94v1h.94v4.33A4.68,4.68,0,0,0,333,519a1.21,1.21,0,0,0,.54.58,2.12,2.12,0,0,0,1.08.22,5.14,5.14,0,0,0,1-.11Z" transform="translate(-211.07 -322.07)"></path><polygon class="cls-2" points="61.7 11.53 59.86 2.56 58.52 2.83 60.6 13 66.96 11.7 66.71 10.5 61.7 11.53"></polygon><path class="cls-2" d="M284.88,326.14a3.4,3.4,0,0,0-2.64-.7,3.52,3.52,0,0,0-2.25,1.11,3.94,3.94,0,0,0-.78,3.22,4.08,4.08,0,0,0,1.32,2.78,3.42,3.42,0,0,0,2.66.7,3.76,3.76,0,0,0,1.75-.68,3.08,3.08,0,0,0,1.1-1.44,5.06,5.06,0,0,0,.16-2.32A3.9,3.9,0,0,0,284.88,326.14Zm-.34,5.16a2,2,0,0,1-1.48.9,2,2,0,0,1-1.66-.52,4,4,0,0,1-.52-4.29A2.11,2.11,0,0,1,284,327a3.1,3.1,0,0,1,.88,2A3.27,3.27,0,0,1,284.54,331.3Z" transform="translate(-211.07 -322.07)"></path><path class="cls-2" d="M294.62,326.4a2.49,2.49,0,0,0-.43-.93,2,2,0,0,0-.88-.61,3.27,3.27,0,0,0-1.26-.19,2.71,2.71,0,0,0-2.34,1.33l0-1.06-1.14,0,.3,7.52,1.27-.05-.16-4.11a2.54,2.54,0,0,1,.51-2,2.11,2.11,0,0,1,1.38-.58,1.76,1.76,0,0,1,.9.2,1.21,1.21,0,0,1,.55.59,3.42,3.42,0,0,1,.2,1.16l.18,4.57,1.28-.05-.19-4.62A6.51,6.51,0,0,0,294.62,326.4Z" transform="translate(-211.07 -322.07)"></path><path class="cls-2" d="M302.63,325.79a2.52,2.52,0,0,0-2-1.12,3,3,0,0,0-1.7.43,2.9,2.9,0,0,0-1.18,1.35,5.3,5.3,0,0,0-.46,2,4.83,4.83,0,0,0,.33,2.06,3.34,3.34,0,0,0,1.12,1.43,2.91,2.91,0,0,0,1.63.56,2.36,2.36,0,0,0,2.15-1l0,.95,1.18,0,.42-10.37-1.27-.05Zm-.68,5.07a1.82,1.82,0,0,1-1.45.63,1.85,1.85,0,0,1-1.41-.77,3.32,3.32,0,0,1-.52-2.19,3.42,3.42,0,0,1,.66-2.16,1.77,1.77,0,0,1,1.45-.64,1.86,1.86,0,0,1,1.43.78,3.53,3.53,0,0,1,.51,2.29A3.14,3.14,0,0,1,302,330.86Z" transform="translate(-211.07 -322.07)"></path><path class="cls-2" d="M310.25,325.43a3.5,3.5,0,0,0-2.45.55,3.84,3.84,0,0,0-1.52,2.93,4,4,0,0,0,.61,3,3.44,3.44,0,0,0,2.41,1.31,3.64,3.64,0,0,0,1.86-.24,3.1,3.1,0,0,0,1.42-1.13,5.09,5.09,0,0,0,.71-2.22,3.87,3.87,0,0,0-.64-2.9A3.41,3.41,0,0,0,310.25,325.43Zm1.73,4.13a3.32,3.32,0,0,1-.89,2.11,2.1,2.1,0,0,1-3.15-.38,4.05,4.05,0,0,1,.52-4.29,2.11,2.11,0,0,1,3.14.38A3.15,3.15,0,0,1,312,329.56Z" transform="translate(-211.07 -322.07)"></path><path class="cls-2" d="M321.85,328.32a2,2,0,0,0-.71-.8A3.2,3.2,0,0,0,320,327a2.7,2.7,0,0,0-2.59.74l.21-1-1.12-.23L315,333.86l1.25.25.82-4a2.52,2.52,0,0,1,1-1.8,2,2,0,0,1,1.48-.23,1.67,1.67,0,0,1,.82.4,1.28,1.28,0,0,1,.4.71,3.76,3.76,0,0,1-.09,1.18l-.92,4.48,1.25.25.93-4.53a8.26,8.26,0,0,0,.18-1.23A2.48,2.48,0,0,0,321.85,328.32Z" transform="translate(-211.07 -322.07)"></path><path class="cls-2" d="M295.94,390.62a33.75,33.75,0,0,0-33.73,32.55H222.82v2.42h39.39A33.75,33.75,0,0,0,320.08,448h-5.87a3.44,3.44,0,0,1-2.57-1.39l-5-5.67c-4.56,5.61-10.34,8.44-17.23,8.44a14.52,14.52,0,0,1-10.36-3.87,13.11,13.11,0,0,1-4.11-9.91,13.25,13.25,0,0,1,3.82-9.79,21.23,21.23,0,0,1,9.93-5.13,43.19,43.19,0,0,1-4.07-5.75,12.93,12.93,0,0,1-1.75-6.55,10.38,10.38,0,0,1,3.67-8.33c2.38-2,5.67-3,9.76-3a14.63,14.63,0,0,1,7.58,2,15.17,15.17,0,0,1,5.28,5.09,1.9,1.9,0,0,1,.28,1.44,2,2,0,0,1-1,1.26,2.08,2.08,0,0,1-2.9-.64,15.73,15.73,0,0,0-4.06-3.74,11.23,11.23,0,0,0-5.87-1.3,9.23,9.23,0,0,0-6.19,2.14,6.37,6.37,0,0,0-2.43,5.1c0,2.72,1.67,6,5,9.66l14.36,16.24,7.86-11.86a2.05,2.05,0,0,1,2.89-.5,1.91,1.91,0,0,1,.93,1.29,2.07,2.07,0,0,1-.49,1.65l-8.37,12.53s0,.06.11.14l5,5.66c.53.62.84.69.95.69h8.34a33.76,33.76,0,0,0-27.58-53.23Z" transform="translate(-211.07 -322.07)"></path><rect class="cls-2" x="118.7" y="101.1" width="40.93" height="2.42"></rect><path class="cls-2" d="M266.05,333a2,2,0,1,1-2-2A2,2,0,0,1,266.05,333Z" transform="translate(-211.07 -322.07)"></path><path class="cls-2" d="M328.67,333a2,2,0,1,1-2-2A2,2,0,0,1,328.67,333Z" transform="translate(-211.07 -322.07)"></path><path class="cls-2" d="M251.63,516a2,2,0,1,1-2-2A2,2,0,0,1,251.63,516Z" transform="translate(-211.07 -322.07)"></path><circle class="cls-2" cx="131.99" cy="193.91" r="1.96"></circle></svg>