<svg xmlns="http://www.w3.org/2000/svg" id="&#x421;&#x43B;&#x43E;&#x439;_1" data-name="&#x421;&#x43B;&#x43E;&#x439; 1" viewBox="0 0 264.7 157.27"><defs><style>.cls-1{fill:#fff;}.cls-2{fill:#e0b159;}</style></defs><path class="cls-1" d="M334.65,484.28a4.51,4.51,0,0,0,2.15-3.9,4.27,4.27,0,0,0-4-4.41h-3.95a.42.42,0,0,0-.41.41v17.1a.5.5,0,0,0,.44.47h4.07a5.08,5.08,0,0,0,5.11-5A5,5,0,0,0,334.65,484.28Zm-5.43-7.5h3.54a3.61,3.61,0,0,1,0,7.18h-3.51Zm3.69,16.35h-3.69v-8.36h3.69a4.18,4.18,0,1,1,0,8.36Z" transform="translate(-165.29 -342.31)"></path><path class="cls-1" d="M350.3,484.22a.42.42,0,0,0-.41.41v1.94a4.69,4.69,0,0,0-4.06-2.53,5.07,5.07,0,0,0,0,10.11,4.68,4.68,0,0,0,4.06-2.52v1.85a.41.41,0,1,0,.82,0v-8.85A.42.42,0,0,0,350.3,484.22Zm-4.47,9.12a4.26,4.26,0,1,1,3.86-4.24A4.08,4.08,0,0,1,345.83,493.34Z" transform="translate(-165.29 -342.31)"></path><path class="cls-1" d="M357.26,487.88l3.66-3a.38.38,0,0,0,.15-.32.44.44,0,0,0-.41-.41.42.42,0,0,0-.26.12l-5.46,4.47V476.55a.41.41,0,1,0-.81,0v17a.41.41,0,1,0,.81,0V489.8l1.69-1.4,3.86,5.4a.36.36,0,0,0,.32.18.4.4,0,0,0,.4-.41.52.52,0,0,0,0-.23Z" transform="translate(-165.29 -342.31)"></path><path class="cls-1" d="M368.65,484a5.07,5.07,0,0,0,0,10.11,4.57,4.57,0,0,0,4-2.12.39.39,0,0,0,.06-.2.4.4,0,0,0-.41-.41.42.42,0,0,0-.34.21,3.8,3.8,0,0,1-3.34,1.71,4.06,4.06,0,0,1-3.84-3.83h8.11a.42.42,0,0,0,.43-.41A4.91,4.91,0,0,0,368.65,484Zm-3.84,4.65a3.84,3.84,0,0,1,7.67,0Z" transform="translate(-165.29 -342.31)"></path><path class="cls-1" d="M380.84,484.25a4.32,4.32,0,0,0-3.4,2.21v-1.8a.41.41,0,1,0-.81,0v8.85a.41.41,0,1,0,.81,0v-3.89c0-2.26,1.08-4.21,3.46-4.56a.4.4,0,0,0,.38-.43A.42.42,0,0,0,380.84,484.25Z" transform="translate(-165.29 -342.31)"></path><path class="cls-1" d="M392.13,484.22a.4.4,0,0,0-.37.26l-3.2,8.19-3.37-8.22a.38.38,0,0,0-.37-.23.39.39,0,0,0-.41.41c0,.17,3.63,9,3.75,9.09-.21.58-2.09,5.19-2.09,5.46a.43.43,0,0,0,.4.4.4.4,0,0,0,.38-.26c.46-1.13,5.69-14.49,5.69-14.69A.39.39,0,0,0,392.13,484.22Z" transform="translate(-165.29 -342.31)"></path><path class="cls-1" d="M217.75,476a.4.4,0,0,0-.41.41V484h-7.63v-7.61a.41.41,0,1,0-.82,0v17.13a.41.41,0,1,0,.82,0V484.8h7.63v8.71a.41.41,0,1,0,.82,0V476.38A.4.4,0,0,0,217.75,476Z" transform="translate(-165.29 -342.31)"></path><path class="cls-1" d="M226.11,484a5.06,5.06,0,1,0,4.7,5.05A4.89,4.89,0,0,0,226.11,484Zm0,9.29a4.24,4.24,0,1,1,3.86-4.24A4.07,4.07,0,0,1,226.11,493.31Z" transform="translate(-165.29 -342.31)"></path><path class="cls-1" d="M245.42,484.07a4,4,0,0,0-3.66,2.59,3.61,3.61,0,0,0-3.46-2.59,3.9,3.9,0,0,0-3.4,2.07v-1.48a.39.39,0,0,0-.4-.41.4.4,0,0,0-.41.41v8.88a.41.41,0,0,0,.41.41.4.4,0,0,0,.4-.41v-3.92s0-.14,0-.2c-.08-2.59.93-4.53,3.4-4.53,1.95,0,2.94,1.71,2.94,3.45v5.2a.4.4,0,0,0,.4.41.42.42,0,0,0,.41-.41v-4c0-2,.93-4.64,3.37-4.64,1.94,0,2.93,1.71,2.93,3.45v5.2a.41.41,0,0,0,.41.41.43.43,0,0,0,.41-.41v-5.2C249.17,486.14,247.8,484.07,245.42,484.07Z" transform="translate(-165.29 -342.31)"></path><path class="cls-1" d="M257,484a5.07,5.07,0,0,0,0,10.11,4.58,4.58,0,0,0,4-2.12.39.39,0,0,0,.06-.2.41.41,0,0,0-.41-.41.46.46,0,0,0-.35.21,3.79,3.79,0,0,1-3.34,1.71,4,4,0,0,1-3.83-3.83h8.1a.43.43,0,0,0,.44-.41A4.92,4.92,0,0,0,257,484Zm-3.83,4.65a3.84,3.84,0,0,1,7.67,0Z" transform="translate(-165.29 -342.31)"></path><path class="cls-1" d="M276.28,484.07a4,4,0,0,0-3.66,2.59,3.61,3.61,0,0,0-3.45-2.59,3.88,3.88,0,0,0-3.4,2.07v-1.48a.41.41,0,1,0-.82,0v8.88a.41.41,0,1,0,.82,0v-3.92s0-.14,0-.2c-.09-2.59.93-4.53,3.4-4.53,1.94,0,2.93,1.71,2.93,3.45v5.2a.4.4,0,0,0,.41.41.42.42,0,0,0,.4-.41v-4c0-2,.93-4.64,3.37-4.64,2,0,2.93,1.71,2.93,3.45v5.2a.41.41,0,0,0,.41.41.43.43,0,0,0,.41-.41v-5.2C280,486.14,278.66,484.07,276.28,484.07Z" transform="translate(-165.29 -342.31)"></path><path class="cls-1" d="M292.31,484.22a.41.41,0,0,0-.41.41v1.94a4.7,4.7,0,0,0-4.07-2.53,5.07,5.07,0,0,0,0,10.11,4.69,4.69,0,0,0,4.07-2.52v1.85a.41.41,0,1,0,.81,0v-8.85A.41.41,0,0,0,292.31,484.22Zm-4.48,9.12a4.26,4.26,0,1,1,3.87-4.24A4.08,4.08,0,0,1,287.83,493.34Z" transform="translate(-165.29 -342.31)"></path><path class="cls-1" d="M305.14,476.12a.42.42,0,0,0-.41.4v10.11a4.66,4.66,0,0,0-4.06-2.56,5.07,5.07,0,0,0,0,10.11,4.63,4.63,0,0,0,4.06-2.53v1.86a.41.41,0,0,0,.82,0v-17A.42.42,0,0,0,305.14,476.12Zm-4.47,17.25a4.26,4.26,0,1,1,3.86-4.24A4.08,4.08,0,0,1,300.67,493.37Z" transform="translate(-165.29 -342.31)"></path><path class="cls-1" d="M313.5,484a5.07,5.07,0,0,0,0,10.11,4.59,4.59,0,0,0,4-2.12.39.39,0,0,0,.06-.2.41.41,0,0,0-.41-.41.44.44,0,0,0-.35.21,3.79,3.79,0,0,1-3.34,1.71,4,4,0,0,1-3.83-3.83h8.1a.43.43,0,0,0,.44-.41A4.92,4.92,0,0,0,313.5,484Zm-3.83,4.65a3.83,3.83,0,1,1,7.66,0Z" transform="translate(-165.29 -342.31)"></path><path class="cls-1" d="M214.74,413.66a31.35,31.35,0,0,0,4-4.91,18.32,18.32,0,0,0,2.3-4.91,10.11,10.11,0,0,0,.33-4.52,6.65,6.65,0,0,0-2-3.73,5.05,5.05,0,0,0-3.73-1.62,9.71,9.71,0,0,0-4.7,1.66,36.41,36.41,0,0,0-3.48,2.5c-1.26,1-2.66,2.17-4.21,3.49l-3.09,2.66c-1.07.92-2.16,1.81-3.26,2.67s-2.22,1.65-3.32,2.36a24.94,24.94,0,0,1-3.28,1.8,12,12,0,0,1-3.11.95,7.06,7.06,0,0,1-2.87-.13,5.6,5.6,0,0,1-2.51-1.49,7.63,7.63,0,0,1-2-3.41,11.77,11.77,0,0,1-.35-4.2,19.17,19.17,0,0,1,1.09-4.72,30.91,30.91,0,0,1,2.28-4.92,43,43,0,0,1,3.2-4.84,47.48,47.48,0,0,1,3.85-4.48,39.63,39.63,0,0,1,5.26-4.56,20.91,20.91,0,0,1,4.84-2.66,9.14,9.14,0,0,1,4.19-.6,5.47,5.47,0,0,1,3.3,1.58,3,3,0,0,1,.48.58,3.62,3.62,0,0,0,.5.6.94.94,0,0,0,.7.28,1,1,0,0,0,.76-.33,1,1,0,0,0,.08-1.21,8.47,8.47,0,0,0-1.13-1.37,7.45,7.45,0,0,0-4.87-2.16,12.14,12.14,0,0,0-2.76.22,13.6,13.6,0,0,0-3.5,1.2,27.43,27.43,0,0,0-4.24,2.63,41.76,41.76,0,0,0-5,4.44,46.94,46.94,0,0,0-4.07,4.73,44.43,44.43,0,0,0-3.41,5.22,34.79,34.79,0,0,0-2.43,5.4,20.33,20.33,0,0,0-1.12,5.26,13.31,13.31,0,0,0,.52,4.8,9.42,9.42,0,0,0,2.47,4,7.64,7.64,0,0,0,3.86,2.13,9.76,9.76,0,0,0,4.72-.36,23.06,23.06,0,0,0,5.69-2.75,58.86,58.86,0,0,0,6.75-5.11l3.09-2.66,1.84-1.58c.62-.53,1.25-1.06,1.88-1.57s1.25-1,1.88-1.47a21.43,21.43,0,0,1,1.82-1.22,11.68,11.68,0,0,1,1.65-.84,5.31,5.31,0,0,1,1.56-.41,3.39,3.39,0,0,1,2.84,1,5,5,0,0,1,1.42,2.68,7.67,7.67,0,0,1-.23,3.54,15.93,15.93,0,0,1-2,4.22,29.48,29.48,0,0,1-3.82,4.68,35.61,35.61,0,0,1-4.53,4,35.05,35.05,0,0,1-3.76,2.4,18.44,18.44,0,0,1-2.57,1.17l-.75.25a14,14,0,0,1-4.24.3,1.39,1.39,0,0,0-1.63.35,131.37,131.37,0,0,0-30.59,73.4,1.41,1.41,0,0,0,1.27,1.52h.13a1.39,1.39,0,0,0,1.39-1.27A128.58,128.58,0,0,1,198,422.49s0-.08.07-.12h.58a15.32,15.32,0,0,0,3-.31.81.81,0,0,0,.3,0c.05,0,.31-.09.77-.25.18-.05.37-.1.56-.17l.08-.05a21.23,21.23,0,0,0,2.49-1.15,37.47,37.47,0,0,0,4-2.54A38.21,38.21,0,0,0,214.74,413.66Z" transform="translate(-165.29 -342.31)"></path><path class="cls-1" d="M294,373.76a16.14,16.14,0,0,0,2.94,2.69,19,19,0,0,0,3.74,2.08,20.66,20.66,0,0,0,4.33,1.29,17.47,17.47,0,0,0,7.55-.05,13.77,13.77,0,0,0,5.56-2.9,17.88,17.88,0,0,0,3.95-5.06,40,40,0,0,0,2.76-6.52l4.64.67,5.27.79q2.76.42,5.67.9c1.94.32,3.88.66,5.8,1l-.31,1.69a50.57,50.57,0,0,0-.9,7.76,40.39,40.39,0,0,0,.19,5.37,15.28,15.28,0,0,0,.62,3.15c.23.69.37,1.06.39,1.12a.93.93,0,0,0,.71.56,1,1,0,0,0,.75-.17,1,1,0,0,0,.41-.64,1,1,0,0,0-.07-.6,13,13,0,0,1-.5-1.69c-.13-.57-.25-1.28-.36-2.15A27.29,27.29,0,0,1,347,380c0-1.19.06-2.56.19-4.09a50.67,50.67,0,0,1,.71-5.15c.05-.3.11-.58.16-.86s.11-.55.18-.83l2.46.48,1.79.38,1.32.28,1.07.21a1,1,0,0,0,.72-.13.9.9,0,0,0,.41-.63,1.16,1.16,0,0,0-.11-.76.9.9,0,0,0-.64-.42c-1.06-.23-2.15-.46-3.25-.67l-3.37-.67a43.81,43.81,0,0,1,1.75-6,25.84,25.84,0,0,1,1.89-4,11.44,11.44,0,0,1,1.86-2.45,7.67,7.67,0,0,1,1.72-1.26,3.73,3.73,0,0,1,1.43-.42,5.26,5.26,0,0,1,1,0,3.54,3.54,0,0,1,.71.2,2.57,2.57,0,0,1,.41.21,2,2,0,0,1,.26.18.59.59,0,0,0,.31.12.87.87,0,0,0,.87-.32,1.5,1.5,0,0,0,.15-.23,1.37,1.37,0,0,0,.07-.24,1,1,0,0,0-.18-.8,2.08,2.08,0,0,0-.68-.55,4.34,4.34,0,0,0-.86-.36,7.5,7.5,0,0,0-.75-.19,5.66,5.66,0,0,0-3.61.52,9.66,9.66,0,0,0-3.27,2.86,22.66,22.66,0,0,0-2.82,5.09,46.7,46.7,0,0,0-2.26,7.21q-2.85-.53-5.73-1l-5.62-.89-5.24-.78-4.63-.68c.38-1.28.73-2.59,1-3.91s.61-2.65.89-4c.23-1.09.48-2.06.75-2.94a21.72,21.72,0,0,1,.86-2.35,13.36,13.36,0,0,0,2.12-.64,11.44,11.44,0,0,0,2-1,7.35,7.35,0,0,0,1.57-1.41,3.73,3.73,0,0,0,.82-1.7,1.72,1.72,0,0,0-.34-1.45,2.15,2.15,0,0,0-1.34-.79,2.94,2.94,0,0,0-1.42.12,5.24,5.24,0,0,0-1.6.88,9.26,9.26,0,0,0-1.65,1.7,16,16,0,0,0-1.59,2.62,7.29,7.29,0,0,1-1.48,0c-.51-.05-1.07-.13-1.7-.25a28.25,28.25,0,0,1-4.51-1.21c-1.45-.53-2.89-1.07-4.32-1.64s-2.87-1.11-4.31-1.63a26.73,26.73,0,0,0-4.4-1.19,16.81,16.81,0,0,0-4.08-.24,11.77,11.77,0,0,0-3.87.89,8.47,8.47,0,0,0-3.11,2.22A7.66,7.66,0,0,0,294,349.2a6.41,6.41,0,0,0-.05,2.22,8.27,8.27,0,0,0,.57,1.94,7.88,7.88,0,0,0,.95,1.58,8.79,8.79,0,0,0,1.07,1.16,1.55,1.55,0,0,0,.28.2,1,1,0,0,0,.33.13.86.86,0,0,0,.7-.16,1,1,0,0,0,.39-.64,1.05,1.05,0,0,0-.31-.94c-.08-.07-.25-.23-.51-.51a5.31,5.31,0,0,1-.79-1.06,6.43,6.43,0,0,1-.62-1.57,4.56,4.56,0,0,1,0-2,6.12,6.12,0,0,1,1.25-2.84,6.18,6.18,0,0,1,2.35-1.73,9.33,9.33,0,0,1,3.14-.7,15.52,15.52,0,0,1,3.67.26,28,28,0,0,1,4.51,1.2c1.45.51,2.89,1.05,4.32,1.6s2.86,1.09,4.28,1.6a28.32,28.32,0,0,0,4.43,1.19,11.75,11.75,0,0,0,1.48.17q.75,0,1.38,0c-.27.65-.52,1.37-.77,2.18s-.46,1.64-.66,2.52c-.32,1.37-.64,2.73-1,4.07s-.68,2.67-1.06,4l-4.24-.56-1.63-.22a1,1,0,0,0-.72.22,1.1,1.1,0,0,0-.38.65.86.86,0,0,0,.2.75,1.23,1.23,0,0,0,.67.38l1.52.19,4,.52a36.21,36.21,0,0,1-2.44,5.81,15.64,15.64,0,0,1-3.44,4.45,11.53,11.53,0,0,1-4.85,2.54,15.31,15.31,0,0,1-6.63,0,18.72,18.72,0,0,1-3.88-1.13,17.68,17.68,0,0,1-3.33-1.82,14.22,14.22,0,0,1-2.59-2.32,9.65,9.65,0,0,1-1.67-2.7.94.94,0,0,0-.3-.39,1.13,1.13,0,0,0-.45-.2.94.94,0,0,0-.77.17,1,1,0,0,0-.4.64,1,1,0,0,0,.06.54A11.74,11.74,0,0,0,294,373.76Zm36.79-27.12a6.8,6.8,0,0,1,1-1,3.91,3.91,0,0,1,.89-.54,1.3,1.3,0,0,1,.6-.12c.17,0,.2.19.08.46a3.89,3.89,0,0,1-.69.95,6.85,6.85,0,0,1-1.26,1,5.47,5.47,0,0,1-1.69.74A8.14,8.14,0,0,1,330.79,346.64Z" transform="translate(-165.29 -342.31)"></path><path class="cls-2" d="M300.67,435.4a6.47,6.47,0,0,0-6.47,6.47v17.9h12.94v-17.9A6.46,6.46,0,0,0,300.67,435.4Z" transform="translate(-165.29 -342.31)"></path><path class="cls-2" d="M276.7,428.61h-5.77l29.33-20.45,12,8.5a1.21,1.21,0,0,0,1.91-1v-3.38h8.57v11.17a1.22,1.22,0,0,0,.51,1l5.87,4.16h-4.68a1.21,1.21,0,0,0-1.21,1.21v29.95a1.21,1.21,0,0,0,1.21,1.21h69a1.21,1.21,0,0,0,0-2.42H325.63V431h7.27a1.21,1.21,0,0,0,1.15-.84,1.2,1.2,0,0,0-.45-1.35l-8.46-6V411.08a1.21,1.21,0,0,0-1.21-1.21h-11a1.21,1.21,0,0,0-1.21,1.21v2.25L301,405.69a1.22,1.22,0,0,0-1.39,0l-33.18,23.14a1.21,1.21,0,0,0,.69,2.2h8.41v27.53H209a1.21,1.21,0,1,0,0,2.42H276.7a1.21,1.21,0,0,0,1.21-1.21V429.82A1.21,1.21,0,0,0,276.7,428.61Z" transform="translate(-165.29 -342.31)"></path><path class="cls-1" d="M401.89,423.53a6.76,6.76,0,0,0-.5-.66l0,0-.06-.09a1.39,1.39,0,0,0-.19-.15,1,1,0,0,0-.18-.17,1.81,1.81,0,0,0-1.44-.22c-.52.09-1,.28-1.51.38a12.71,12.71,0,0,1-2.71.27,7.52,7.52,0,0,1-2.49-.41,5,5,0,0,1-3-3.3,4.11,4.11,0,0,1,0-1.88,11.71,11.71,0,0,0,2.15.69,8.88,8.88,0,0,0,2.15.2,7.09,7.09,0,0,0,2-.38,5.55,5.55,0,0,0,1.78-1,3.79,3.79,0,0,0,1-1.2,3.5,3.5,0,0,0,.35-1.31A3.39,3.39,0,0,0,399,413a3.15,3.15,0,0,0-.59-1.08,3.74,3.74,0,0,0-1.59-1.12,4.56,4.56,0,0,0-2-.27,6.1,6.1,0,0,0-2.12.57,8.68,8.68,0,0,0-2.1,1.35c-.13.11-.24.24-.36.36-.42.14-.85.28-1.3.4a10.9,10.9,0,0,1-1.72.3,5.77,5.77,0,0,1-1.57-.08,2.74,2.74,0,0,1-1.27-.57,1.7,1.7,0,0,1-.61-.84,1.52,1.52,0,0,1,0-.87,3.44,3.44,0,0,1,.45-.9,8.19,8.19,0,0,1,.66-.89,16.46,16.46,0,0,1,1.56-1.72,13.65,13.65,0,0,0,1.29-1.37,6.4,6.4,0,0,0,.66-1,3.51,3.51,0,0,0,.37-1.18,2.51,2.51,0,0,0-.17-1.23,3,3,0,0,0-.94-1.19,3.67,3.67,0,0,0-1.69-.7,7.08,7.08,0,0,0-3,.27,14.4,14.4,0,0,0-1.54.51l-1.89.75-2,.84-1.8.8,1.05-1.19,1.1-1.22c.35-.39.68-.76,1-1.09s.55-.62.73-.84a5.77,5.77,0,0,0,.75-1.17,3.61,3.61,0,0,0,.35-1.18,2.43,2.43,0,0,0-.13-1.11,2.21,2.21,0,0,0-.73-1,3.41,3.41,0,0,0-1.41-.64,4.94,4.94,0,0,0-2.06,0,16.89,16.89,0,0,0-1.87.56c-.78.27-1.59.57-2.44.9s-1.68.67-2.49,1-1.49.64-2,.88l2.68-2.89q1.32-1.44,2.81-3.26a5.87,5.87,0,0,0,.6-.9,3.4,3.4,0,0,0,.36-1,2.08,2.08,0,0,0-.05-1,1.84,1.84,0,0,0-.62-.86,2.89,2.89,0,0,0-2.47-.29,14.76,14.76,0,0,0-5.06,2.25,13.41,13.41,0,0,1-2.36,1.46,2.34,2.34,0,0,1-2.59-.35,7.74,7.74,0,0,0,1-1.46,11.29,11.29,0,0,0,1.05-2.58,5.92,5.92,0,0,0,.21-2,3.09,3.09,0,0,0-.48-1.48,2.79,2.79,0,0,0-1-.94,2.31,2.31,0,0,0-2.14-.06,3.94,3.94,0,0,0-1.79,1.82,5.91,5.91,0,0,0-.71,3.45,6.92,6.92,0,0,0,1.16,3.26,4.61,4.61,0,0,1-2.18.85,4.14,4.14,0,0,1-2.52-.56,3.6,3.6,0,0,1-1.21-1,3.54,3.54,0,0,1-.65-1.3,3.76,3.76,0,0,1-.06-1.5,4.73,4.73,0,0,1,.53-1.56,5.72,5.72,0,0,1,1.06-1.43,5.41,5.41,0,0,1,1.24-.89,4.75,4.75,0,0,1,1.24-.44,6.17,6.17,0,0,1,1.07-.1,4.1,4.1,0,0,0,.82-.05.81.81,0,0,0,.56-.46.8.8,0,0,0-.38-1.19,2.87,2.87,0,0,0-1.24-.2,6.09,6.09,0,0,0-2,.35,7.91,7.91,0,0,0-2.21,1.17,7.22,7.22,0,0,0-2.69,4.64,5.43,5.43,0,0,0,.16,2.21,5.54,5.54,0,0,0,1,1.92,5.78,5.78,0,0,0,1.8,1.45,6.3,6.3,0,0,0,1.86.66,5.77,5.77,0,0,0,1.8.07,6.11,6.11,0,0,0,1.68-.43,7.6,7.6,0,0,0,1.53-.84,5.82,5.82,0,0,0,.58.4,3.84,3.84,0,0,0,2.3.8c1.68,0,3.09-1.13,4.46-2,.65-.39,1.31-.75,2-1.08.52-.26,1.1-.5,1.65-.72.28-.11,1.24-.61,1.5-.29.13.16-.14.48-.22.61a6.6,6.6,0,0,1-.72,1l-1.78,2c-.63.7-1.23,1.37-1.78,2L366,396.92l-.63.71a1.87,1.87,0,0,0-.48,1.18,1.38,1.38,0,0,0,.58,1.08,1.83,1.83,0,0,0,1.1.36,4.41,4.41,0,0,0,1.82-.47c.62-.29,1.33-.61,2.14-.94s1.61-.67,2.41-1,1.52-.58,2.2-.81,1.21-.39,1.6-.48a3.48,3.48,0,0,1,1.16-.11,1.21,1.21,0,0,1,.64.25.67.67,0,0,1,.23.58,1.63,1.63,0,0,1-.43.92l-.61.7-.92,1q-.51.59-1.08,1.2c-.38.42-.75.82-1.1,1.22l-1,1.09c-.3.33-.52.6-.69.8a2.1,2.1,0,0,0-.51,1.19,1.23,1.23,0,0,0,.51,1,1.25,1.25,0,0,0,.53.26,2.1,2.1,0,0,0,.71,0,5.21,5.21,0,0,0,1-.31l1.46-.61,3.12-1.34c1-.44,2-.8,2.84-1.09a11,11,0,0,1,2.29-.53,1.71,1.71,0,0,1,1.65.46.57.57,0,0,1,.16.33,1.12,1.12,0,0,1-.09.56,3,3,0,0,1-.54.85,14.4,14.4,0,0,1-1.17,1.24,19.06,19.06,0,0,0-1.62,1.77,10.93,10.93,0,0,0-1.06,1.55,4.53,4.53,0,0,0-.54,1.6,3.29,3.29,0,0,0,.21,1.58,3.9,3.9,0,0,0,1.21,1.51,4.21,4.21,0,0,0,1.92.9,7.91,7.91,0,0,0,2.24.13c.36,0,.72-.07,1.07-.13a6.73,6.73,0,0,0-.61,1.73,6.2,6.2,0,0,0,0,2.71,6.38,6.38,0,0,0,1.44,2.72,7.1,7.1,0,0,0,4.75,2.35,15.92,15.92,0,0,0,4.3-.25l0,0a1.14,1.14,0,0,1,1.06.32,132.48,132.48,0,0,1,27.84,69.78,1.41,1.41,0,0,0,1.39,1.28h.13a1.39,1.39,0,0,0,1.27-1.51A135.36,135.36,0,0,0,401.89,423.53Zm-10.74-8.81a5.35,5.35,0,0,1,.7-.72,8.24,8.24,0,0,1,1.27-.89,5.12,5.12,0,0,1,1.37-.57,3,3,0,0,1,1.32-.05,1.93,1.93,0,0,1,1.09.67,1.29,1.29,0,0,1,.29,1,1.68,1.68,0,0,1-.66,1.08,4,4,0,0,1-1.24.72,5.63,5.63,0,0,1-1.5.31,6.43,6.43,0,0,1-1.62-.12,6.27,6.27,0,0,1-1.64-.57C390.72,415.27,390.92,415,391.15,414.72Zm-30.94-25.83a9.33,9.33,0,0,1-.58.92,4.13,4.13,0,0,1-.46-1.19,5.82,5.82,0,0,1-.12-1.23,4.85,4.85,0,0,1,.16-1.16,4,4,0,0,1,.38-1c.25-.47.49-.73.72-.79a.77.77,0,0,1,.48,0,.88.88,0,0,1,.43.66,3.64,3.64,0,0,1-.05,1.12,8.77,8.77,0,0,1-.37,1.34A10.71,10.71,0,0,1,360.21,388.89Z" transform="translate(-165.29 -342.31)"></path><path class="cls-1" d="M284.07,353a.84.84,0,0,0-.41-.61,1.11,1.11,0,0,0-.75-.11l-13.23,2.59a13,13,0,0,0-.63-1.65,5.36,5.36,0,0,0-.79-1.25,2.77,2.77,0,0,0-1-.73,2,2,0,0,0-1.18-.1,2.46,2.46,0,0,0-1.17.56,3.72,3.72,0,0,0-.84,1.09,7.32,7.32,0,0,0-.54,1.5,12.57,12.57,0,0,0-.27,1.83l-9.74,1.9a1.12,1.12,0,0,0-.65.39.94.94,0,0,0,.26,1.32,1.11,1.11,0,0,0,.75.11l9.29-1.82c0,.9,0,1.81.11,2.74s.17,1.82.28,2.68.24,1.68.37,2.46.26,1.44.37,2a35.71,35.71,0,0,0,1.75,6.19,21.11,21.11,0,0,0,1.29,2.78l-.09.43a13.33,13.33,0,0,1-.85,2.59A7.6,7.6,0,0,1,265,382a5,5,0,0,1-4.25,1.43,4.14,4.14,0,0,1-1.72-.77,11.48,11.48,0,0,0,1.51-1.69,8.78,8.78,0,0,0,1.05-1.88,6.91,6.91,0,0,0,.48-2,5.56,5.56,0,0,0-.23-2.05,3.65,3.65,0,0,0-.7-1.36,3.44,3.44,0,0,0-1.06-.86,3.34,3.34,0,0,0-1.22-.38,2.91,2.91,0,0,0-1.22.1,3.76,3.76,0,0,0-1.68,1,4.67,4.67,0,0,0-1,1.68,6.29,6.29,0,0,0-.35,2.17,9.25,9.25,0,0,0,.39,2.47,8.73,8.73,0,0,0,.38,1,12.92,12.92,0,0,1-.57,2.56,7.76,7.76,0,0,1-1.17,2.23,4.55,4.55,0,0,1-1.94,1.47,4.69,4.69,0,0,1-2.15.38,4.18,4.18,0,0,1-1.78-.6,11.24,11.24,0,0,0,1.33-1.83,8.67,8.67,0,0,0,.86-2,7,7,0,0,0,.27-2,5.35,5.35,0,0,0-.43-2,3.7,3.7,0,0,0-.84-1.29,3.4,3.4,0,0,0-1.13-.74,3.46,3.46,0,0,0-1.26-.26,3.16,3.16,0,0,0-1.2.22,3.82,3.82,0,0,0-1.57,1.16,4.56,4.56,0,0,0-.87,1.78,6.32,6.32,0,0,0-.13,2.19,8.72,8.72,0,0,0,.47,1.91,2,2,0,0,1-.51.45,3,3,0,0,1-1.6.43,4.8,4.8,0,0,1-1.62-.31,6.86,6.86,0,0,1-1.53-.77,12.92,12.92,0,0,1-1.28-1q-.55-.48-.93-.84l-.44-.45a1.06,1.06,0,0,0-.6-.33,1,1,0,0,0-.66.12,1,1,0,0,0-.35,1.38,11.09,11.09,0,0,0,.9,1.18,16.49,16.49,0,0,1,1.57,2.29,20.31,20.31,0,0,1,1.2,2.37,9.5,9.5,0,0,1,.63,2.18,4,4,0,0,1-.15,1.84,2.42,2.42,0,0,1-1.1,1.29,2.9,2.9,0,0,1-1.27.4,2.49,2.49,0,0,1-1.32-.33,4.48,4.48,0,0,1-1.33-1.13,10.88,10.88,0,0,1-1.3-2l-2-3.9a1.14,1.14,0,0,0-.61-.51.87.87,0,0,0-.78.07,1.06,1.06,0,0,0-.47.59,1,1,0,0,0,.05.73l2,4.09a7.14,7.14,0,0,1,.71,2.24,6,6,0,0,1,0,1.9,3.79,3.79,0,0,1-.6,1.43,2.85,2.85,0,0,1-.89.88,2.12,2.12,0,0,1-1.93.2,3.68,3.68,0,0,1-1.74-1.71,11.79,11.79,0,0,1-1.11-2.38,12.13,12.13,0,0,1-.47-1.9,7.79,7.79,0,0,1-.08-1.36c0-.36,0-.6.05-.73a1.36,1.36,0,0,0-.14-.65,1,1,0,0,0-.6-.46.9.9,0,0,0-.75.09,1.06,1.06,0,0,0-.32.28.82.82,0,0,0-.16.37,9,9,0,0,0-.07,2.18,12.86,12.86,0,0,0,.51,2.44,14.5,14.5,0,0,0,1.43,3.12,6.72,6.72,0,0,0,1.36,1.69,4.9,4.9,0,0,0,1.58.94,3.85,3.85,0,0,0,1.71.21,4.3,4.3,0,0,0,1.75-.6,4.45,4.45,0,0,0,1.72-2,7.25,7.25,0,0,0,.68-3.14,7.93,7.93,0,0,0,1.14.78,4.07,4.07,0,0,0,1.27.48,4.22,4.22,0,0,0,1.42,0,4.47,4.47,0,0,0,1.54-.59,4.22,4.22,0,0,0,1.78-1.86,5.31,5.31,0,0,0,.48-2.38,8.49,8.49,0,0,0-.48-2.61,18.19,18.19,0,0,0-1.08-2.56,9.31,9.31,0,0,0,1.26.42,6.47,6.47,0,0,0,1.33.2,5.6,5.6,0,0,0,1.35-.11,4.51,4.51,0,0,0,1.35-.53c.14-.09.25-.19.38-.29a8.62,8.62,0,0,0,.66,1,7.3,7.3,0,0,0,2,1.77,6.27,6.27,0,0,0,2.59.83,6.41,6.41,0,0,0,3-.52,7.09,7.09,0,0,0,3.71-3.77,13.34,13.34,0,0,0,.67-1.94,7.35,7.35,0,0,0,1.12,1,6.14,6.14,0,0,0,5.57.87,7.09,7.09,0,0,0,4.07-3.38,13.5,13.5,0,0,0,1.17-2.73,9.14,9.14,0,0,0,2.82,2.49,5.06,5.06,0,0,0,3.44.54,3.86,3.86,0,0,0,1.81-.89,8.09,8.09,0,0,0,1.44-1.63,11,11,0,0,0,1.09-2c.3-.71.56-1.38.76-2s.37-1.19.49-1.66l.21-.9a1,1,0,0,0,0-.38,1,1,0,0,0-.4-.62,1,1,0,0,0-1.56.63,19,19,0,0,1-.51,1.89,20.14,20.14,0,0,1-.93,2.38,11,11,0,0,1-1.3,2.14,2.83,2.83,0,0,1-1.65,1.11A2.64,2.64,0,0,1,273,380a5.38,5.38,0,0,1-1.49-1,10,10,0,0,1-1.4-1.58c-.22-.32-.43-.64-.64-1l-.49-.78.43-1.71c0-.11.06-.21.09-.33A27.36,27.36,0,0,0,270,371c.17-1,.31-2.12.43-3.31s.19-2.4.23-3.63,0-2.46-.06-3.68a26.37,26.37,0,0,0-.43-3.42l-.05-.28,13.13-2.56a1.12,1.12,0,0,0,.65-.39A.84.84,0,0,0,284.07,353Zm-37.71,32.63a4.5,4.5,0,0,1-1.49-2.74,5.07,5.07,0,0,1,.24-3.22,1.91,1.91,0,0,1,1-.82,1.23,1.23,0,0,1,1,0,1.73,1.73,0,0,1,.82,1,4,4,0,0,1,.29,1.4,5.62,5.62,0,0,1-.18,1.51,6,6,0,0,1-.63,1.51A6.27,6.27,0,0,1,246.36,385.66Zm11.43-4.39c-1.31-1.36-1.19-4.26-1.19-4.26h0a5.25,5.25,0,0,1,.05-.57,3,3,0,0,1,.5-1.22,1.82,1.82,0,0,1,1-.72,1.23,1.23,0,0,1,1,.13,1.64,1.64,0,0,1,.72,1,4.19,4.19,0,0,1,.15,1.42,5.62,5.62,0,0,1-.33,1.49A6.27,6.27,0,0,1,259,380,6.73,6.73,0,0,1,257.79,381.27Zm8-27.5c.23-.4.42-.61.57-.64s.43.13.68.51a7.5,7.5,0,0,1,.71,1.64l-2.49.48A5.63,5.63,0,0,1,265.78,353.77Zm2.94,11c0,1.4-.14,2.81-.3,4.21a37.17,37.17,0,0,1-.69,4,20.47,20.47,0,0,1-.77-2.26q-.34-1.26-.72-3.15-.66-3.39-.9-5.81a31.41,31.41,0,0,1-.2-4.08l3.06-.6a29.8,29.8,0,0,1,.45,3.62C268.74,362,268.76,363.38,268.72,364.79Z" transform="translate(-165.29 -342.31)"></path></svg>