<svg xmlns="http://www.w3.org/2000/svg" id="&#x421;&#x43B;&#x43E;&#x439;_1" data-name="&#x421;&#x43B;&#x43E;&#x439; 1" viewBox="0 0 193.52 152.79"><defs><style>.cls-1{fill:none;}.cls-2{fill:#fff;}.cls-3{fill:#e0b159;}</style></defs><path class="cls-1" d="M288.87,397.7a7.69,7.69,0,1,0-7.69-7.68A7.65,7.65,0,0,0,288.87,397.7Z" transform="translate(-210.02 -321.87)"></path><path class="cls-1" d="M301.33,429c0-.12,0-.21,0-.22h0a.68.68,0,0,0-.47.26,3,3,0,0,0-.57.71,2.43,2.43,0,0,0-.31.81.48.48,0,0,0,.12.46,5,5,0,0,0,.52-.58,5.59,5.59,0,0,0,.5-.78A2.49,2.49,0,0,0,301.33,429Z" transform="translate(-210.02 -321.87)"></path><path class="cls-1" d="M328.88,433.05l-.28.29a4.11,4.11,0,0,0-.44.51c-.62.64-1.14,1.24-1.62,1.84s-1,1.26-1.35,1.79a12.21,12.21,0,0,0-1,1.59,4,4,0,0,0-.46,1.21v0l-.05.1,0,0h.08s.22,0,.75-.56c.33-.33.72-.78,1.2-1.37a20.17,20.17,0,0,0,1.35-1.93l1.35-2.11.2-.46-.06-.16v-.27a1.28,1.28,0,0,1,.49-.5l.05,0,.24-.44-.32.28Z" transform="translate(-210.02 -321.87)"></path><path class="cls-1" d="M330.57,433.21l-.52.15-.2.06-.18.13-.11.29h.06a1.44,1.44,0,0,0,.54-.14,5.61,5.61,0,0,0,1.24-.75l.08-.05h-.07A8.21,8.21,0,0,1,330.57,433.21Z" transform="translate(-210.02 -321.87)"></path><path class="cls-1" d="M333.46,429.74h0l0,0s0,0-.07,0-.63.16-1.73.95a2.41,2.41,0,0,1-.4.33,2.32,2.32,0,0,0-.42.34l-.07.07-.21.36-.16.46c0,.11-.1.24-.15.37h.13l.63-.23.41-.12.3-.1.88-.3.2-.13a4.65,4.65,0,0,0,.82-1.38C333.7,429.82,333.53,429.77,333.46,429.74Z" transform="translate(-210.02 -321.87)"></path><path class="cls-1" d="M299,440.21c-.78.55-1.39,1-1.92,1.41a17.14,17.14,0,0,0-1.64,1.46,4.25,4.25,0,0,0-.73,1v.13s0,0,0,0a1.18,1.18,0,0,0,.22-.07,4,4,0,0,0,1.49-.81c.71-.56,1.44-1.17,2.15-1.82s1.68-1.56,2.5-2.39l.37-.42.25-.27.06-.07-.47.32C300.44,439.21,299.67,439.73,299,440.21Z" transform="translate(-210.02 -321.87)"></path><path class="cls-1" d="M299.06,429.9c-.28.21-.57.41-.92.65a1,1,0,0,0-.27.91c.06.17.25.26.58.26a2.73,2.73,0,0,0,1.06-.26,1.17,1.17,0,0,1-.29-.92,2.88,2.88,0,0,1,.33-1Z" transform="translate(-210.02 -321.87)"></path><path class="cls-1" d="M265.51,433.21l-.5.15-.21.06-.18.13-.11.29h.06a1.35,1.35,0,0,0,.53-.14,5.66,5.66,0,0,0,1.25-.75l.07-.05h-.06A7,7,0,0,1,265.51,433.21Z" transform="translate(-210.02 -321.87)"></path><path class="cls-1" d="M263.82,433.06l-.27.28a3.52,3.52,0,0,0-.44.51c-.61.64-1.14,1.24-1.62,1.84s-1,1.26-1.36,1.79a14.85,14.85,0,0,0-1,1.59,4.25,4.25,0,0,0-.46,1.21v0l-.05.1,0,0h.09s.23-.05.75-.56a16.32,16.32,0,0,0,1.2-1.37,20.8,20.8,0,0,0,1.34-1.93l1.36-2.11.2-.46-.06-.16v-.27a1.41,1.41,0,0,1,.48-.5l.05,0,.25-.44-.32.28Z" transform="translate(-210.02 -321.87)"></path><path class="cls-1" d="M268.41,429.74h0l0,0s0,0-.07,0-.63.16-1.73.95a3.19,3.19,0,0,1-.4.33,2.41,2.41,0,0,0-.42.34l-.07.06-.21.37-.16.46c-.05.11-.1.24-.15.37h.13l.63-.23.42-.12.28-.1.89-.3.2-.13a4.88,4.88,0,0,0,.82-1.38C268.65,429.83,268.47,429.76,268.41,429.74Z" transform="translate(-210.02 -321.87)"></path><path class="cls-1" d="M285.6,429c0-.12,0-.21,0-.22h0a.72.72,0,0,0-.47.26,3,3,0,0,0-.57.71,2.41,2.41,0,0,0-.3.81.48.48,0,0,0,.11.46,6.21,6.21,0,0,0,.53-.58,5.94,5.94,0,0,0,.5-.78A2.9,2.9,0,0,0,285.6,429Z" transform="translate(-210.02 -321.87)"></path><path class="cls-1" d="M283.32,429.9c-.27.21-.56.41-.91.65a1,1,0,0,0-.27.91c.05.17.25.26.57.26a2.69,2.69,0,0,0,1.06-.26,1.16,1.16,0,0,1-.28-.92,2.68,2.68,0,0,1,.32-1C283.66,429.64,283.49,429.77,283.32,429.9Z" transform="translate(-210.02 -321.87)"></path><path class="cls-1" d="M324.94,430.09a1,1,0,0,0-.56-.11,1.86,1.86,0,0,0-.92.28c0,.11-.11.15-.17.16l-.4.23a3.18,3.18,0,0,0-.33.3,2.56,2.56,0,0,0-.55.72c-.11.23,0,.32,0,.35a1.32,1.32,0,0,0,.81-.16,10.83,10.83,0,0,0,1.18-.6,12.4,12.4,0,0,0,1.19-.76l.18-.12-.08-.05A3.22,3.22,0,0,1,324.94,430.09Z" transform="translate(-210.02 -321.87)"></path><path class="cls-1" d="M214.78,430.82h48.58l.57-.3a.49.49,0,0,1,.17-.14c.16-.08.38-.23.69-.43a1.4,1.4,0,0,0,.54-.57.43.43,0,0,1,.4-.28h0a.3.3,0,0,1,.3.32v.45a1.06,1.06,0,0,1,0,.25,12,12,0,0,1,1.49-.95,1.41,1.41,0,0,1,1.26-.15,1,1,0,0,1,.53,1,2.86,2.86,0,0,1-.49,1.22l-.16.23.13,0,1.74-.78a11.15,11.15,0,0,0,1.26-.66s0,0,.05-.05c.28-.16.55-.32.81-.49l.67-.45.15-.1a19.8,19.8,0,0,1,1.45-2,21.74,21.74,0,0,1,1.72-1.85,12.2,12.2,0,0,1,1.33-1.11l.13-.09c.37-.26.72-.49,1-.7a5.44,5.44,0,0,1,1-.46.94.94,0,0,1,.89.09.57.57,0,0,1,.23.39c.05.35-.19.84-.72,1.48a19,19,0,0,1-4.41,3.35l-.68.45c-.37.22-.84.55-1.41,1l-.79,1.42.54-.33c.4-.23.84-.48,1.37-.74a11.47,11.47,0,0,1,1.38-.61,2.56,2.56,0,0,1,1.12-.21.78.78,0,0,1,.85.68,1.31,1.31,0,0,1-.38.92c-.27.34-.49.63-.67.88a1,1,0,0,0-.22.42h0a2.77,2.77,0,0,0,.81-.27c.2-.07.43-.17.7-.29l.2-.1.47-.21.65-.3,1.14-.52a8.93,8.93,0,0,0,1-.51,5.58,5.58,0,0,1,.46-.39,5.19,5.19,0,0,1,1-.54,1,1,0,0,1,.29,0c.18,0,.26.1.27.2s0,0,0,.05a4.16,4.16,0,0,1,.48-.46,1.58,1.58,0,0,1,.9-.35h.11a.47.47,0,0,1,.42.18,1,1,0,0,1,.15.85,3.5,3.5,0,0,1-.34.93,5.84,5.84,0,0,1-.56.84c-.1.13-.19.22-.26.3a3.31,3.31,0,0,0,.74-.11c.5-.13.93-.27,1.34-.41a11.74,11.74,0,0,0,1.25-.51h0l0,0,1.41-.81a17.71,17.71,0,0,1,1.18-1.45c.44-.48,1-1,1.64-1.68l-2,0a19.34,19.34,0,0,0-2,.13l-.3,0h0a.29.29,0,0,1-.38-.3.37.37,0,0,1,.25-.36.68.68,0,0,1,.23,0c.64-.08,1.42-.14,2.31-.17,1.05,0,1.93-.06,2.77-.07.23-.19.54-.44.93-.74s.89-.66,1.29-.92.87-.57,1.27-.79a2.44,2.44,0,0,1,1-.33.42.42,0,0,1,.37.19.46.46,0,0,1,.12.3,2.35,2.35,0,0,1-.67,1.08c-.36.38-.79.79-1.29,1.24l2.76.21.27.08a.38.38,0,0,1,.2.43c0,.13-.19.19-.44.19a1,1,0,0,1-.29,0c-.51-.05-1.06-.08-1.67-.11s-1.15,0-1.65,0c-.83.68-1.69,1.35-2.58,2a19.35,19.35,0,0,1-2.74,1.68,2.9,2.9,0,0,0-.46.77,2.09,2.09,0,0,0-.22.76c0,.25.2.39.53.44a5,5,0,0,0,1.44,0,11.9,11.9,0,0,0,1.92-.44c.61-.18,1.26-.39,2-.65.62-.22,1.2-.45,1.73-.69l.31-.16a5.63,5.63,0,0,1,.72-.65,4.64,4.64,0,0,1,1-.54.88.88,0,0,1,.28,0,.25.25,0,0,1,.28.2.43.43,0,0,1,0,.05,3.56,3.56,0,0,1,.49-.46,1.53,1.53,0,0,1,.89-.35h.12a.55.55,0,0,1,.18,0,.5.5,0,0,1,.23.16,1,1,0,0,1,.16.85,3.21,3.21,0,0,1-.35.93,5.8,5.8,0,0,1-.55.84,3,3,0,0,1-.27.3,3.31,3.31,0,0,0,.74-.11c.51-.14.94-.27,1.35-.41s.88-.34,1.32-.54.51-.26.69-.37a10.2,10.2,0,0,1,1.06-.63c.54-.27,1.09-.53,1.61-.74h0c.24,0,.4.07.47.21v.05a.5.5,0,0,1-.28.47,12.82,12.82,0,0,0-1.81.78l-.48.29,0,0-.4.26a3.84,3.84,0,0,0-.44.32,2.86,2.86,0,0,0-.7.81c-.15.29-.06.42,0,.5s.33.1.63,0a6.89,6.89,0,0,0,1.17-.71,14.39,14.39,0,0,0,1.31-1.07c.41-.36.8-.73,1.19-1.12a.25.25,0,0,1,.23-.13.49.49,0,0,1,.24.07.34.34,0,0,1,.14.49c-.35.6-.82,1.4-1.41,2.39a32.81,32.81,0,0,1-2.24,3.2l.57-.38c.81-.5,1.63-1,2.52-1.54.5-.28,1-.57,1.45-.85l.93-.55c.73-.45,1.42-.87,2-1.27.28-.17.54-.34.79-.51v0a4.47,4.47,0,0,1,.43-.3h0l.3-.22a.33.33,0,0,1,.23-.11l.14-.09.58-.39.55-.38.43-.29.07-.19a2.59,2.59,0,0,1,.58-1.19,5.2,5.2,0,0,1,1-1,5.64,5.64,0,0,1,1.17-.64,2,2,0,0,1,1-.18.29.29,0,0,1,.24.13.43.43,0,0,1,0,.38,1.58,1.58,0,0,1-.6.84l-.35.28-.55.45c-.2.17-.54.43-1,.77l-.86.65a2.54,2.54,0,0,0,.58,1.32c.1.2.12.31.07.39a.15.15,0,0,1-.11.07,9.83,9.83,0,0,0-.7.72,1.28,1.28,0,0,0-.37.84c0,.1.12.15.33.15a3.92,3.92,0,0,0,1-.16c.45-.13.88-.27,1.32-.43s1-.38,1.45-.58l1.33-.6.44-.22a5.6,5.6,0,0,1,.62-.42,2.85,2.85,0,0,1,1.41-.41,1.85,1.85,0,0,1,.86.2,1.14,1.14,0,0,1,.52.46.43.43,0,0,1,0,.11l.32-.24.08-.06a.77.77,0,0,1,.42-.19.28.28,0,0,1,.25.15.36.36,0,0,1-.09.51,1.58,1.58,0,0,0-.62.8c-.09.28-.08.44,0,.49a1.12,1.12,0,0,0,.78-.13c.42-.18.82-.37,1.23-.59s.83-.44,1.2-.67.64-.39.71-.44h0a1,1,0,0,0,.23-.32.44.44,0,0,1,.4-.28h0a.3.3,0,0,1,.31.32v.45a2.11,2.11,0,0,1,0,.25,11.24,11.24,0,0,1,1.48-.95,1.41,1.41,0,0,1,1.26-.15,1,1,0,0,1,.53,1,2.86,2.86,0,0,1-.49,1.22l-.15.23.12,0,1.75-.78c.47-.22.88-.44,1.25-.66l0-.05c.27-.15.53-.31.81-.49l.68-.45.15-.1a20,20,0,0,1,1.44-2,22.08,22.08,0,0,1,1.72-1.85,13,13,0,0,1,1.33-1.11l.15-.1,1-.69a5.44,5.44,0,0,1,1-.46.91.91,0,0,1,.89.1.5.5,0,0,1,.23.38c.05.35-.19.84-.72,1.48a19,19,0,0,1-4.41,3.35l-.67.45c-.38.23-.86.55-1.41,1l-.8,1.42.55-.33c.4-.24.85-.49,1.36-.74a11.78,11.78,0,0,1,1.39-.61,2.38,2.38,0,0,1,1.12-.21.78.78,0,0,1,.84.68,1.26,1.26,0,0,1-.38.92c-.25.32-.48.6-.67.88a1,1,0,0,0-.22.41,2.47,2.47,0,0,0,.83-.26l.67-.28.23-.11.52-.24.59-.27.12-.05a1.92,1.92,0,0,1,.14-.49,2.46,2.46,0,0,1,.78-1,2.77,2.77,0,0,1,1.1-.55,2,2,0,0,1,.84,0,.58.58,0,0,1,.5.52,1,1,0,0,1-.31.75,3.68,3.68,0,0,1-.82.6,8,8,0,0,1-.93.46l-.44.17-.06,0a1.34,1.34,0,0,0,.69.63,2.82,2.82,0,0,0,1.33.14,10.58,10.58,0,0,0,2.8-.81,16,16,0,0,0,2.39-1.29l.11-.07.41-.29.1-.07.77-.56c.08-.5.31-.63.5-.65h.11a.42.42,0,0,1,.42.22.48.48,0,0,1,0,.27.92.92,0,0,1-.23.34,1.11,1.11,0,0,0,.41.26,1.35,1.35,0,0,0,.85,0,1.33,1.33,0,0,1,.3-.05c.26,0,.29.17.29.23a2.22,2.22,0,0,0,.88,1.75,4.46,4.46,0,0,0,2.15.93,8.87,8.87,0,0,0,2.85-.05,8.25,8.25,0,0,0,2.91-1.15l.07,0a.56.56,0,0,1,.21-.06H398.8V362.15h-184Zm158.54-54.7H392v6.25h-6.25v31.14h-6.19V382.37h-6.25Zm-32.49,0h24.94v6.25h-18.7v9.35h15.55v6.2H347.07v9.35h18.7v6.24H340.83Zm-29.29,0h6.25v31.15h13.83v6.24H311.54Zm-10.49,37.39H276.37v-6.18h24.68ZM288.84,374.6A15.44,15.44,0,1,1,273.4,390,15.46,15.46,0,0,1,288.84,374.6ZM260,376.12h6.25v37.39H260Zm-32,0,8.17,20.56,8.23-20.56h6.73l-15,37.39-14.9-37.39Z" transform="translate(-210.02 -321.87)"></path><path class="cls-1" d="M296.81,424.34c.26-.26.49-.5.67-.71a10.65,10.65,0,0,0-1.22.67,16.31,16.31,0,0,0-1.68,1.16h1C296,425.07,296.43,424.7,296.81,424.34Z" transform="translate(-210.02 -321.87)"></path><path class="cls-1" d="M277.21,426.45c.66-.45,1.24-.88,1.78-1.33a15.66,15.66,0,0,0,1.33-1.22c.19-.21.41-.5.32-.66h0a.91.91,0,0,0-.22.05,4.53,4.53,0,0,0-.9.5,14.51,14.51,0,0,0-2.9,2.29,18.81,18.81,0,0,0-1.59,1.85l.54-.33Z" transform="translate(-210.02 -321.87)"></path><path class="cls-1" d="M347.49,429.57l.07,0,.11-.08a.75.75,0,0,0,.23-.31h-.17a1.45,1.45,0,0,0-1,.4,3.1,3.1,0,0,0-.52.59l.07,0a9.32,9.32,0,0,0,1-.52A.45.45,0,0,1,347.49,429.57Z" transform="translate(-210.02 -321.87)"></path><path class="cls-1" d="M293.62,426.36c-.21.18-.47.42-.79.72s-.69.7-1.24,1.29l1.6-1.1c.51-.34,1-.69,1.51-1.06h-.92Z" transform="translate(-210.02 -321.87)"></path><path class="cls-1" d="M342.26,426.45c.66-.45,1.24-.88,1.78-1.33a14,14,0,0,0,1.33-1.22c.2-.21.41-.5.32-.66h0a.91.91,0,0,0-.22.05,4.85,4.85,0,0,0-.9.5,14.44,14.44,0,0,0-2.89,2.29,18.67,18.67,0,0,0-1.6,1.85l.71-.45Z" transform="translate(-210.02 -321.87)"></path><path class="cls-1" d="M288.84,404.62A14.58,14.58,0,1,0,274.26,390,14.58,14.58,0,0,0,288.84,404.62Zm0-28.5A13.89,13.89,0,1,1,275,390,13.93,13.93,0,0,1,288.87,376.12Z" transform="translate(-210.02 -321.87)"></path><polygon class="cls-2" points="41.12 54.26 34.39 54.26 26.16 74.82 17.99 54.26 11.26 54.26 26.16 91.64 41.12 54.26"></polygon><rect class="cls-2" x="49.95" y="54.26" width="6.25" height="37.38"></rect><path class="cls-3" d="M288.87,403.9A13.89,13.89,0,1,0,275,390,13.93,13.93,0,0,0,288.87,403.9Zm0-21.58a7.69,7.69,0,1,1-7.69,7.7A7.66,7.66,0,0,1,288.87,382.32Z" transform="translate(-210.02 -321.87)"></path><rect class="cls-3" x="66.36" y="85.46" width="24.68" height="6.18"></rect><polygon class="cls-2" points="121.6 85.4 107.77 85.4 107.77 54.26 101.52 54.26 101.52 91.64 121.6 91.64 121.6 85.4"></polygon><polygon class="cls-2" points="155.75 85.4 137.05 85.4 137.05 76.05 152.6 76.05 152.6 69.85 137.05 69.85 137.05 60.51 155.75 60.51 155.75 54.26 130.81 54.26 130.81 91.64 155.75 91.64 155.75 85.4"></polygon><polygon class="cls-2" points="169.55 91.64 175.74 91.64 175.74 60.51 181.99 60.51 181.99 54.26 163.29 54.26 163.29 60.51 169.55 60.51 169.55 91.64"></polygon><path class="cls-3" d="M288.84,405.48A15.44,15.44,0,1,0,273.4,390,15.46,15.46,0,0,0,288.84,405.48Zm0-30A14.58,14.58,0,1,1,274.26,390,14.58,14.58,0,0,1,288.84,375.46Z" transform="translate(-210.02 -321.87)"></path><path class="cls-3" d="M211,358.13h0v75.64a1.07,1.07,0,0,0,1.07,1.07h44.77a1.07,1.07,0,0,0,0-2.14h-43.7V360.27H401.4V432.7H373.32a1.07,1.07,0,1,0,0,2.14h29.15a1.07,1.07,0,0,0,1.07-1.07V358.13Z" transform="translate(-210.02 -321.87)"></path><path class="cls-3" d="M399.66,432.25V362.3H213.93v69.95a.42.42,0,0,0,.42.42h49.1l.19,0c.47-.22,1.05-.55,1.45-.79l0,.09L265,432c-.36.31-.84.73-1.28,1.19l-.72.74-.42.42c-.63.71-1.18,1.36-1.69,2s-1.07,1.38-1.48,2a16.87,16.87,0,0,0-1,1.79,3.2,3.2,0,0,0-.4,1.38v.09a.65.65,0,0,0,.67.63.94.94,0,0,0,.22,0,3.6,3.6,0,0,0,.59-.29,3.68,3.68,0,0,0,.58-.49,18.38,18.38,0,0,0,1.27-1.44,19.75,19.75,0,0,0,1.38-2c.24-.41.43-.74.62-1.05s.44-.72.66-1.06l.26-.45a2.4,2.4,0,0,0,1.75-.39,7.79,7.79,0,0,0,1.81-1.47l.12-.11H268c.76-.29,1.61-.62,2.41-.95a10.41,10.41,0,0,0,2-1.06l.33-.2a6.67,6.67,0,0,0-.35.71,5.84,5.84,0,0,0-.34,1,.3.3,0,0,0,.13.41.28.28,0,0,0,.43-.08,11,11,0,0,1,1.53-1.1c.67-.39,1.25-.69,1.76-.93a7.12,7.12,0,0,1,1.43-.54,1.21,1.21,0,0,1,.34,0c.12,0,.16,0,.17,0a2.22,2.22,0,0,1-.3.51c-.18.25-.35.47-.52.67a4.08,4.08,0,0,0-.47.7.79.79,0,0,0-.06.66c.1.22.31.32.65.32a3.6,3.6,0,0,0,1.05-.19c.41-.14.84-.3,1.29-.49s.9-.41,1.32-.63l.57-.31a1.52,1.52,0,0,0-.06.2,1,1,0,0,0,.41,1,1.66,1.66,0,0,0,1,.34h.08a3.13,3.13,0,0,0,1.61-.61,3.31,3.31,0,0,0,1.29,0,9.68,9.68,0,0,0,1.56-.4,13.52,13.52,0,0,0,1.46-.59l.38-.2a2,2,0,0,0-.1.29,3,3,0,0,0,0,.52,1,1,0,0,0,.27.72,1.17,1.17,0,0,0,.7.35,3,3,0,0,0,.9.12,6.63,6.63,0,0,0,1.17-.12,20,20,0,0,0,2.67-.66,25.07,25.07,0,0,0,2.39-.89c0,.06,0,.11-.05.17a1.05,1.05,0,0,0,.41,1,1.67,1.67,0,0,0,1.05.34h.08a3.1,3.1,0,0,0,1.6-.61,3.37,3.37,0,0,0,1.3,0,10,10,0,0,0,1.56-.4l.42-.17a1,1,0,0,0,0,1.05c.25.56.79.69,1.62.36A8.42,8.42,0,0,0,307.4,432L306,434.12a39.22,39.22,0,0,1-2.46,3.18l-.06.12-.95.58c-1.14.74-2.22,1.45-3.22,2.14s-1.87,1.31-2.66,1.94a21.2,21.2,0,0,0-1.9,1.69,2.2,2.2,0,0,0-.77,1.41v.1a.76.76,0,0,0,.48.59,1.57,1.57,0,0,0,.37.05,1.37,1.37,0,0,0,.34,0,3.12,3.12,0,0,0,.76-.4l.92-.59a19.75,19.75,0,0,0,2.24-1.82c.86-.81,1.71-1.65,2.52-2.5l1.21-1.34L304,438l2.33-1.42c1-.64,1.79-1.15,2.52-1.59s1.61-1,2.37-1.47l2.05-1.31.65-.43H314l0,0,.93-.6c.37-.23.86-.55,1.51-1,.05.16.09.31.12.43a2.09,2.09,0,0,0,.28.57,5.8,5.8,0,0,0-.85,1.17,1.11,1.11,0,0,0,0,1.19,1.14,1.14,0,0,0,.93.35,3.08,3.08,0,0,0,.51,0,10.39,10.39,0,0,0,2.17-.59c.59-.22,1.18-.48,1.79-.77a1.63,1.63,0,0,0-.11.31.8.8,0,0,0,.39.93.78.78,0,0,0,.37.08,1.43,1.43,0,0,0,.43-.06,6.61,6.61,0,0,0,1.1-.4,8.5,8.5,0,0,0,1.18-.63l.71-.46a1,1,0,0,0,0,.45.74.74,0,0,0,.58.56,1.89,1.89,0,0,0,1.14-.1,12.32,12.32,0,0,0,1.33-.57c.3-.16.61-.34.92-.53h.07l0,0,.15-.12.06,0,.55-.35a.47.47,0,0,0,0,.17l-.14.26,0,.06a16.29,16.29,0,0,0-1.29,1.19l-.82.84-.31.32c-.63.71-1.19,1.36-1.7,2s-1.07,1.38-1.48,2a16.87,16.87,0,0,0-1,1.79,3.24,3.24,0,0,0-.4,1.38v.09a.66.66,0,0,0,.68.63.86.86,0,0,0,.21,0,3.24,3.24,0,0,0,.59-.29,3,3,0,0,0,.58-.49,16.72,16.72,0,0,0,1.27-1.44,19.45,19.45,0,0,0,1.38-2c.2-.35.41-.7.62-1.05l.66-1.06.26-.45a2.43,2.43,0,0,0,1.76-.39,7.79,7.79,0,0,0,1.81-1.47l.12-.11H333c.75-.29,1.6-.62,2.41-.95a10.45,10.45,0,0,0,2-1l.38-.22a6.76,6.76,0,0,0-.36.71,6.43,6.43,0,0,0-.34,1,.31.31,0,0,0,.13.42.32.32,0,0,0,.19.07.29.29,0,0,0,.24-.15,11.15,11.15,0,0,1,1.54-1.1,19.56,19.56,0,0,1,1.76-.93,7.07,7.07,0,0,1,1.42-.54,1.21,1.21,0,0,1,.34,0c.12,0,.16,0,.17,0a2.13,2.13,0,0,1-.29.51c-.17.23-.35.46-.53.67a5,5,0,0,0-.47.7.75.75,0,0,0-.05.66c.09.22.31.32.64.32a3.55,3.55,0,0,0,1.05-.19c.42-.14.85-.3,1.29-.49s.61-.29.92-.44a1.59,1.59,0,0,0,.32.46,2.61,2.61,0,0,0,.8.49,2.77,2.77,0,0,0,1,.17,6.35,6.35,0,0,0,1.66-.21,11.28,11.28,0,0,0,1.68-.53,15,15,0,0,0,1.55-.72,11,11,0,0,0,1.28-.78l.05-.06.35-.2a5.9,5.9,0,0,0,.57-.4l.17-.13.14-.1a2.21,2.21,0,0,0,.76.44,1.77,1.77,0,0,0,.86.08,3.07,3.07,0,0,0,1.38,2,6.21,6.21,0,0,0,2.58.91,9,9,0,0,0,1,.07,10.39,10.39,0,0,0,2-.22,8.29,8.29,0,0,0,2.65-1l.11,0h32.8A.42.42,0,0,0,399.66,432.25Zm-98,7.19-.25.27-.37.42c-.82.83-1.67,1.63-2.5,2.39s-1.44,1.26-2.15,1.82a4,4,0,0,1-1.49.81,1.18,1.18,0,0,1-.22.07s0,0,0,0v-.13a4.25,4.25,0,0,1,.73-1,17.14,17.14,0,0,1,1.64-1.46c.53-.41,1.14-.86,1.92-1.41s1.48-1,2.29-1.52l.47-.32Zm-37.6-5.4-.05,0a1.41,1.41,0,0,0-.48.5v.27l.06.16-.2.46L262,437.59a20.8,20.8,0,0,1-1.34,1.93,16.32,16.32,0,0,1-1.2,1.37c-.52.51-.7.56-.75.56h-.09l0,0,.05-.1v0a4.25,4.25,0,0,1,.46-1.21,14.85,14.85,0,0,1,1-1.59c.38-.53.83-1.12,1.36-1.79s1-1.2,1.62-1.84a3.52,3.52,0,0,1,.44-.51l.27-.28.17-.18.32-.28Zm2.29-.09a5.66,5.66,0,0,1-1.25.75,1.35,1.35,0,0,1-.53.14h-.06l.11-.29.18-.13.21-.06.5-.15a7,7,0,0,0,.85-.3h.06Zm2.16-2.66a4.88,4.88,0,0,1-.82,1.38l-.2.13-.89.3-.28.1-.42.12-.63.23h-.13c.05-.13.1-.26.15-.37l.16-.46.21-.37.07-.06a2.41,2.41,0,0,1,.42-.34,3.19,3.19,0,0,0,.4-.33c1.1-.79,1.55-.95,1.73-.95s.06,0,.07,0l0,0h0C268.47,430.76,268.65,430.83,268.51,431.29Zm15.26,1.17a2.69,2.69,0,0,1-1.06.26c-.32,0-.52-.09-.57-.26a1,1,0,0,1,.27-.91c.35-.24.64-.44.91-.65s.34-.26.49-.39a2.68,2.68,0,0,0-.32,1A1.16,1.16,0,0,0,283.77,432.46Zm1.08-1a6.21,6.21,0,0,1-.53.58.48.48,0,0,1-.11-.46,2.41,2.41,0,0,1,.3-.81,3,3,0,0,1,.57-.71.72.72,0,0,1,.47-.26h0s0,.1,0,.22a2.9,2.9,0,0,1-.25.66A5.94,5.94,0,0,1,284.85,431.43Zm14.66,1a2.73,2.73,0,0,1-1.06.26c-.33,0-.52-.09-.58-.26a1,1,0,0,1,.27-.91c.35-.24.64-.44.92-.65l.49-.39a2.88,2.88,0,0,0-.33,1A1.17,1.17,0,0,0,299.51,432.46Zm1.07-1a5,5,0,0,1-.52.58.48.48,0,0,1-.12-.46,2.43,2.43,0,0,1,.31-.81,3,3,0,0,1,.57-.71.68.68,0,0,1,.47-.26h0s0,.1,0,.22a2.49,2.49,0,0,1-.25.66A5.59,5.59,0,0,1,300.58,431.43Zm24.62.07a12.4,12.4,0,0,1-1.19.76,10.83,10.83,0,0,1-1.18.6,1.32,1.32,0,0,1-.81.16s-.12-.12,0-.35a2.56,2.56,0,0,1,.55-.72,3.18,3.18,0,0,1,.33-.3l.4-.23c.06,0,.12-.05.17-.16a1.86,1.86,0,0,1,.92-.28,1,1,0,0,1,.56.11,3.22,3.22,0,0,0,.36.24l.08.05Zm3.92,2.54-.05,0a1.28,1.28,0,0,0-.49.5v.27l.06.16-.2.46-1.35,2.11a20.17,20.17,0,0,1-1.35,1.93c-.48.59-.87,1-1.2,1.37-.53.53-.71.56-.75.56h-.08l0,0,.05-.1v0a4,4,0,0,1,.46-1.21,12.21,12.21,0,0,1,1-1.59c.37-.53.82-1.12,1.35-1.79s1-1.2,1.62-1.84a4.11,4.11,0,0,1,.44-.51l.28-.29.16-.17.32-.28Zm2.28-.09a5.61,5.61,0,0,1-1.24.75,1.44,1.44,0,0,1-.54.14h-.06l.11-.29.18-.13.2-.06.52-.15a8.21,8.21,0,0,0,.84-.3h.07Zm2.16-2.66a4.65,4.65,0,0,1-.82,1.38l-.2.13-.88.3-.3.1-.41.12-.63.23h-.13c.05-.13.1-.26.15-.37l.16-.46.21-.36.07-.07a2.32,2.32,0,0,1,.42-.34,2.41,2.41,0,0,0,.4-.33c1.1-.79,1.55-.95,1.73-.95s.07,0,.07,0l0,0h0C333.53,430.77,333.7,430.82,333.56,431.29Zm65.24.53H366.43a.56.56,0,0,0-.21.06l-.07,0a8.25,8.25,0,0,1-2.91,1.15,8.87,8.87,0,0,1-2.85.05,4.46,4.46,0,0,1-2.15-.93,2.22,2.22,0,0,1-.88-1.75c0-.06,0-.23-.29-.23a1.33,1.33,0,0,0-.3.05,1.35,1.35,0,0,1-.85,0,1.11,1.11,0,0,1-.41-.26.92.92,0,0,0,.23-.34.48.48,0,0,0,0-.27.42.42,0,0,0-.42-.22h-.11c-.19,0-.42.15-.5.65l-.77.56-.1.07-.41.29-.11.07a16,16,0,0,1-2.39,1.29,10.58,10.58,0,0,1-2.8.81,2.82,2.82,0,0,1-1.33-.14,1.34,1.34,0,0,1-.69-.63l.06,0,.44-.17a8,8,0,0,0,.93-.46,3.68,3.68,0,0,0,.82-.6,1,1,0,0,0,.31-.75.58.58,0,0,0-.5-.52,2,2,0,0,0-.84,0,2.77,2.77,0,0,0-1.1.55,2.46,2.46,0,0,0-.78,1,1.92,1.92,0,0,0-.14.49l-.12.05-.59.27-.52.24-.23.11-.67.28a2.47,2.47,0,0,1-.83.26,1,1,0,0,1,.22-.41c.19-.28.42-.56.67-.88a1.26,1.26,0,0,0,.38-.92.78.78,0,0,0-.84-.68,2.38,2.38,0,0,0-1.12.21,11.78,11.78,0,0,0-1.39.61c-.51.25-1,.5-1.36.74l-.55.33.8-1.42c.55-.41,1-.73,1.41-1l.67-.45a19,19,0,0,0,4.41-3.35c.53-.64.77-1.13.72-1.48a.5.5,0,0,0-.23-.38.91.91,0,0,0-.89-.1,5.44,5.44,0,0,0-1,.46l-1,.69-.15.1a13,13,0,0,0-1.33,1.11A22.08,22.08,0,0,0,340,427.9a20,20,0,0,0-1.44,2l-.15.1-.68.45c-.28.18-.54.34-.81.49l0,.05c-.37.22-.78.44-1.25.66l-1.75.78-.12,0,.15-.23a2.86,2.86,0,0,0,.49-1.22,1,1,0,0,0-.53-1,1.41,1.41,0,0,0-1.26.15,11.24,11.24,0,0,0-1.48.95,2.11,2.11,0,0,0,0-.25v-.45a.3.3,0,0,0-.31-.32h0a.44.44,0,0,0-.4.28,1,1,0,0,1-.23.32h0c-.07.05-.25.17-.71.44s-.78.45-1.2.67-.81.41-1.23.59a1.12,1.12,0,0,1-.78.13c-.12-.05-.13-.21,0-.49a1.58,1.58,0,0,1,.62-.8.36.36,0,0,0,.09-.51.28.28,0,0,0-.25-.15.77.77,0,0,0-.42.19l-.08.06-.32.24a.43.43,0,0,0,0-.11,1.14,1.14,0,0,0-.52-.46,1.85,1.85,0,0,0-.86-.2,2.85,2.85,0,0,0-1.41.41,5.6,5.6,0,0,0-.62.42l-.44.22-1.33.6c-.46.2-.93.4-1.45.58s-.87.3-1.32.43a3.92,3.92,0,0,1-1,.16c-.21,0-.31-.05-.33-.15a1.28,1.28,0,0,1,.37-.84,9.83,9.83,0,0,1,.7-.72.15.15,0,0,0,.11-.07c.05-.08,0-.19-.07-.39a2.54,2.54,0,0,1-.58-1.32l.86-.65c.48-.34.82-.6,1-.77l.55-.45.35-.28a1.58,1.58,0,0,0,.6-.84.43.43,0,0,0,0-.38.29.29,0,0,0-.24-.13,2,2,0,0,0-1,.18A5.64,5.64,0,0,0,318,427a5.2,5.2,0,0,0-1,1,2.59,2.59,0,0,0-.58,1.19l-.07.19-.43.29-.55.38-.58.39-.14.09a.33.33,0,0,0-.23.11l-.3.22h0a4.47,4.47,0,0,0-.43.3v0c-.25.17-.51.34-.79.51-.62.4-1.31.82-2,1.27l-.93.55c-.47.28-1,.57-1.45.85-.89.53-1.71,1-2.52,1.54l-.57.38a32.81,32.81,0,0,0,2.24-3.2c.59-1,1.06-1.79,1.41-2.39a.34.34,0,0,0-.14-.49.49.49,0,0,0-.24-.07.25.25,0,0,0-.23.13c-.39.39-.78.76-1.19,1.12a14.39,14.39,0,0,1-1.31,1.07,6.89,6.89,0,0,1-1.17.71c-.3.14-.5.16-.63,0s-.18-.21,0-.5a2.86,2.86,0,0,1,.7-.81,3.84,3.84,0,0,1,.44-.32l.4-.26,0,0,.48-.29a12.82,12.82,0,0,1,1.81-.78.5.5,0,0,0,.28-.47v-.05c-.07-.14-.23-.21-.47-.21h0c-.52.21-1.07.47-1.61.74a10.2,10.2,0,0,0-1.06.63c-.18.11-.4.23-.69.37s-.89.39-1.32.54-.84.27-1.35.41a3.31,3.31,0,0,1-.74.11,3,3,0,0,0,.27-.3,5.8,5.8,0,0,0,.55-.84,3.21,3.21,0,0,0,.35-.93,1,1,0,0,0-.16-.85.5.5,0,0,0-.23-.16.55.55,0,0,0-.18,0h-.12a1.53,1.53,0,0,0-.89.35,3.56,3.56,0,0,0-.49.46.43.43,0,0,0,0-.05.25.25,0,0,0-.28-.2.88.88,0,0,0-.28,0,4.64,4.64,0,0,0-1,.54,5.63,5.63,0,0,0-.72.65l-.31.16c-.53.24-1.11.47-1.73.69-.77.26-1.42.47-2,.65a11.9,11.9,0,0,1-1.92.44,5,5,0,0,1-1.44,0c-.33-.05-.51-.19-.53-.44a2.09,2.09,0,0,1,.22-.76,2.9,2.9,0,0,1,.46-.77,19.35,19.35,0,0,0,2.74-1.68c.89-.64,1.75-1.31,2.58-2,.5,0,1.05,0,1.65,0s1.16.06,1.67.11a1,1,0,0,0,.29,0c.25,0,.4-.06.44-.19a.38.38,0,0,0-.2-.43l-.27-.08-2.76-.21c.5-.45.93-.86,1.29-1.24a2.35,2.35,0,0,0,.67-1.08.46.46,0,0,0-.12-.3.42.42,0,0,0-.37-.19,2.44,2.44,0,0,0-1,.33c-.4.22-.83.49-1.27.79s-.81.56-1.29.92-.7.55-.93.74c-.84,0-1.72,0-2.77.07-.89,0-1.67.09-2.31.17a.68.68,0,0,0-.23,0,.37.37,0,0,0-.25.36.29.29,0,0,0,.38.3h0l.3,0a19.34,19.34,0,0,1,2-.13l2,0c-.66.65-1.2,1.2-1.64,1.68a17.71,17.71,0,0,0-1.18,1.45l-1.41.81,0,0h0a11.74,11.74,0,0,1-1.25.51c-.41.14-.84.28-1.34.41a3.31,3.31,0,0,1-.74.11c.07-.08.16-.17.26-.3a5.84,5.84,0,0,0,.56-.84,3.5,3.5,0,0,0,.34-.93,1,1,0,0,0-.15-.85.47.47,0,0,0-.42-.18h-.11a1.58,1.58,0,0,0-.9.35,4.16,4.16,0,0,0-.48.46s0,0,0-.05-.09-.2-.27-.2a1,1,0,0,0-.29,0,5.19,5.19,0,0,0-1,.54,5.58,5.58,0,0,0-.46.39,8.93,8.93,0,0,1-1,.51l-1.14.52-.65.3-.47.21-.2.1c-.27.12-.5.22-.7.29a2.77,2.77,0,0,1-.81.27h0a1,1,0,0,1,.22-.42c.18-.25.4-.54.67-.88a1.31,1.31,0,0,0,.38-.92.78.78,0,0,0-.85-.68,2.56,2.56,0,0,0-1.12.21,11.47,11.47,0,0,0-1.38.61c-.53.26-1,.51-1.37.74l-.54.33.79-1.42c.57-.41,1-.74,1.41-1l.68-.45a19,19,0,0,0,4.41-3.35c.53-.64.77-1.13.72-1.48a.57.57,0,0,0-.23-.39.94.94,0,0,0-.89-.09,5.44,5.44,0,0,0-1,.46c-.32.21-.67.44-1,.7l-.13.09a12.2,12.2,0,0,0-1.33,1.11,21.74,21.74,0,0,0-1.72,1.85,19.8,19.8,0,0,0-1.45,2l-.15.1-.67.45c-.26.17-.53.33-.81.49,0,0,0,0-.05.05a11.15,11.15,0,0,1-1.26.66l-1.74.78-.13,0,.16-.23a2.86,2.86,0,0,0,.49-1.22,1,1,0,0,0-.53-1,1.41,1.41,0,0,0-1.26.15,12,12,0,0,0-1.49.95,1.06,1.06,0,0,0,0-.25v-.45a.3.3,0,0,0-.3-.32h0a.43.43,0,0,0-.4.28,1.4,1.4,0,0,1-.54.57c-.31.2-.53.35-.69.43a.49.49,0,0,0-.17.14l-.57.3H214.78V363.15h184Zm-52.55-.64a3.1,3.1,0,0,1,.52-.59,1.45,1.45,0,0,1,1-.4h.17a.75.75,0,0,1-.23.31l-.11.08-.07,0a.45.45,0,0,0-.2.06,9.32,9.32,0,0,1-1,.52Zm-6.2-2.25a18.67,18.67,0,0,1,1.6-1.85,14.44,14.44,0,0,1,2.89-2.29,4.85,4.85,0,0,1,.9-.5.91.91,0,0,1,.22-.05h0c.09.16-.12.45-.32.66a14,14,0,0,1-1.33,1.22c-.54.45-1.12.88-1.78,1.33l-1.5,1Zm-45.35-1.72c-.5.37-1,.72-1.51,1.06l-1.6,1.1c.55-.59,1-1,1.24-1.29s.58-.54.79-.72l.16-.15Zm-.12-.75a16.31,16.31,0,0,1,1.68-1.16,10.65,10.65,0,0,1,1.22-.67c-.18.21-.41.45-.67.71s-.78.73-1.23,1.12ZM275,428.93a18.81,18.81,0,0,1,1.59-1.85,14.51,14.51,0,0,1,2.9-2.29,4.53,4.53,0,0,1,.9-.5.91.91,0,0,1,.22-.05h0c.09.16-.13.45-.32.66a15.66,15.66,0,0,1-1.33,1.22c-.54.45-1.12.88-1.78,1.33l-1.67,1.15Z" transform="translate(-210.02 -321.87)"></path><rect class="cls-1" y="150.56" width="192.52" height="2.23"></rect><rect class="cls-1" x="1" width="192.52" height="2.23"></rect></svg>