<svg xmlns="http://www.w3.org/2000/svg" id="&#x421;&#x43B;&#x43E;&#x439;_1" data-name="&#x421;&#x43B;&#x43E;&#x439; 1" viewBox="0 0 209.66 152.86"><defs><style>.cls-1{fill:#e0b159;}.cls-2{fill:#fff;}</style></defs><path class="cls-1" d="M332.54,374.49c-.72-.85-1.39-1.53-2-2.14a31.12,31.12,0,0,1,2,2.44C333,375.25,332,374,332.54,374.49Z" transform="translate(-192.81 -344.52)"></path><path class="cls-1" d="M331.32,373.67c-.52-.52-1.06-1.13-1.66-1.82l1.89,2.27C331.67,374.2,332,374.47,331.32,373.67Z" transform="translate(-192.81 -344.52)"></path><polygon class="cls-1" points="130.55 20.89 130.63 21.02 130.68 21.02 130.55 20.89"></polygon><path class="cls-1" d="M331.64,374.26a10.85,10.85,0,0,0,1.07,1.18l-1.16-1.32C331.49,374.09,331.48,374.09,331.64,374.26Z" transform="translate(-192.81 -344.52)"></path><path class="cls-1" d="M331.25,374.38l.83,1.12v-.1c1,1.22.78.93,1,1.05a10.19,10.19,0,0,0-.86-1.07Z" transform="translate(-192.81 -344.52)"></path><path class="cls-1" d="M323.61,365.19s-1.42-.79-1.42-.79l1,.71Z" transform="translate(-192.81 -344.52)"></path><polygon class="cls-1" points="127.82 18.25 127 17.75 127.59 18.34 127.82 18.25"></polygon><path class="cls-1" d="M217,451l-.54.12C216.87,451.21,217.1,451.2,217,451Z" transform="translate(-192.81 -344.52)"></path><path class="cls-1" d="M232.23,355.89l.89.64a3.82,3.82,0,0,1,1.94-.91C233.53,355.52,231.53,355.11,232.23,355.89Z" transform="translate(-192.81 -344.52)"></path><path class="cls-1" d="M209.29,410.89a4.91,4.91,0,0,0,1-1.27Z" transform="translate(-192.81 -344.52)"></path><path class="cls-1" d="M240.09,476.2c-1-.79-.87,0-1.24.32l.61-.14Z" transform="translate(-192.81 -344.52)"></path><path class="cls-1" d="M286.92,347.39a17.22,17.22,0,0,0-2.53-.86C285.6,347.11,286.53,347.77,286.92,347.39Z" transform="translate(-192.81 -344.52)"></path><path class="cls-1" d="M207.25,460c.47.35.8.42,1,.27C207.81,459.94,207.44,459.79,207.25,460Z" transform="translate(-192.81 -344.52)"></path><path class="cls-1" d="M284.39,346.53a4.42,4.42,0,0,0-3-.36l.54.2A9.75,9.75,0,0,1,284.39,346.53Z" transform="translate(-192.81 -344.52)"></path><path class="cls-1" d="M308.37,354.67c.68.35.12,0,0,0Z" transform="translate(-192.81 -344.52)"></path><path class="cls-1" d="M273.69,349.72h-.07C273.85,349.84,273.81,349.82,273.69,349.72Z" transform="translate(-192.81 -344.52)"></path><path class="cls-1" d="M309.32,355.36l-.82-.56A8.08,8.08,0,0,0,309.32,355.36Z" transform="translate(-192.81 -344.52)"></path><path class="cls-1" d="M309.25,355.15l.58.35C309.94,355.49,309.88,355.42,309.25,355.15Z" transform="translate(-192.81 -344.52)"></path><path class="cls-1" d="M307.41,354.17c.39.21.75.42,1.09.63-.13-.09-.17-.14-.13-.13Z" transform="translate(-192.81 -344.52)"></path><path class="cls-1" d="M285.48,492.32l.16,0C286.35,492,286,492.12,285.48,492.32Z" transform="translate(-192.81 -344.52)"></path><path class="cls-1" d="M226.82,376.27s0-.06,0-.1l-.09.06Z" transform="translate(-192.81 -344.52)"></path><path class="cls-1" d="M332.83,466.37c-3,3.8-7.18,7.47-10.45,10.5l.35-.17c-2.86,2.57-2.55,1.74-5.89,4.28l.11-.12a11.36,11.36,0,0,1-2.55,1.79c.83-.67-1.91.7-.8-.14-3.46,2.25-1.63,1.24-3.78,3l-.71,0a8.89,8.89,0,0,1-2.61,1.71h0c1.43-.94-1.42.13.19-1a18.19,18.19,0,0,0-2.72,1l-1.06.44c0-.13-.46-.13-1.41.11.5,0,1.06,0,.45.29l-.05,0a11.48,11.48,0,0,1-1.74.68l.92-.51-1.06.54a3.34,3.34,0,0,1-1.41,0c-1.59,1.57,3.77-.68,2.77-.13,1,0-1.33,1.2-2.68,1.58s-2.7-.61-6.08.15c.34-.07.35-.16.68-.23-1.34-.06-2.38,1-4.08.68-.76.81-2.07.18-2.17,1.15l1.69-.32.31.12a10.7,10.7,0,0,1-5.23,1.25,6,6,0,0,1,1.66-.84c-.91-.21-1.65.46-2.59.16.16-.94,3.84-.66,5.65-1.56-.79-.24-2.53.57-2.81.33a1,1,0,0,1,.49-.41l-.41,0,0,0,0,0c-1.06.09.81-.45-.52-.68a5.73,5.73,0,0,1,1.05-.21,9.06,9.06,0,0,1-1.06-.23l.05,0h0c.1.08.13.12,0,.08h0a.61.61,0,0,1-.06.24c-.59-.1-.11-.16.06-.24,0,0,0-.06,0-.09h0l-1.94.4a6.28,6.28,0,0,0,1.88-.07c-.23.56-1,.9-.64,1.41a6.62,6.62,0,0,1-1.21.12,15,15,0,0,0-1.52-.06,7.36,7.36,0,0,0-.85-1.35c0,.27,0,.51-1,.89a6.75,6.75,0,0,0,1.16.55,3.79,3.79,0,0,0-1,.33l.12-.64a6.27,6.27,0,0,1-1.8.4l1.2-.85c-1.34.52-2.62,0-3.89-.31a2.61,2.61,0,0,1,1.81-.24c-.59-1-.29.13-1.2-1.13.74,1.47-2.72-.07-2.06,1.2h0c-.81-1.22-1.49-.6-2.54-1.94,0,.37.38.76-.64.43a1.05,1.05,0,0,1-.25.3l-.06,0,.05,0c-.05.05-.05.06,0,0a1.65,1.65,0,0,1,.5.63c0,.07-.14.09-.2.14a8.42,8.42,0,0,0-2.21-.36,3.21,3.21,0,0,1,1.74.67,5.88,5.88,0,0,1-.75.19,6.06,6.06,0,0,1-2.3-1.19,6.18,6.18,0,0,0-.62-.09c-.12-.31-.07-.55.6-.66l-1.27-.29a2.8,2.8,0,0,0-2.32-.86c-.55-.35-1.66.61-1,0l-2.06.07,0-.24c-1.84-.62-4.36.3-5.95-2.13a3.54,3.54,0,0,1-2.36-.72l.12-.91c-.89-.05-2-1.84-2.62-1.19.24-2.73-3.34-2.32-4.34-3.61l-.65,1.05a3.88,3.88,0,0,0-.58-.28c-1.22-1.27-4.18-1-5.76-2.7a2.06,2.06,0,0,0-.07-.29l0,0h0c-.27-1.26-1.23-1.58-2.27-1.83l-.41-.09a8.92,8.92,0,0,0-2.91-2.39.43.43,0,0,0,0-.11.2.2,0,0,0,.13,0,.87.87,0,0,0-.13-.15c0-.3,0-.63,0-.93a2.63,2.63,0,0,0,0,.86,2.91,2.91,0,0,0-.58-.38l.05-1.32a1,1,0,0,1,.57.84c.18-1.21.73-2.83,0-1.91l-.53.8,0-.45c-1-.64-.88.31-1.08,1-.09.13-.17.28-.25.42s-.51.21-1,0c.63-1.32-1.62-.34-.48-2.25a.84.84,0,0,1-.38.08c.26-.25.49-.51.41-.83-1.37-.3-4.18-.72-4.54-3.41.75.35.92,1,1.48,1.41l-.34-2c2.57.48,3,2,3.1-.18-1.34,1.05-2.56-.07-3.54-1.36s-2-2.58-3.52-1.63l0-1.36c.15.28.36.2.51.48.14-2.14-1.8-.89-3.16-1.54-.32-.62-.7-1.29-1.09-2,0-.55.2-.9.69-.65l-1.6-1.23c-.1-.23-.16-.48-.24-.72.13-.08.3,0,.46.16-.16-.23-.44-.72-.73-1.23a5.27,5.27,0,0,1-.07-1.32,5.38,5.38,0,0,1-.48.33l-.32-.56.12,0a1.21,1.21,0,0,1-.25-.08c.17-.59.25-1.17-.82-.71.63-.53.83-1.14,1.69-.95a1.87,1.87,0,0,1-.64-.91.6.6,0,0,0-.14-.78c-.07-.63-.21-1.15-1.33-1.32a.78.78,0,0,1,0-.14c.57-.3,1.06-.06,1.39-.37a2.06,2.06,0,0,1-.4-.15,5.62,5.62,0,0,0,.43-.55c.2,0,.4.15.63.21a1.35,1.35,0,0,0-.45-.52c.7-1.33,0-2.31.59-4.13-.56.58-2,4.74-3.55,3.18a2.2,2.2,0,0,0-1.12-2.18c1.31-.42.75-1.34.36-2.61l1.79-.39c-.84-1.22-1.72-.89-2.73-1.52-.21-1.6,1.09-2.2,2.25-2.8-.05-2.52-2,2.17-2.77-.74.46-2.24-.7-3.53-1.92-6,.57-1.56,1.14.17,1.65-.41L209.57,426c0-.33.48-.25.71-.21a1.1,1.1,0,0,0-.85-.56,3.68,3.68,0,0,0,1.23-.88c.25-.18.43.24.64.46,1.63-2.06-1.85-.15-2.33-1.66,1-.3,2.5.27,2.64-.72.75-.44-3-2.82-1.36-4.19a.68.68,0,0,0,.2,0c-.51-1.14-.78-1.8-1-2.32.46-.66.65-1.32-.43-1.9a1,1,0,0,1,.6-.13c-.32-.55-.53-1.47-.89-2.28l.57-.72a1.61,1.61,0,0,1-.74.35,2.42,2.42,0,0,0-.77-.9c1.2,0,1.69-.36,1.84-.88,0,0,.06,0,.09-.06h-.08a3.38,3.38,0,0,0-.18-1.62l1.5-.13-.76-.33,2.12-3.21c-.2-.42-.42-.86-.62-1.29.36-1.26-.35-2.07-1-2.86.4-.28.68.11.87.21a10.72,10.72,0,0,0,.86-1.19,3.24,3.24,0,0,1-.37,1.51c.56-1,1.27-.48,1.45-.12l-.31-4.22c1.28.63,1.24-.36,2.23-1-.89-.14-1.24-.53-1.36-1a8,8,0,0,0,1.46-1.72,1.69,1.69,0,0,1-.12.28c1.26-.42,1-1.3.58-2.22,0,0,0-.09,0-.13a1.06,1.06,0,0,1,.4.5c0-2.95,5.21-3.72,3.11-6.49l0-.07c.54-.89,1.16-1.81,1.62-2.75a10.51,10.51,0,0,0,.87-2.21c.31-.41.64-.78,1-1.17a15.2,15.2,0,0,1,1,1.3s-.18-.59-.36-1.42c0-.16-.07-.36-.11-.53.35-.4.72-.78,1.09-1.15l.19.38c.51,1,1,2,1,2-.38-1.71.17-2.07.91-2.48l-1.3-.68c.32-.3.61-.63.95-.9l.29-.26a2.15,2.15,0,0,1,.15,1.78,4.22,4.22,0,0,0,2.08-2.44,2.21,2.21,0,0,1-1.14-.3l1.08-1,.69-.6a14.68,14.68,0,0,1,1.6-.26c-.24.07-.52-.14-.77-.46.3-.25.62-.5.9-.78l-1.43-.84.63-.54c.55.65,1.41,1.56,1.32,1.93,0,0,.05-.56.12-1.28a2.31,2.31,0,0,0,.17-1.47c0-.19.06-.36.09-.53a1.62,1.62,0,0,1,.3-.09,2.73,2.73,0,0,0,.56.57c0,.58-.27,1.35,0,1.14,0,0,.52-.7.54-.69h-.27a1.93,1.93,0,0,0,0-.23,4.18,4.18,0,0,0,1.31.55c-.56-.22,2-1.57,2.5-2.28l-1.35.3a3.42,3.42,0,0,0,1.36-1.67l0,0h0a12.49,12.49,0,0,0,.48-2.2,11.33,11.33,0,0,0,2.34-1.32c.41.76,1.07,1.4,2,1,0-.46,0-1.39.08-2.45a2,2,0,0,1,1.12-.47,5,5,0,0,1,2.22-2.11c-.68,1.69-1.36,3.32-1.84,4.36,1.38-.11.71.58,2.33-.37.88.28-.43,1.38-.89,1.68l4-1.7c-.38-.6.2-1.32.82-2s1.33-1.21,1.05-1.71l-.62.49a10.59,10.59,0,0,0-1.3,1.16l-1.79,1.8c-.6-.84.09-3.25,1.81-4.77a1.87,1.87,0,0,1,1.36.21c-.64-.3.24-.78,1-1.27.68.44.13,2.41.36,2.78.19-.59,2.47-2,2.84-1.77l-1,1.18c1.73-.23,2.11-2.77,4.51-2.15.74-.13,2.47.91,2.41.16a6.14,6.14,0,0,1-1.68-2.62,17.15,17.15,0,0,0,2.19-.65c0-.2-.46-.39-.07-.81l.18-.06,1.66.52c.48-.24.43-.94,1.14-.89-.25.9-1.38,2-.52,2.52,0-.32.57-.83.83-1,.81.12-.15,1,1.48.57.1-1.2,3.4-.54.64-1.11,1.61-.57,1.77-.18,3.71-.39-.44-.42.29-1.3,1.32-2l2.09-.28.2,0,.2.17c.88,0,1.66,0,2.38,0s1.38.18,2,.26a39.55,39.55,0,0,0,4.21.41c.28.23,1.81.57,1.11.91a4.34,4.34,0,0,1,1.92-.23c1.81,1-2.21-.17-.87.92.18-.49,2.63-.37,4.09-.47-.31-.78-3.25-.61-4.68-.47.1-1.1,2.72-1.85,6.25-1.67,2.76.34,1,.89,1.54.84a11.79,11.79,0,0,0,4.69.63,6,6,0,0,1,3.91,1.09c1.43,1.12-.27,1,0,1.49-2.13-.63-3.12-1.46-4.6-1.82l1.73.73a8.4,8.4,0,0,1-2.95-.6c1.26.71,8.28,2.53,11.66,4.62.7.16,1.85.55,1.41.15l-1.15-.49c-.89-.84,2.32.6,1-.26,1.58.59,3.56,1,5.44,2.5l.16.61a5.48,5.48,0,0,0-1.82-1.29c.94.37,2.79,2.43,4,2.54L313.81,359c1.52.76,3.6,1.46,5.14,3-.55-.89-.4-.27-1.35-1.57.8,1.19-4.53-3.05-3.09-1.36-1-1.3-2.08-1.77-3.63-3.2,0,.16.5.6-1.05-.32a2.35,2.35,0,0,1-.41-.07l-.1-.07.08.07c-.08,0-.09,0,0,0a4,4,0,0,1,.7.64c-.95-.1-3.47-1.42-4.4-1.67-.91-.57.47,0,0-.42a11,11,0,0,0-1.43-.32c0-.4-2.37-1.7.05-.94l-2.1-.91a13.89,13.89,0,0,0-4-1.83c-1-.43-2.74-.32-1.74-.39l-3.51-.77v-.13a26,26,0,0,0-5.39-1,30.73,30.73,0,0,1-5.76-1.37,18.67,18.67,0,0,1-4.45-.28l-.39-.6c-1.54,0-4.7-.67-5.35-.1-.88-.75-2.84-1.07-4.88-.75a55.51,55.51,0,0,1-5.62.7l.07.88a24.37,24.37,0,0,0-5.84,1.72l.08.17-.51.1a22,22,0,0,0-4.48,1.67,17.61,17.61,0,0,0-2.94.69c.08-.4.9-.56,1.52-.54a6.14,6.14,0,0,0-3.06.29,12.94,12.94,0,0,0-2.58,1.58l-.38.28s0-.05,0-.09l-.39.35a8.44,8.44,0,0,1-4.35,2,2.51,2.51,0,0,1-1.85,1,.46.46,0,0,0,.16-.15,2.61,2.61,0,0,0-.32.17c-.42,0-.88.06-1.34.13a4.44,4.44,0,0,0,1.18,0,13.17,13.17,0,0,0-2.14,1.66l-1-.71-.18.14c-1.1.14-.4.83.52,1.26a3.67,3.67,0,0,0-.72,1.28c-.78-.48-1.21-.09-1.65.37a2.89,2.89,0,0,0-1,.45c.2-.13.11-.26.31-.39-.49,0-.73.38-1,.73a1.78,1.78,0,0,1-.45-.12,1.48,1.48,0,0,1-.34.77,1.32,1.32,0,0,1-.64.15,1,1,0,0,1,0,.66l-.71.82a5.44,5.44,0,0,0-.93,1.91c-.18.26-.34.54-.77.55-1-1.4,1.73-2,1.93-3.82-1-.16-1.14,2.55-1.84.71.84,2.39-2.05,1.3-2,3.7l-.66-.84a2.8,2.8,0,0,1-.49,1.3s-.09-.39-.19-.79-.15-.77-.15-.77c-.15,1.72-2.59,1-3.07,2.39,1.9-1.9,1.38.48,2.75.24-.47,1.31-1.11,1.47-1.84,1.39a1.62,1.62,0,0,1,0-.22,1.72,1.72,0,0,1-.07.21c-1.06-.14-2.32-.74-3.57.78.46-.38,1.6-.58,1.46.18a4.88,4.88,0,0,1-2.33.74c-1.45,2,1.14.46,1,1.69-1.62-.24-.35,1.26-.66,2.34l-.93-.71c-2.4,1.67,1.45,2-.73,3.44l-.73-1.81-.42,1.3-.95-1c0,1.74-.48,1.94-1.63,2.87a1.7,1.7,0,0,1,1.29,1.7l-.48.69c-.74,0-.56-.9-1.24.51-.45-.72-1.07-1.63.35-1.64-.29-.28-.42-.73-.7-1-1.28.28-1.45,1.83-1.77,2.38a1.17,1.17,0,0,1,.61-.44l.17,3c-.61.12-.78-.34-.94-.79-.15.51.17,1.09-.12,1.79-.8-.65-1.75-1.11-1.6-2.28l-.28,2.65c-.49-.07-1.68.57-1.87.11-1.2,1,.29,3.89-1.25,5.18a1.05,1.05,0,0,1,.22.81c-.84,1.48-2.65,2.46-2,4.84l-2.25.48c-.08,1.29,1.67.14,2.38.88a3.32,3.32,0,0,0-.45,2c-.58-.09-1.33-.52-1.73-.25.24.45.61,1,.86,1.59a.53.53,0,0,1-.3.56c-.54.2-.52-.64-.71-1.23a3.86,3.86,0,0,0,.07,2.32l-1,.7c-1.29-1.95-.34-3-2.19-2.12,3.55,1.08-1,5.2,2.79,6.11l-1,.7c.08-.23-.13-.31,0-.55-2.13,1.36,2.49,1.7,1.63,3.69-.4.68-1,1.13-1.41.57l.74,1.76a.34.34,0,1,1-.66-.19l0,1.28,0,1.28-.12,0a16.29,16.29,0,0,1,1.85,1.68c-.6.6-.4-.34-.89-.2l.87,1.42c-1,.53-2-.66-1.76-1.63-4,1.14.88,1.19-1.45,4l-.47-1.36c-2.25.84-1.46,1.93-2.83,3.54.7-.43,3.5-3.14,4.46-1.59-.3.43-.45,1,.37,1.82-1.39,0-1,.85-.91,1.86l-1.86,0c.6,1.09,1.53.94,2.41,1.53-.09,1.22-1.5,1.61-2.68,2-.09,2,2.15-1.59,2.75.7-.53,1.71.38,2.79,1.81,4.48-.43,1.23-1.15,0-1.61.51l1.65.71c0,.25-.45.26-.68.27.73.71,1.84-.3,2.6.87a.65.65,0,0,1,.39.08,2.61,2.61,0,0,0,.09.57c-.31.85-1.45,2.32-.7,3.19l-.51.72a1.77,1.77,0,0,0-.67.13l.36.32a3,3,0,0,0-.59,1.44c-.17.38-.53-.38-.84-.78-.66,4.23,1.88,0,3,2.66-.77.79-2.59.06-2.15,2-.33,1.22,4.84,4.25,4.25,7.28.41-.81.84-1.59,1.91-.66a1,1,0,0,1-1,.43l1.4.88,0,0c.34,2,.09,4.91,2.44,5.28a.73.73,0,0,1-.3.58c1,.79,2.52,2.55,3.84,3.38.24.33.51.66.79,1-.55,1.2.28,2.29,1.41,3.28l-.21.09.27,0c.36.32.74.62,1.12.91l.13.1-1.56.66c1.7-.31,1.82.13,1.95.79l.6-.67c.27.22.51.43.73.63a2,2,0,0,1-1.32.12,2,2,0,0,0,1.55,1.73,2.28,2.28,0,0,1,.46-.88,1.11,1.11,0,0,1-.49,1.23l3.4,3.26-.37.18a7,7,0,0,0,1.84,1.6,1.25,1.25,0,0,0,.53.37l0-.11a6.37,6.37,0,0,0,2.5.42c.34.64-.27.57-.44.68.18.24.35.43.52.64a1.25,1.25,0,0,0-.39,0,2.61,2.61,0,0,0,.4,0,12.37,12.37,0,0,0,1.85,1.89l-.06,0c.28,1.08-.46.93.68,1.71-.11.92-1.37.49-1.74.28l2.29,2.37c.94-1.45,3,.06,3.8-1.21,0,0-1-.08-1.93-.26l-1.94-.34a4.38,4.38,0,0,1,1.86-1.35c.58.12,1.23.23,2,.37l-.37,1.16a2.41,2.41,0,0,1,1,.61,4.81,4.81,0,0,0-.75.72,2.64,2.64,0,0,1,1.75.17c.18.17.38.34.59.52l-1.29.24c.39.64,1.2.39,1.94.33.44.38.94.75,1.45,1.12.32.49.24,2.45.8,1.69a4.73,4.73,0,0,1,.23-1,10.31,10.31,0,0,0,2.54,1.05.74.74,0,0,0,.26.37.85.85,0,0,1-.25,0c2.51.38,4.74,2.33,7,3.48s4.31,1.82,5.66.44a8.63,8.63,0,0,0,1.25,0,1,1,0,0,0,0,.23c0-.1.15-.16.23-.23l1.74,0a7.15,7.15,0,0,1-1-.35c.62-.15,1.37-.21,2-.35-.27.44.08.77.69,1.05-.51.25-1.61.46-.24.73.14-.2.78-.28.86-.48,1.38.47,3.23.81,3,1.38,7.83,1.22,15.59,1.85,23,.88,0,0-.93-.78-.93-.81s2.53-.38,2.53-.38c.68.09,1,.54-.83.85,1,.32,3-1,3-1.2,3.59-.32-1.2,1.27-.12,1.09l1.46-.36-.35,0a9.91,9.91,0,0,1,3.3-1.45c1.37-.23.8.28,1.33.16,0,.05.2,0,.82-.23l3.12-.87-1.4-.2c1.29-.66,2.89-.84,1.29-1,1.18.17,4-.93,6.66-2s5-2.62,5.66-2.79c1.66-1.11,3.22-2.31,5.3-3.53-.55.26-1.07.08.71-1-.11.53.79.18,1.82-.56a18.81,18.81,0,0,1,3.08-2c-.69.33.46-.61,1.51-1.49s1.88-1.85.9-1.19c1.29-1.15.23.11,1.28-.69a86.72,86.72,0,0,0,9.13-10.1ZM213,395.47a1.28,1.28,0,0,0-.58,1c-.15-.37-.33-.78-.57-1.31ZM197.3,421.33c-.29-.37-1.2-1.14-.36-1.4C198.52,420.38,197.76,420.69,197.3,421.33ZM208.6,418c.46-.43.94.06,1.51.17a2.15,2.15,0,0,1-1.28.14A2.06,2.06,0,0,0,208.6,418Zm4.81,26.72c.05-.24.13-.51.18-.81.19.16.51.38.76.61C214.05,444.61,213.74,444.68,213.41,444.76Zm44,48.73-.22-.2c0-.75-.68-.88-1.46-.81.27-.17.38-.37,0-.63C257.19,492,259.28,493.78,257.39,493.49Zm5.95-3,.14-.82-.32-.1c.52-.28,1.07-.35,1.93.33a.93.93,0,0,1,.05.1A5.38,5.38,0,0,1,263.34,490.53Zm12.88,1-.58.21a.63.63,0,0,0,.15.35,6.85,6.85,0,0,1-1.06,0l-.65-.51c.5-.23,1-.58,1.61-.85C276.62,490.92,276.24,491.22,276.22,491.52Z" transform="translate(-192.81 -344.52)"></path><path class="cls-1" d="M300.57,351.4h-.06C299.4,350.74,299.79,351,300.57,351.4Z" transform="translate(-192.81 -344.52)"></path><path class="cls-1" d="M274.37,490.46a.83.83,0,0,0,.09.2c0-.08-.09-.13-.13-.2Z" transform="translate(-192.81 -344.52)"></path><path class="cls-1" d="M273.31,491.42h0l0,0Z" transform="translate(-192.81 -344.52)"></path><path class="cls-1" d="M265.34,488.69l0,0C264.65,488.2,264.87,488.41,265.34,488.69Z" transform="translate(-192.81 -344.52)"></path><path class="cls-1" d="M238.73,476.55l-.1,0,.05.06s0,0,.07-.05a.82.82,0,0,1,.11.23c-.05-.07-.13-.11-.18-.18a.84.84,0,0,1-.28,0c-.08-.06-.15-.14-.24-.2A.36.36,0,0,1,238.73,476.55Z" transform="translate(-192.81 -344.52)"></path><path class="cls-1" d="M215.78,445.46l.16.24A.28.28,0,0,1,215.78,445.46Z" transform="translate(-192.81 -344.52)"></path><path class="cls-1" d="M215.1,444.48h-.2a2.13,2.13,0,0,1,0-.25Z" transform="translate(-192.81 -344.52)"></path><path class="cls-1" d="M213.12,395.41a.39.39,0,0,1,0-.28l.34.13A1.18,1.18,0,0,0,213.12,395.41Z" transform="translate(-192.81 -344.52)"></path><path class="cls-1" d="M246,356l-.4,1C245.46,356.7,245.46,356.28,246,356Z" transform="translate(-192.81 -344.52)"></path><path class="cls-1" d="M198.87,403.55a1.14,1.14,0,0,1,0-.71,2.83,2.83,0,0,0,.34.42A2.46,2.46,0,0,1,198.87,403.55Z" transform="translate(-192.81 -344.52)"></path><path class="cls-1" d="M240.49,490.1a1.48,1.48,0,0,1-.16-.34c.18.05.35.12.54.16A1,1,0,0,1,240.49,490.1Z" transform="translate(-192.81 -344.52)"></path><path class="cls-1" d="M254.79,493.48c-.38-.29-.06-.5.34-.69C255.54,493.53,255.2,493.5,254.79,493.48Z" transform="translate(-192.81 -344.52)"></path><path class="cls-1" d="M259.17,489.45c.54.07.66.31.63.56a6.8,6.8,0,0,1-1-.4Z" transform="translate(-192.81 -344.52)"></path><path class="cls-1" d="M289.25,491.85l0-.12c.41,0,.57-.07.66-.16l.33-.06A6.74,6.74,0,0,0,289.25,491.85Z" transform="translate(-192.81 -344.52)"></path><path class="cls-1" d="M294.05,494.5h-.52C294.59,494,294.31,494.26,294.05,494.5Z" transform="translate(-192.81 -344.52)"></path><path class="cls-1" d="M218,453.92c.06.09.1.15.11.14S218,454,218,453.92Z" transform="translate(-192.81 -344.52)"></path><path class="cls-1" d="M264.23,354a2,2,0,0,1-1-.25C263.22,354,263.47,354.1,264.23,354Z" transform="translate(-192.81 -344.52)"></path><path class="cls-1" d="M315.24,358.69l-1.42-.86a7.8,7.8,0,0,1,1.19.93C315,358.68,314.81,358.41,315.24,358.69Z" transform="translate(-192.81 -344.52)"></path><path class="cls-1" d="M325.4,368.87l.56.48,0-.12C325.23,368.55,324.65,368.14,325.4,368.87Z" transform="translate(-192.81 -344.52)"></path><path class="cls-1" d="M317.64,361.7c.47-.08-.56-.76-1.67-1.28-.05.31.93.69,1.83,1.4Z" transform="translate(-192.81 -344.52)"></path><path class="cls-1" d="M318,362l.84.64C319,362.6,318.54,362.34,318,362Z" transform="translate(-192.81 -344.52)"></path><path class="cls-1" d="M306.72,353.76c.74-.14-3.49-1.24-.7-.05C306.47,354.06,306.5,353.48,306.72,353.76Z" transform="translate(-192.81 -344.52)"></path><polygon class="cls-1" points="123.49 17.09 123.31 16.62 122.63 16.5 123.49 17.09"></polygon><path class="cls-1" d="M310.22,357.8c0-.07.23,0,.5.1a11.68,11.68,0,0,0-2.09-1Z" transform="translate(-192.81 -344.52)"></path><path class="cls-1" d="M310.72,357.9a13.07,13.07,0,0,0,1.29.7A12.16,12.16,0,0,0,310.72,357.9Z" transform="translate(-192.81 -344.52)"></path><polygon class="cls-1" points="121.31 15.89 120.89 15.55 119.8 14.86 121.31 15.89"></polygon><path class="cls-1" d="M290.19,350.33l-2-.15c-.23.17.28.38,1,.41C289.71,350.52,290.46,350.57,290.19,350.33Z" transform="translate(-192.81 -344.52)"></path><path class="cls-1" d="M294.92,352.61l-.23.62,1,0A1.84,1.84,0,0,1,294.92,352.61Z" transform="translate(-192.81 -344.52)"></path><path class="cls-1" d="M290.06,352.09c-.23.17-2.9.23-.45.48C289.84,352.37,291.8,352.54,290.06,352.09Z" transform="translate(-192.81 -344.52)"></path><path class="cls-1" d="M241.55,364.54c.15-.75-1.64.42-1.46-.28-.8,1.22-1.55,1.32-.2,2.28C242,365.81,239.55,365.05,241.55,364.54Z" transform="translate(-192.81 -344.52)"></path><path class="cls-1" d="M240.09,364.26a4.56,4.56,0,0,0,.39-.67A2.59,2.59,0,0,0,240.09,364.26Z" transform="translate(-192.81 -344.52)"></path><path class="cls-1" d="M215.29,440.55l.77-1.29-.45,0C215.19,439.61,215.23,439.93,215.29,440.55Z" transform="translate(-192.81 -344.52)"></path><polygon class="cls-1" points="28.87 111.78 28.75 111.49 27.69 112.85 28.87 111.78"></polygon><path class="cls-1" d="M230.66,466c1,.89.28,2.74,1.43,1.33C231.68,466.82,231,466.48,230.66,466Z" transform="translate(-192.81 -344.52)"></path><path class="cls-1" d="M303.49,487.13l-.16,0-.65.11C303,487.39,302,487.54,303.49,487.13Z" transform="translate(-192.81 -344.52)"></path><path class="cls-1" d="M303.33,487.11c.66-.14-.49-.09,0,0Z" transform="translate(-192.81 -344.52)"></path><path class="cls-1" d="M300.35,487.28c-.87.25-.64.37-.06.52l.82-.36C300.88,487.34,300.09,487.43,300.35,487.28Z" transform="translate(-192.81 -344.52)"></path><path class="cls-1" d="M299.59,488.4l.42-.18C299.92,488.18,299.79,488.18,299.59,488.4Z" transform="translate(-192.81 -344.52)"></path><path class="cls-1" d="M300.44,488.07c0,.2.11,0,.48-.21l-.91.36C300.17,488.3,300.24,488.49,300.44,488.07Z" transform="translate(-192.81 -344.52)"></path><path class="cls-1" d="M294.73,488.23c0,.17.4.39.51.59l.61-.27C295.49,488.49,294.83,488.46,294.73,488.23Z" transform="translate(-192.81 -344.52)"></path><path class="cls-1" d="M295.24,488.82l-.91.41C295.21,489.14,295.34,489,295.24,488.82Z" transform="translate(-192.81 -344.52)"></path><polygon class="cls-1" points="98.69 143.57 97.84 144.28 98.23 144.03 98.69 143.57"></polygon><path class="cls-1" d="M286.72,488.67a2.63,2.63,0,0,1,1.89.11c.34-.39-.66-.62-.27-.87A3.53,3.53,0,0,0,286.72,488.67Z" transform="translate(-192.81 -344.52)"></path><path class="cls-1" d="M291.8,488.93l.48.46.38,0A1.21,1.21,0,0,0,291.8,488.93Z" transform="translate(-192.81 -344.52)"></path><path class="cls-1" d="M292.29,489.4h0l-.83.06Z" transform="translate(-192.81 -344.52)"></path><path class="cls-1" d="M297,489.28c-.51.34-1.64.83-.39,1C296.93,489.89,296.22,489.8,297,489.28Z" transform="translate(-192.81 -344.52)"></path><path class="cls-1" d="M293.36,489.89l1.06,0c-.05-.12-.28-.27,0-.44Z" transform="translate(-192.81 -344.52)"></path><polygon class="cls-1" points="100.08 145.59 100.55 145.37 100.16 145.38 100.08 145.59"></polygon><path class="cls-1" d="M287.76,489.59a3,3,0,0,1-1.44.41,7.79,7.79,0,0,0,1.8.05C288.18,489.86,288.38,489.53,287.76,489.59Z" transform="translate(-192.81 -344.52)"></path><polygon class="cls-1" points="88.13 145.62 88.22 145.74 88.23 145.63 88.13 145.62"></polygon><path class="cls-1" d="M288.24,490.14a1,1,0,0,0,.93-.27,7.63,7.63,0,0,1-1.05.18C288.1,490.13,288.1,490.18,288.24,490.14Z" transform="translate(-192.81 -344.52)"></path><path class="cls-1" d="M284.46,489.46a6.33,6.33,0,0,0,.8.31C285,489.59,284.53,489.3,284.46,489.46Z" transform="translate(-192.81 -344.52)"></path><path class="cls-1" d="M289.7,489.49l.06,0C289.6,489.35,289.62,489.41,289.7,489.49Z" transform="translate(-192.81 -344.52)"></path><path class="cls-1" d="M289.7,489.49a2.11,2.11,0,0,0-.53.38,3.8,3.8,0,0,0,.7-.25A.7.7,0,0,1,289.7,489.49Z" transform="translate(-192.81 -344.52)"></path><path class="cls-1" d="M283,490.3l.41-.09a3.74,3.74,0,0,1-1.51-.78c-.66.28-.79.51-.82.71l2.06.06Z" transform="translate(-192.81 -344.52)"></path><polygon class="cls-1" points="88.08 144.58 87.21 145.57 87.92 145.28 88.08 144.58"></polygon><polygon class="cls-1" points="85.85 144.68 85.31 145.05 85.8 145.32 85.85 144.68"></polygon><path class="cls-1" d="M197,415.38l.54.14C197.2,415.31,197,415.22,197,415.38Z" transform="translate(-192.81 -344.52)"></path><path class="cls-1" d="M202.37,390.15l-.79-1C201.12,390,201.88,389.85,202.37,390.15Z" transform="translate(-192.81 -344.52)"></path><path class="cls-1" d="M257.62,486.46a3.79,3.79,0,0,0-1.2-1C256.91,486.19,257.23,487.15,257.62,486.46Z" transform="translate(-192.81 -344.52)"></path><path class="cls-1" d="M210.32,414.36a.92.92,0,0,0-.71-.47C209.79,414.2,210,414.39,210.32,414.36Z" transform="translate(-192.81 -344.52)"></path><path class="cls-1" d="M254.86,484.86a3.87,3.87,0,0,0,.21.34,3.33,3.33,0,0,1,1.35.24C256.05,484.88,255.58,484.48,254.86,484.86Z" transform="translate(-192.81 -344.52)"></path><path class="cls-1" d="M270.19,488.76c.44,0,.08-.08,0,0Z" transform="translate(-192.81 -344.52)"></path><path class="cls-1" d="M270.83,489.22a2.94,2.94,0,0,0-.55-.32A2.37,2.37,0,0,0,270.83,489.22Z" transform="translate(-192.81 -344.52)"></path><path class="cls-1" d="M270.76,488.83l.38.12C271.2,488.83,271.16,488.74,270.76,488.83Z" transform="translate(-192.81 -344.52)"></path><path class="cls-1" d="M269.58,488.72a2.67,2.67,0,0,1,.7.18c-.08-.06-.12-.11-.09-.14A4.14,4.14,0,0,1,269.58,488.72Z" transform="translate(-192.81 -344.52)"></path><path class="cls-1" d="M215.94,470.5H216v-.08Z" transform="translate(-192.81 -344.52)"></path><path class="cls-1" d="M216.12,369.61l.19-.22A.55.55,0,0,0,216.12,369.61Z" transform="translate(-192.81 -344.52)"></path><path class="cls-1" d="M202.52,390.35l0-.05a.7.7,0,0,0-.19-.15Z" transform="translate(-192.81 -344.52)"></path><path class="cls-1" d="M274.75,488.92l-1,.12a1.28,1.28,0,0,1,.86.36C274.63,489.2,274.45,488.91,274.75,488.92Z" transform="translate(-192.81 -344.52)"></path><path class="cls-1" d="M268.7,489.17c.3.24.29-.95.44-.61C269.58,487.64,266.93,489.41,268.7,489.17Z" transform="translate(-192.81 -344.52)"></path><path class="cls-1" d="M222.92,480.48c.78,1.55,1.43-1,2,.58.7-.22-.44-1.27.22-1.43C223.94,479.5,223.82,478.87,222.92,480.48Z" transform="translate(-192.81 -344.52)"></path><path class="cls-1" d="M194,424.45c.49-.19.52-.45.58-.95l-1,.88Z" transform="translate(-192.81 -344.52)"></path><polygon class="cls-1" points="3.07 65.35 2.99 65.59 4.71 65.37 3.07 65.35"></polygon><path class="cls-1" d="M196.78,397.52c-.21.46,0,1.14-.25,1.6C196.57,398,198.75,398,196.78,397.52Z" transform="translate(-192.81 -344.52)"></path><path class="cls-1" d="M357.12,482c2.12.72,4.33,2,4.33,4.5a3.83,3.83,0,0,1-4.09,3.93,4.16,4.16,0,0,1-4.38-4.31.34.34,0,0,1,.34-.34c.21,0,.31.14.33.34s0,.43.05.62a3.31,3.31,0,0,0,1.54,2.44,3.84,3.84,0,0,0,2.1.57,3.18,3.18,0,0,0,3.44-3.25c0-2.16-2.1-3.27-3.88-3.85s-3.92-1.51-3.92-3.87a3.75,3.75,0,0,1,3.85-3.64,3.85,3.85,0,0,1,4,4,.35.35,0,0,1-.37.33c-.21,0-.28-.16-.33-.33a6,6,0,0,0-.12-.94,2.93,2.93,0,0,0-3.06-2.31l-.12,0a3.07,3.07,0,0,0-3.18,3C353.65,480.81,355.51,481.48,357.12,482Z" transform="translate(-192.81 -344.52)"></path><path class="cls-1" d="M368.25,482.18a.35.35,0,0,1,.34.34.33.33,0,0,1-.34.33h-1.8v7.08a.34.34,0,1,1-.68,0v-7.08H364a.33.33,0,0,1-.34-.33.35.35,0,0,1,.34-.34h1.73v-2.6a.34.34,0,0,1,.68,0v2.6Z" transform="translate(-192.81 -344.52)"></path><path class="cls-1" d="M377.42,482.57v7.36a.35.35,0,0,1-.34.34.34.34,0,0,1-.34-.34v-1.4a3.15,3.15,0,0,1-2.79,1.91c-2,0-3.1-1.74-3.1-3.57v-4.3a.34.34,0,0,1,.33-.34.35.35,0,0,1,.34.34v4.3c0,1.45.82,2.89,2.43,2.89,2.26,0,2.79-2.12,2.79-4.45v-2.74a.35.35,0,0,1,.34-.34A.37.37,0,0,1,377.42,482.57Z" transform="translate(-192.81 -344.52)"></path><path class="cls-1" d="M388.05,475.78v14.08a.33.33,0,0,1-.34.33.32.32,0,0,1-.34-.33v-1.54a3.83,3.83,0,0,1-3.37,2.09,4.2,4.2,0,0,1,0-8.38,3.86,3.86,0,0,1,3.37,2.12v-8.37a.34.34,0,0,1,.34-.34A.35.35,0,0,1,388.05,475.78Zm-.85,10.44a3.21,3.21,0,1,0-3.2,3.52A3.36,3.36,0,0,0,387.2,486.22Z" transform="translate(-192.81 -344.52)"></path><path class="cls-1" d="M391.43,480.4a.54.54,0,1,1,0-1.08.54.54,0,1,1,0,1.08Zm.33,2.17v7.31a.36.36,0,0,1-.33.34.34.34,0,0,1-.34-.34v-7.31a.34.34,0,0,1,.34-.34A.36.36,0,0,1,391.76,482.57Z" transform="translate(-192.81 -344.52)"></path><path class="cls-1" d="M402.47,486.18a3.9,3.9,0,1,1-3.9-4.19A4.05,4.05,0,0,1,402.47,486.18Zm-.7,0a3.21,3.21,0,1,0-3.2,3.51A3.35,3.35,0,0,0,401.77,486.18Z" transform="translate(-192.81 -344.52)"></path><path class="cls-2" d="M311.12,375.82a1.14,1.14,0,0,1-.73.26h-.2c-.1,0-.32,0-.67,0a10.52,10.52,0,0,0-1.41.12,10.08,10.08,0,0,0-1.89.48,10.66,10.66,0,0,0-2.15,1.06,10.54,10.54,0,0,0-2.19,1.87,15.48,15.48,0,0,0-2,2.91,18.51,18.51,0,0,0-1.62,4.17c-.24.81-.5,2-.8,3.5s-.62,3.23-1,5.13-.68,3.92-1,6.07-.66,4.26-1,6.34-.57,4-.83,5.91-.44,3.47-.58,4.81a1.32,1.32,0,0,1-.33.68.91.91,0,0,1-.68.31,1.27,1.27,0,0,1-.72-.21,1.06,1.06,0,0,1-.42-.61c-.25-.93-.65-2.22-1.19-3.86s-1.17-3.5-1.87-5.57-1.48-4.25-2.31-6.58-1.66-4.62-2.49-6.9-1.61-4.46-2.38-6.54-1.44-3.92-2-5.5c-.1,1.08-.25,2.29-.45,3.61s-.47,2.75-.81,4.28-.76,3.12-1.27,4.82-1.1,3.45-1.8,5.27a30.42,30.42,0,0,1-3.82,7.15,27.23,27.23,0,0,1-4.61,4.94,22.55,22.55,0,0,1-4.89,3.12,27.9,27.9,0,0,1-4.67,1.73,22.9,22.9,0,0,1-3.92.74c-1.16.11-2,.16-2.67.16a19.73,19.73,0,0,1-5.89-.84,14.22,14.22,0,0,1-4.65-2.4,11,11,0,0,1-3.05-3.72,10.53,10.53,0,0,1-1.09-4.78,9.55,9.55,0,0,1,1.06-4.4,11.79,11.79,0,0,1,2.85-3.56,14,14,0,0,1,4.1-2.38,13.52,13.52,0,0,1,4.81-.87,15,15,0,0,1,3.7.41,13.93,13.93,0,0,1,2.91,1,11.6,11.6,0,0,1,2.18,1.35,12.4,12.4,0,0,1,1.51,1.38,8.43,8.43,0,0,1,.9,1.12l.36.55a1.12,1.12,0,0,1-.19,1.28,1,1,0,0,1-.79.35,1,1,0,0,1-1-.58,7.66,7.66,0,0,0-.57-.83,8.56,8.56,0,0,0-1.66-1.62,12.09,12.09,0,0,0-2.89-1.58,11.62,11.62,0,0,0-4.3-.71,12.27,12.27,0,0,0-7.5,2.61,9.76,9.76,0,0,0-2.42,2.9,7.4,7.4,0,0,0-.92,3.61,7.75,7.75,0,0,0,1,3.88,9.52,9.52,0,0,0,2.69,3,12.87,12.87,0,0,0,3.95,1.93,16.35,16.35,0,0,0,4.81.69c.66,0,1.53-.05,2.62-.15a22.92,22.92,0,0,0,3.64-.67,23.84,23.84,0,0,0,4.26-1.58,21,21,0,0,0,4.42-2.89,25.57,25.57,0,0,0,4.17-4.57,29.3,29.3,0,0,0,3.5-6.62,61.33,61.33,0,0,0,2.45-7.63q.88-3.62,1.32-6.52a49.34,49.34,0,0,0,.54-5c.07-1.36.1-2.34.1-2.92v-.58a1.18,1.18,0,0,1,.31-.8,1.1,1.1,0,0,1,1.82.4l.5,1.36c.28.78.65,1.78,1.11,3l1.57,4.26q.89,2.4,1.87,5.12c.66,1.82,1.34,3.69,2,5.63s1.39,3.84,2.05,5.72,1.31,3.69,1.91,5.44,1.14,3.33,1.62,4.76c.22-1.55.45-3.19.7-4.92s.52-3.49.8-5.26.56-3.51.84-5.22.57-3.3.85-4.79.53-2.83.77-4,.44-2.14.64-2.85a20.06,20.06,0,0,1,1.83-4.78,15.46,15.46,0,0,1,2.89-3.88,12.64,12.64,0,0,1,3.89-2.6,12.19,12.19,0,0,1,4.87-1,3.31,3.31,0,0,1,1.47.24.91.91,0,0,1,.45.9v.14A1.09,1.09,0,0,1,311.12,375.82Z" transform="translate(-192.81 -344.52)"></path><path class="cls-2" d="M308.08,391.81a3.1,3.1,0,1,1-6.2,0,3.07,3.07,0,0,1,.24-1.21,3.3,3.3,0,0,1,.66-1,3.18,3.18,0,0,1,1-.66,3.07,3.07,0,0,1,1.21-.24,3,3,0,0,1,1.21.24,3.18,3.18,0,0,1,1,.66,3.12,3.12,0,0,1,.66,1A3.07,3.07,0,0,1,308.08,391.81Zm-5.52,20a78.06,78.06,0,0,1,.61-9.78,1.48,1.48,0,0,1,.43-.84,1.27,1.27,0,0,1,.94-.36,1.09,1.09,0,0,1,.85.39,1.36,1.36,0,0,1,.34.91q0,.19-.09,1.23c-.05.68-.12,1.49-.2,2.43s-.15,2-.2,3-.09,2-.09,2.92a9.67,9.67,0,0,0,.36,2.91,4.56,4.56,0,0,0,.92,1.72,2.73,2.73,0,0,0,1.19.82,3.85,3.85,0,0,0,1.21.21,3.54,3.54,0,0,0,2-.69,11.12,11.12,0,0,0,2.1-1.9,25.72,25.72,0,0,0,2.16-2.95c.73-1.15,1.44-2.43,2.15-3.84a1.23,1.23,0,0,1,.48-.53,1.3,1.3,0,0,1,.68-.18,1.15,1.15,0,0,1,.9.4,1.34,1.34,0,0,1,.36.89,1.16,1.16,0,0,1-.14.58c-.27.52-.61,1.16-1,1.91s-.88,1.52-1.4,2.32-1.09,1.58-1.72,2.37a16.72,16.72,0,0,1-2,2.11,10.44,10.44,0,0,1-2.22,1.52,5.29,5.29,0,0,1-2.35.58,5.44,5.44,0,0,1-2.69-.65,5.94,5.94,0,0,1-2-1.74A7.43,7.43,0,0,1,303,415,12.5,12.5,0,0,1,302.56,411.79Zm3.61-20a1.21,1.21,0,0,0-1.19-1.19,1.09,1.09,0,0,0-.82.36,1.15,1.15,0,0,0-.34.83A1.16,1.16,0,0,0,305,393a1.17,1.17,0,0,0,.84-.34A1.12,1.12,0,0,0,306.17,391.81Z" transform="translate(-192.81 -344.52)"></path><path class="cls-2" d="M339.48,409.13c-.14.25-.37.71-.7,1.36a20.29,20.29,0,0,1-1.33,2.24,27.21,27.21,0,0,1-2,2.57,16.8,16.8,0,0,1-2.66,2.44,14.25,14.25,0,0,1-3.36,1.82,11.11,11.11,0,0,1-4,.72,8.13,8.13,0,0,1-3.44-.7,7.3,7.3,0,0,1-2.56-2,8.82,8.82,0,0,1-1.6-3,13.33,13.33,0,0,1,0-7.68,10.42,10.42,0,0,1,1.59-3.12,7.83,7.83,0,0,1,2.33-2.1,5.59,5.59,0,0,1,2.83-.76,5.24,5.24,0,0,1,2.05.39,4.74,4.74,0,0,1,1.55,1,5.1,5.1,0,0,1,1,1.43,3.69,3.69,0,0,1,.35,1.57,5.14,5.14,0,0,1-.18,1.39,5.3,5.3,0,0,1-.48,1.15,2.57,2.57,0,0,1-.66.78,1.29,1.29,0,0,1-.76.29,1.2,1.2,0,0,1-.93-.38,1.25,1.25,0,0,1-.36-.92.89.89,0,0,1,.12-.47c.08-.14.17-.28.27-.43a2.72,2.72,0,0,0,.27-.54,2.49,2.49,0,0,0,.12-.84,1.68,1.68,0,0,0-.66-1.29,2.46,2.46,0,0,0-1.69-.58,3.19,3.19,0,0,0-1.82.58,5.36,5.36,0,0,0-1.52,1.55,8.4,8.4,0,0,0-1,2.28,9.73,9.73,0,0,0-.39,2.78,10,10,0,0,0,.34,2.66,7.23,7.23,0,0,0,1,2.23,5.11,5.11,0,0,0,1.72,1.55,5,5,0,0,0,2.48.58,8.66,8.66,0,0,0,3.4-.66,12.82,12.82,0,0,0,2.87-1.69,15.07,15.07,0,0,0,2.28-2.23,27.11,27.11,0,0,0,1.69-2.29A17.08,17.08,0,0,0,336.7,409c.26-.54.41-.87.46-1a1,1,0,0,1,.46-.53,1.43,1.43,0,0,1,.7-.18,1.19,1.19,0,0,1,.94.4,1.37,1.37,0,0,1,.36.92A1.63,1.63,0,0,1,339.48,409.13Z" transform="translate(-192.81 -344.52)"></path><path class="cls-2" d="M341.25,414.82a5.35,5.35,0,0,0,1.84,1.59,6.35,6.35,0,0,0,5.8-.21,10,10,0,0,0,2.49-2.09,17,17,0,0,0,2-2.9c.59-1.07,1.12-2.14,1.6-3.2a1.23,1.23,0,0,1,.48-.57,1.3,1.3,0,0,1,.68-.18,1.2,1.2,0,0,1,.94.4,1.32,1.32,0,0,1,.35.89,1.17,1.17,0,0,1,0,.29,1.72,1.72,0,0,1-.1.26,24.84,24.84,0,0,1-5.13,7.8,9.22,9.22,0,0,1-6.29,2.7,7.94,7.94,0,0,1-6.58-3.12,9.36,9.36,0,0,1-1.57-3.12,12.32,12.32,0,0,1-.51-3.48,11.16,11.16,0,0,1,.43-3.2,8.1,8.1,0,0,1,1.22-2.56,6,6,0,0,1,1.91-1.71,5,5,0,0,1,2.44-.61,4.06,4.06,0,0,1,1.55.32,4.57,4.57,0,0,1,2.37,2.37,4.81,4.81,0,0,1,.37,1.95,7.34,7.34,0,0,1-.47,2.62,8.91,8.91,0,0,1-1.32,2.29,11.12,11.12,0,0,1-2,1.94A14.33,14.33,0,0,1,341.25,414.82Zm-1-2.21a8.43,8.43,0,0,0,1.93-1.13,8.07,8.07,0,0,0,1.48-1.5,6.62,6.62,0,0,0,.95-1.72,5.06,5.06,0,0,0,.34-1.82,2.15,2.15,0,0,0-.51-1.55,1.58,1.58,0,0,0-1.19-.53,2.47,2.47,0,0,0-1.57.51,3.93,3.93,0,0,0-1.06,1.33A6.7,6.7,0,0,0,340,408a10.5,10.5,0,0,0-.19,2,7.38,7.38,0,0,0,.12,1.29A11.85,11.85,0,0,0,340.23,412.61Z" transform="translate(-192.81 -344.52)"></path><path class="cls-2" d="M300.36,419.74a1.64,1.64,0,0,1,1.28.64,2.34,2.34,0,0,1,.54,1.57,5.39,5.39,0,0,1-1,2.84,16.88,16.88,0,0,1-2.93,3.26c-.22,1.13-.41,2.42-.57,3.86a42.75,42.75,0,0,0-.25,4.93q0,4.25-.27,8.27a54,54,0,0,1-1,7.58,31,31,0,0,1-2.14,6.52,16.79,16.79,0,0,1-3.6,5.1,15.65,15.65,0,0,1-5.42,3.34,21.34,21.34,0,0,1-7.54,1.2,22.94,22.94,0,0,1-6.49-.85,15.11,15.11,0,0,1-4.83-2.35,10.21,10.21,0,0,1-3-3.52,9.32,9.32,0,0,1-1.05-4.38,9.71,9.71,0,0,1,1-4.38,11.54,11.54,0,0,1,2.7-3.51,12.52,12.52,0,0,1,3.95-2.35,13.49,13.49,0,0,1,4.81-.85h.8a2.79,2.79,0,0,1,.74.12,1.28,1.28,0,0,1,.56.37,1,1,0,0,1,.23.71,1,1,0,0,1-.35.8,1.12,1.12,0,0,1-.8.32h-.59l-.59,0a11.27,11.27,0,0,0-3.91.67,10.38,10.38,0,0,0-3.25,1.85,9,9,0,0,0-2.21,2.79,7.62,7.62,0,0,0-.82,3.48,7,7,0,0,0,.61,3,7.45,7.45,0,0,0,1.64,2.29,9.8,9.8,0,0,0,2.38,1.68,14.5,14.5,0,0,0,2.83,1.12,19.52,19.52,0,0,0,3,.63,23,23,0,0,0,2.92.19,18.15,18.15,0,0,0,6.64-1.09,13.25,13.25,0,0,0,4.71-3.06,15.21,15.21,0,0,0,3.11-4.71A30.63,30.63,0,0,0,294,451.7a52.17,52.17,0,0,0,.89-7.09c.15-2.51.24-5.12.26-7.8,0-1.3.07-2.56.15-3.81s.19-2.37.33-3.38c-.8.43-1.69.84-2.66,1.25s-2,.82-2.93,1.25-1.93.9-2.86,1.4a13.76,13.76,0,0,0-2.47,1.64,7.4,7.4,0,0,0-1.73,2,4.7,4.7,0,0,0-.65,2.47,5.17,5.17,0,0,0,.42,2.16,5.43,5.43,0,0,0,1.06,1.56,5.83,5.83,0,0,0,1.4,1,9.45,9.45,0,0,0,1.41.64,9.9,9.9,0,0,0,1.12.33l.53.11a1.27,1.27,0,0,1,.7.41,1,1,0,0,1,.18.62,1.12,1.12,0,0,1-.31.83,1,1,0,0,1-.75.32l-.26,0a.92.92,0,0,1-.26,0,14.28,14.28,0,0,1-2.3-.74,9.74,9.74,0,0,1-2.47-1.49,8.1,8.1,0,0,1-2-2.41,7.19,7.19,0,0,1-.81-3.55,6,6,0,0,1,.91-3.27,10,10,0,0,1,2.38-2.55,19.89,19.89,0,0,1,3.28-2c1.2-.58,2.4-1.13,3.59-1.65s2.31-1,3.36-1.5a11.43,11.43,0,0,0,2.58-1.57,17.37,17.37,0,0,1,2-5.4C298.84,420.32,299.59,419.74,300.36,419.74Z" transform="translate(-192.81 -344.52)"></path><path class="cls-2" d="M313.42,457q1.6,7.59,4.67,7.6a3.59,3.59,0,0,0,2.27-.88,11.22,11.22,0,0,0,2-2.14,18.81,18.81,0,0,0,1.67-2.68c.48-.94.87-1.76,1.18-2.46a1.22,1.22,0,0,1,2-.4,1.25,1.25,0,0,1,.36.86,1,1,0,0,1-.1.46c-.15.37-.38.87-.67,1.49a22.86,22.86,0,0,1-1.09,2c-.42.71-.9,1.44-1.43,2.19a13,13,0,0,1-1.74,2,9.63,9.63,0,0,1-2,1.46,4.71,4.71,0,0,1-2.25.58,5.23,5.23,0,0,1-3.78-1.53,12.28,12.28,0,0,1-2.73-5.05,16.34,16.34,0,0,1-3.2,4.87,5,5,0,0,1-3.48,1.51,6.11,6.11,0,0,1-1.91-.31,4,4,0,0,1-1.61-1,5.3,5.3,0,0,1-1.12-1.86,7.81,7.81,0,0,1-.43-2.78,10.77,10.77,0,0,1,.79-4.18,11.2,11.2,0,0,1,2-3.27,9.31,9.31,0,0,1,2.78-2.12,6.73,6.73,0,0,1,3-.76,1.2,1.2,0,0,1,1.22,1.22,1.26,1.26,0,0,1-.3.82,1.2,1.2,0,0,1-.79.43,7.82,7.82,0,0,0-2.1.62,6.89,6.89,0,0,0-2.06,1.43,7.36,7.36,0,0,0-1.54,2.39,8.79,8.79,0,0,0-.61,3.45,4.27,4.27,0,0,0,.67,2.57,2.28,2.28,0,0,0,2,.92,2.6,2.6,0,0,0,1.12-.28,3.9,3.9,0,0,0,1.27-1.1,15.64,15.64,0,0,0,1.48-2.34,43.6,43.6,0,0,0,1.79-4c-.37-1.93-.71-4.15-1-6.68a69.76,69.76,0,0,1-.46-8.45c0-1.36,0-2.78.13-4.26s.23-2.93.43-4.35a34.64,34.64,0,0,1,.79-4,17.86,17.86,0,0,1,1.2-3.35,7.09,7.09,0,0,1,1.66-2.29,3.2,3.2,0,0,1,2.17-.84,2.9,2.9,0,0,1,1.84.59,4.33,4.33,0,0,1,1.24,1.65,9.64,9.64,0,0,1,.7,2.53,20.53,20.53,0,0,1,.24,3.26,44.68,44.68,0,0,1-.66,7.63,74,74,0,0,1-1.63,7.31c-.65,2.32-1.33,4.47-2.06,6.45S314,455.6,313.42,457Zm3.85-26.52c0-.55,0-1.14,0-1.78a10.93,10.93,0,0,0-.23-1.79,5.31,5.31,0,0,0-.48-1.4.89.89,0,0,0-.79-.56c-.55,0-1.06.48-1.53,1.45a17.48,17.48,0,0,0-1.23,3.8,47.54,47.54,0,0,0-.84,5.33,56.85,56.85,0,0,0-.31,6c0,1.93.07,3.86.23,5.79s.33,3.65.52,5.17q1-2.53,1.81-5.22c.57-1.78,1.07-3.61,1.5-5.47s.77-3.75,1-5.65A43.32,43.32,0,0,0,317.27,430.51Z" transform="translate(-192.81 -344.52)"></path><path class="cls-2" d="M329.21,463a5,5,0,0,0,1.78,1.53,6.12,6.12,0,0,0,5.59-.2,9.49,9.49,0,0,0,2.4-2,15.8,15.8,0,0,0,1.94-2.8c.57-1,1.09-2.06,1.55-3.09a1.17,1.17,0,0,1,.46-.54,1.26,1.26,0,0,1,.66-.18,1.14,1.14,0,0,1,.9.39,1.28,1.28,0,0,1,.35.86.79.79,0,0,1,0,.28,1.44,1.44,0,0,1-.09.24,23.94,23.94,0,0,1-5,7.54,8.88,8.88,0,0,1-6.07,2.6,7.92,7.92,0,0,1-3.75-.84,8,8,0,0,1-2.6-2.17,9.26,9.26,0,0,1-1.51-3,11.83,11.83,0,0,1-.49-3.36,10.8,10.8,0,0,1,.41-3.09,7.75,7.75,0,0,1,1.18-2.47,5.8,5.8,0,0,1,1.85-1.65,4.79,4.79,0,0,1,2.35-.59,4,4,0,0,1,1.5.31A4.3,4.3,0,0,1,334.9,453a4.67,4.67,0,0,1,.36,1.88,6.85,6.85,0,0,1-.46,2.53,8.47,8.47,0,0,1-1.26,2.2,10.78,10.78,0,0,1-1.93,1.88A13.93,13.93,0,0,1,329.21,463Zm-1-2.14a7.8,7.8,0,0,0,1.86-1.08,7.54,7.54,0,0,0,1.43-1.45,6.64,6.64,0,0,0,.92-1.66,4.94,4.94,0,0,0,.33-1.76,2.07,2.07,0,0,0-.49-1.5,1.55,1.55,0,0,0-1.15-.51,2.34,2.34,0,0,0-1.51.49,3.8,3.8,0,0,0-1,1.29,6.61,6.61,0,0,0-.57,1.76,10.48,10.48,0,0,0-.18,1.92,7.93,7.93,0,0,0,.11,1.25C328,460,328.11,460.45,328.22,460.84Z" transform="translate(-192.81 -344.52)"></path><path class="cls-2" d="M367.9,457.42c-.09.18-.27.54-.54,1.1s-.63,1.2-1.05,1.93-.93,1.48-1.5,2.27a15.22,15.22,0,0,1-1.91,2.17,10.42,10.42,0,0,1-2.27,1.63,5.41,5.41,0,0,1-2.57.64,4.5,4.5,0,0,1-3.2-1.22,7.08,7.08,0,0,1-1.9-3.06,9.66,9.66,0,0,1-2.66,3,5.33,5.33,0,0,1-3.09,1.1,5.42,5.42,0,0,1-2.21-.44,5,5,0,0,1-1.68-1.25,5.82,5.82,0,0,1-1.06-1.89,7,7,0,0,1-.38-2.37,11.09,11.09,0,0,1,.87-4.53,10.48,10.48,0,0,1,2.22-3.27,9.13,9.13,0,0,1,3-2,8.49,8.49,0,0,1,3.14-.65,5.87,5.87,0,0,1,1.87.28,8.58,8.58,0,0,1,1.47.61,5.73,5.73,0,0,1,.94.6c.22.19.34.29.36.32a1.35,1.35,0,0,1,.36.88,1.26,1.26,0,0,1-.36.88,1.16,1.16,0,0,1-.86.38,1.24,1.24,0,0,1-.89-.37l-.29-.24a3.71,3.71,0,0,0-.63-.38,5.19,5.19,0,0,0-.93-.35,4.73,4.73,0,0,0-1.24-.15,6,6,0,0,0-2.17.46,6.21,6.21,0,0,0-2.11,1.44,8,8,0,0,0-1.59,2.43,8.56,8.56,0,0,0-.64,3.47,6.15,6.15,0,0,0,.13,1.27,3.53,3.53,0,0,0,.46,1.17,2.51,2.51,0,0,0,.89.85,2.66,2.66,0,0,0,1.38.33,3.09,3.09,0,0,0,1.36-.39,5.14,5.14,0,0,0,1.49-1.22,9.18,9.18,0,0,0,1.28-2.07,10.44,10.44,0,0,0,.8-3,1.28,1.28,0,0,1,1.29-1.08,1.07,1.07,0,0,1,.8.36,1.3,1.3,0,0,1,.38.82c0,.42.07,1,.13,1.76a11.17,11.17,0,0,0,.45,2.26,5.56,5.56,0,0,0,1,1.94,2.37,2.37,0,0,0,1.91.82,3.18,3.18,0,0,0,1.57-.43,7.25,7.25,0,0,0,1.51-1.13,13.2,13.2,0,0,0,1.41-1.61c.45-.61.86-1.22,1.24-1.83s.7-1.21,1-1.78.53-1.06.73-1.48a1.31,1.31,0,0,1,.48-.56,1.21,1.21,0,0,1,.67-.19,1.1,1.1,0,0,1,.9.41,1.28,1.28,0,0,1,.35.87A1.09,1.09,0,0,1,367.9,457.42Z" transform="translate(-192.81 -344.52)"></path><path class="cls-2" d="M369.28,454.43c-.13.35-.29.74-.47,1.18s-.4.9-.64,1.38a3.36,3.36,0,0,1-.61.87,1.1,1.1,0,0,1-.81.32,1.18,1.18,0,0,1-.89-.35,1.13,1.13,0,0,1-.33-.8.75.75,0,0,1,0-.28,1.84,1.84,0,0,1,.16-.38,21.53,21.53,0,0,0,1.27-2.88,20.28,20.28,0,0,0,.67-2.58q-.23-.77-.33-1.29a6.38,6.38,0,0,1-.1-1.08,3,3,0,0,1,.47-1.76,1.46,1.46,0,0,1,1.28-.68,1.39,1.39,0,0,1,1.2.66,2.79,2.79,0,0,1,.44,1.61,5.51,5.51,0,0,1-.1,1.06c-.06.35-.15.79-.26,1.31.51,1.25,1,2.36,1.52,3.32s.95,1.85,1.34,2.65a19.68,19.68,0,0,1,1,2.26,6,6,0,0,1,.38,2.1,6.25,6.25,0,0,1-.56,2.63,4.88,4.88,0,0,1-1.84,2.11l.33,0h.33a7.11,7.11,0,0,0,3.45-.85,10.86,10.86,0,0,0,2.85-2.22,17.52,17.52,0,0,0,2.25-3,29.81,29.81,0,0,0,1.71-3.31q.33-.75.93-.75a1.06,1.06,0,0,1,.87.39,1.34,1.34,0,0,1,.31.86,1.16,1.16,0,0,1-.1.49c-.24.59-.55,1.27-.94,2a20.92,20.92,0,0,1-3.24,4.69,13.61,13.61,0,0,1-2.35,2.06,12.13,12.13,0,0,1-2.85,1.45,10.2,10.2,0,0,1-3.38.54,10.84,10.84,0,0,1-4.1-.77,6.75,6.75,0,0,1-3.08-2.55,1.13,1.13,0,0,1-.19-.63,1.19,1.19,0,0,1,.37-.87,1.24,1.24,0,0,1,.88-.38,1.19,1.19,0,0,1,.88.36,1,1,0,0,0,.23.22c.14.09.29.21.48.33a3.37,3.37,0,0,0,.66.31,2.27,2.27,0,0,0,.77.13,2.56,2.56,0,0,0,1.34-.33,2.82,2.82,0,0,0,.87-.81,3,3,0,0,0,.47-1,3.56,3.56,0,0,0,.15-.93,5.57,5.57,0,0,0-.26-1.65A11.39,11.39,0,0,0,371,458c-.27-.55-.57-1.12-.88-1.7S369.55,455.06,369.28,454.43Z" transform="translate(-192.81 -344.52)"></path></svg>