<svg xmlns="http://www.w3.org/2000/svg" id="&#x421;&#x43B;&#x43E;&#x439;_1" data-name="&#x421;&#x43B;&#x43E;&#x439; 1" viewBox="0 0 319.15 92"><defs><style>.cls-1{fill:#fff;}.cls-2{fill:#e0b159;}</style></defs><rect class="cls-1" x="194.71" y="77.87" width="92.19" height="0.75"></rect><path class="cls-1" d="M338.63,382.14q-.06-.54-.15-1.05a4.79,4.79,0,0,0-.7-1.64q-.5-.75-1.2-1.65a1.44,1.44,0,0,0-.5-.6c-.2-.13-.43-.3-.7-.5.07,0-.11-.15-.55-.45a3.56,3.56,0,0,1-.85-.75,11.73,11.73,0,0,0-1.79-.45c-.6-.1-1.2-.21-1.8-.35s-1-.11-1.5-.15-1-.05-1.5-.05-1.15,0-1.85.05-1.31.09-1.85.15a1.84,1.84,0,0,0-.49.1,1.57,1.57,0,0,1-.5.1l-2,.4a6.8,6.8,0,0,0-1.8.6,31.49,31.49,0,0,0-3.6,1.4,33.9,33.9,0,0,0-3.49,1.8,25.94,25.94,0,0,0-3.7,1.8h.1l-3,1.89-4.29,2.9-2.6,1.9q-3.19,2.3-6.29,4.84t-6,5.25c-1.79,1.8-3.63,3.69-5.49,5.69-1.14,1.22-2.23,2.43-3.3,3.63L274,411c-3.35.51-6.66.89-9.77,1.26-15.3,1.84-30.7,2.62-46,4A225,225,0,0,0,175.37,424,139.51,139.51,0,0,0,156,430.84c-5.29,2.42-11.25,5.51-14.76,10.34-2.78,3.82-3.41,9.72.61,13,3.4,2.74,8.4,2.19,12.32,1.13a1.5,1.5,0,0,0-.8-2.9c-4.21,1.13-11.24,1.59-11.41-4.55-.18-6.48,8.28-10.77,13.15-13.22,11.54-5.8,24.71-9.16,37.31-11.75,25.81-5.29,52.42-4.81,78.46-8.49l.24,0-.22.28c-.19.25-.39.51-.56.76a32.9,32.9,0,0,0-2.4,3.2c-.8,1.19-1.53,2.29-2.19,3.29s-1.49,2.3-2.25,3.5-1.45,2.36-2.05,3.5c-.33.66-.65,1.26-.95,1.79s-.58,1.07-.85,1.6a8.35,8.35,0,0,0-.75,1.85,16.45,16.45,0,0,1-.55,1.75c-.33.6-.65,1.2-.95,1.8a7.62,7.62,0,0,0-.65,2l-.69,2a6.93,6.93,0,0,0-.6,1.8,13.77,13.77,0,0,0-.3,1.95c-.07.7-.14,1.45-.2,2.24v.9a3.49,3.49,0,0,0,.1.9,1.33,1.33,0,0,0,.05.4,1.9,1.9,0,0,1,0,.4v.5a1.06,1.06,0,0,0,.1.5,16.19,16.19,0,0,0,1.29,3.3,3,3,0,0,0,.4.6,4.59,4.59,0,0,1,.5.6,3,3,0,0,0,.6.9l.6.6c.54.33,1,.66,1.5,1a4.37,4.37,0,0,0,1.4.7h-.1a7.64,7.64,0,0,0,3.4,1.3,7.26,7.26,0,0,0,1.59.25c.6,0,1.17.05,1.7.05h.5a18.92,18.92,0,0,0,3.3-.3,3,3,0,0,0,.65,0l.35-.05,1.95-.45a7.84,7.84,0,0,0,1.34-.35l1.9-.4,2-.7,1.85-.7c.7-.26,1.31-.53,1.85-.79l5.69-2.7c.6-.34,1.1-.6,1.5-.8l1.15-.6,1.1-.6,1.44-.8,6.8-4.39h-.2a3.68,3.68,0,0,0,.4-.25c.13-.1.26-.22.4-.35l.7-.6.8-.5,1-.9,1.5-1.3.8-.8c.2-.13.45-.31.75-.55a2.14,2.14,0,0,0,.65-.75c.4-.26.6-.53.6-.8l.5-.4a1.23,1.23,0,0,1,0-.35.92.92,0,0,0,.05-.25v-.17a65.93,65.93,0,0,0-7.43,4.28l-.56.49-2,1.5-1.3.9.1-.1-3.6,2.49-4.29,2.4a11.33,11.33,0,0,1-2.3,1.2,13.69,13.69,0,0,0-2,.9l-2.19,1.1a4.38,4.38,0,0,1-1.05.45,8.08,8.08,0,0,0-1.05.35l-1.5.6a8.68,8.68,0,0,1-1.6.6l-1.6.4-2.19.49-1.2.31-3.3.39h-2.1l-1.55-.19a5.5,5.5,0,0,1-1.44-.4,9.66,9.66,0,0,1-2.6-1,13.4,13.4,0,0,1-2.2-1.55l-.4-.5-1-1.5h.1a5.56,5.56,0,0,1-.7-1.9,10.28,10.28,0,0,1-.3-1.1,6.15,6.15,0,0,1-.1-1.1v-1.39l.6-3.6c.27-.87.55-1.75.85-2.65s.62-1.81.95-2.75.65-1.51.95-2.14.61-1.32.95-2.05l.5-1.2a7.61,7.61,0,0,0,.8-1.3,17.68,17.68,0,0,1,1.2-2l1.79-3.39-.1.1,2.2-3.2,2.2-3.3,3.7-4.59a6.55,6.55,0,0,0,.9-1.15.41.41,0,0,1,.05-.09,69.15,69.15,0,0,0,17.1-4.75l-.07.2a.94.94,0,0,1-.1.39.88.88,0,0,0-.1.4,1.22,1.22,0,0,0-.3.9.57.57,0,0,0-.1.4v2a4.34,4.34,0,0,0,.1.9,3.18,3.18,0,0,0,.3.9c.13.2.26.43.4.7a3,3,0,0,0,.6.8,6.6,6.6,0,0,0,1.74,1.15,11.84,11.84,0,0,0,1.75.55,2.5,2.5,0,0,1,.45,0,2,2,0,0,0,.45.06h.7a10.65,10.65,0,0,0,1.15-.06c.37,0,.71-.08,1.05-.14a14.8,14.8,0,0,0,2.1-.5c.6-.2,1.16-.37,1.69-.5l3.7-1.5a16.21,16.21,0,0,0,3.6-2l1.3-.7-.1.1,2.19-1.4,3.2-2.29a1,1,0,0,1,.3-.2.65.65,0,0,1,.2-.15.94.94,0,0,0,.2-.16l2.5-2.09,3.79-3.2,2.1-1.8L330,399q1.35-1.5,2.94-3.5l.4-.4a1.31,1.31,0,0,0,.3-.4l-.1.1,1.7-2.4,2-3.39.6-1.6a6,6,0,0,0,.6-2.1,7,7,0,0,0,.2-2.1C338.68,382.86,338.66,382.51,338.63,382.14Zm-2.1.7a.44.44,0,0,0,0,.25v.4l-.2,1.1a5.77,5.77,0,0,1-.8,1.9l-.5.9a.4.4,0,0,1-.1.3.3.3,0,0,0-.1.2,26.94,26.94,0,0,1-3.44,5.39q-2.05,2.5-4.25,4.8c-1.73,1.73-3.55,3.41-5.44,5a69,69,0,0,1-5.75,4.45c-.73.53-1.63,1.13-2.69,1.8l-3.6,2.19a21.35,21.35,0,0,1-3.35,1.9c-1.16.53-2.21,1-3.14,1.3s-1.87.5-2.8.7a13.33,13.33,0,0,1-2.8.3,2.52,2.52,0,0,1-.8-.1,2.83,2.83,0,0,1-.5-.1l-1.1-.4-.4-.2-.39-.5v-.1a2.09,2.09,0,0,0-.1-.6.53.53,0,0,0-.05-.2.58.58,0,0,1-.05-.3,1.5,1.5,0,0,1-.2-.7,1,1,0,0,1,.2-.7.62.62,0,0,1,.05-.3.46.46,0,0,0,.05-.2,11.26,11.26,0,0,0,.3-1.4,6.79,6.79,0,0,1,.59-1.79l.43-.68a29.89,29.89,0,0,0,7.49-5.76l.08-.06.07-.1c.19-.21.38-.41.56-.63a2.71,2.71,0,0,1,.27-.22,2.42,2.42,0,0,1,.4-.25l.79-.69.7-.6.2-.4a.82.82,0,0,1,.15-.35.92.92,0,0,0,.15-.45v-.7c-.13-.27-.25-.42-.35-.45a1.18,1.18,0,0,0-.35-.05h-1.1a2,2,0,0,0-1.19.3l-1.8.9-1.2.9-.9.9a1.15,1.15,0,0,0-.4.39.32.32,0,0,1-.3.2c-.13,0-.27.14-.4.4a6.41,6.41,0,0,0-.45.55,4.3,4.3,0,0,1-.45.55l-.8,1-.6.77c-5.11,3.4-11.32,5.3-17.62,6.53l.7-.82,2-2.37,3.92-3.91c.79-.93,1.66-1.85,2.59-2.75s1.9-1.78,2.9-2.64,2-1.83,3.05-2.7l2.94-2.5c.94-.73,1.87-1.43,2.8-2.09s1.86-1.37,2.8-2.1l-.1.2.6-.6c.93-.6,1.89-1.22,2.89-1.85s2-1.25,3-1.85l1.2-.9v.2l1.85-1.15a20.19,20.19,0,0,1,2.15-1.15l1.29-.5a25.9,25.9,0,0,1,9-3.34c1.14-.17,2.27-.28,3.4-.35h.8a4,4,0,0,1,.6.05,4.68,4.68,0,0,0,.7.05,17.8,17.8,0,0,1,3.1.7,1.62,1.62,0,0,1,.5.1,8.82,8.82,0,0,1,.94.55,2.41,2.41,0,0,1,.75.65l.5.4a1.1,1.1,0,0,0,.3.35,1.57,1.57,0,0,1,.4.54l.4,1.2v.5a1.33,1.33,0,0,0,.1.6A.21.21,0,0,1,336.53,382.84Z" transform="translate(-139 -374.5)"></path><path class="cls-2" d="M342.85,447.17a2.28,2.28,0,0,0,1.32-.39,2.22,2.22,0,0,0,.84-1h.84a3.18,3.18,0,0,1-1.16,1.57,3.43,3.43,0,0,1-2,.61,3.22,3.22,0,0,1-2.49-1.05,4,4,0,0,1,0-5.09,3.24,3.24,0,0,1,2.49-1,3.36,3.36,0,0,1,2,.61,3.09,3.09,0,0,1,1.16,1.57H345a2.29,2.29,0,0,0-.84-1,2.35,2.35,0,0,0-1.32-.38,3,3,0,0,0-1.25.22,2.31,2.31,0,0,0-.84.6,3.24,3.24,0,0,0,0,4A2.66,2.66,0,0,0,342.85,447.17Z" transform="translate(-139 -374.5)"></path><path class="cls-2" d="M349.87,442.47v.8h-.09a1.7,1.7,0,0,0-1.4.69,2.46,2.46,0,0,0-.51,1.56v2.33h-.79v-5.29h.79v1.3a2,2,0,0,1,1.1-1.22,2,2,0,0,1,.85-.17Z" transform="translate(-139 -374.5)"></path><path class="cls-2" d="M353.17,447.22a1.63,1.63,0,0,0,1.54-.89h.86a2.42,2.42,0,0,1-2.41,1.61,2.56,2.56,0,0,1-2-.8,2.68,2.68,0,0,1-.73-1.93,2.74,2.74,0,0,1,.7-1.94,2.72,2.72,0,0,1,3.85,0,2.74,2.74,0,0,1,.7,1.94v.31h-4.44a1.91,1.91,0,0,0,.59,1.21A1.77,1.77,0,0,0,353.17,447.22Zm-.07-4a1.72,1.72,0,0,0-1.22.46,1.9,1.9,0,0,0-.58,1.13h3.61a1.9,1.9,0,0,0-.58-1.13A1.72,1.72,0,0,0,353.1,443.19Z" transform="translate(-139 -374.5)"></path><path class="cls-2" d="M361.05,447a2.14,2.14,0,0,1-1.9.93,2.4,2.4,0,0,1-1.86-.8,3,3,0,0,1,0-3.87,2.47,2.47,0,0,1,1.92-.8,2.1,2.1,0,0,1,1.84.95v-.86h.8v5.29h-.8Zm-1.79.21a1.71,1.71,0,0,0,1.36-.59,2.17,2.17,0,0,0,.47-1.42,2.13,2.13,0,0,0-.47-1.42,1.69,1.69,0,0,0-1.36-.6,1.77,1.77,0,0,0-1.38.6,2,2,0,0,0-.49,1.42,2.08,2.08,0,0,0,.49,1.42A1.8,1.8,0,0,0,359.26,447.22Z" transform="translate(-139 -374.5)"></path><path class="cls-2" d="M364,447.85v-4.59h-1.08v-.7H364v-1.9h.79v1.9H366v.7H364.8v4.59Z" transform="translate(-139 -374.5)"></path><path class="cls-2" d="M367.93,440.63v1h-.86v-1Zm-.83,1.93h.8v5.29h-.8Z" transform="translate(-139 -374.5)"></path><path class="cls-2" d="M373.92,442.56l-2.06,5.29h-.93l-2.08-5.29h.87l1.67,4.45,1.66-4.45Z" transform="translate(-139 -374.5)"></path><path class="cls-2" d="M377.18,447.22a1.6,1.6,0,0,0,1.53-.89h.87a2.47,2.47,0,0,1-.87,1.16,2.51,2.51,0,0,1-1.54.45,2.56,2.56,0,0,1-1.95-.8,2.68,2.68,0,0,1-.73-1.93,2.78,2.78,0,0,1,.69-1.94,2.73,2.73,0,0,1,3.86,0,2.74,2.74,0,0,1,.7,1.94v.31H375.3a2,2,0,0,0,.58,1.21A1.78,1.78,0,0,0,377.18,447.22Zm-.07-4a1.76,1.76,0,0,0-1.23.46,1.89,1.89,0,0,0-.57,1.13h3.6a1.89,1.89,0,0,0-.57-1.13A1.72,1.72,0,0,0,377.11,443.19Z" transform="translate(-139 -374.5)"></path><path class="cls-2" d="M384.36,447.85h-.8v-7h3.16a2.54,2.54,0,0,1,1.77.61,2.42,2.42,0,0,1,0,3.3,2.53,2.53,0,0,1-1.77.6h-2.36Zm0-6.26v3h2.31a1.74,1.74,0,0,0,1.25-.4,1.47,1.47,0,0,0,.42-1.11,1.43,1.43,0,0,0-.42-1.1,1.74,1.74,0,0,0-1.25-.41Z" transform="translate(-139 -374.5)"></path><path class="cls-2" d="M393.06,442.47v.8H393a1.7,1.7,0,0,0-1.4.69,2.46,2.46,0,0,0-.51,1.56v2.33h-.79v-5.29h.79v1.3a2,2,0,0,1,1.95-1.39Z" transform="translate(-139 -374.5)"></path><path class="cls-2" d="M396.29,442.47a2.53,2.53,0,0,1,1.93.8,3,3,0,0,1,0,3.87,2.73,2.73,0,0,1-3.86,0,3,3,0,0,1,0-3.87A2.52,2.52,0,0,1,396.29,442.47Zm0,4.75a1.68,1.68,0,0,0,1.35-.59,2.12,2.12,0,0,0,.48-1.42,2.09,2.09,0,0,0-.48-1.42,1.66,1.66,0,0,0-1.35-.6,1.68,1.68,0,0,0-1.36.6,2.08,2.08,0,0,0-.47,1.42,2.12,2.12,0,0,0,.47,1.42A1.7,1.7,0,0,0,396.29,447.22Z" transform="translate(-139 -374.5)"></path><path class="cls-2" d="M402.62,447.22a1.49,1.49,0,0,0,.9-.29,1.57,1.57,0,0,0,.58-.74H405a2.48,2.48,0,0,1-.89,1.26,2.67,2.67,0,0,1-1.61.49,2.47,2.47,0,0,1-1.9-.8,3,3,0,0,1,0-3.87,2.47,2.47,0,0,1,1.9-.8,2.67,2.67,0,0,1,1.61.49,2.48,2.48,0,0,1,.89,1.26h-.86a1.62,1.62,0,0,0-.58-.74,1.49,1.49,0,0,0-.9-.29,2.24,2.24,0,0,0-.86.16,1.67,1.67,0,0,0-.6.44,2.05,2.05,0,0,0-.52,1.42,2.09,2.09,0,0,0,.52,1.42A1.88,1.88,0,0,0,402.62,447.22Z" transform="translate(-139 -374.5)"></path><path class="cls-2" d="M408.51,447.22a1.61,1.61,0,0,0,1.54-.89h.87a2.42,2.42,0,0,1-2.42,1.61,2.59,2.59,0,0,1-1.95-.8,2.72,2.72,0,0,1-.73-1.93,2.78,2.78,0,0,1,.7-1.94,2.73,2.73,0,0,1,3.86,0,2.78,2.78,0,0,1,.7,1.94v.31h-4.44a2,2,0,0,0,.58,1.21A1.77,1.77,0,0,0,408.51,447.22Zm-.06-4a1.72,1.72,0,0,0-1.23.46,1.89,1.89,0,0,0-.57,1.13h3.6a1.89,1.89,0,0,0-.57-1.13A1.72,1.72,0,0,0,408.45,443.19Z" transform="translate(-139 -374.5)"></path><path class="cls-2" d="M415.38,444c-.07-.55-.51-.83-1.33-.83s-1.22.25-1.22.76a.54.54,0,0,0,.26.49,3.11,3.11,0,0,0,.65.27c.26.07.54.13.85.19a4.23,4.23,0,0,1,.85.26,1.8,1.8,0,0,1,.65.45,1.08,1.08,0,0,1,.26.78,1.34,1.34,0,0,1-.58,1.18,2.72,2.72,0,0,1-1.58.41,2.54,2.54,0,0,1-1.68-.53,1.64,1.64,0,0,1-.62-1.22h.83a1.11,1.11,0,0,0,.83,1,2,2,0,0,0,.54.08,4.12,4.12,0,0,0,.51,0,1.88,1.88,0,0,0,.45-.12.7.7,0,0,0,.51-.69.57.57,0,0,0-.26-.5,2.31,2.31,0,0,0-.65-.29c-.26-.07-.55-.14-.85-.2a4.32,4.32,0,0,1-.86-.25,1.76,1.76,0,0,1-.65-.43A1.08,1.08,0,0,1,412,444a1.32,1.32,0,0,1,.53-1.12,2.5,2.5,0,0,1,1.55-.4,2.31,2.31,0,0,1,1.53.47,1.46,1.46,0,0,1,.54,1Z" transform="translate(-139 -374.5)"></path><path class="cls-2" d="M420.7,444c-.07-.55-.52-.83-1.33-.83s-1.23.25-1.23.76a.56.56,0,0,0,.26.49,3.47,3.47,0,0,0,.66.27c.26.07.54.13.85.19a4.23,4.23,0,0,1,.85.26,1.8,1.8,0,0,1,.65.45,1.08,1.08,0,0,1,.26.78,1.34,1.34,0,0,1-.58,1.18,2.72,2.72,0,0,1-1.58.41,2.51,2.51,0,0,1-1.68-.53,1.64,1.64,0,0,1-.62-1.22H418a1.1,1.1,0,0,0,.83,1,2,2,0,0,0,.54.08,3.84,3.84,0,0,0,.5,0,1.83,1.83,0,0,0,.46-.12.7.7,0,0,0,.51-.69.57.57,0,0,0-.26-.5,2.31,2.31,0,0,0-.65-.29c-.26-.07-.55-.14-.86-.2a4.43,4.43,0,0,1-.85-.25,1.76,1.76,0,0,1-.65-.43,1.08,1.08,0,0,1-.26-.76,1.32,1.32,0,0,1,.53-1.12,2.48,2.48,0,0,1,1.55-.4,2.31,2.31,0,0,1,1.53.47,1.54,1.54,0,0,1,.54,1Z" transform="translate(-139 -374.5)"></path><path class="cls-2" d="M364.51,457.3a3.15,3.15,0,0,1,1.21.24,3,3,0,0,1,1,.7,3.83,3.83,0,0,1,0,5.14,3,3,0,0,1-1,.7,3.15,3.15,0,0,1-1.21.24h-2.95v-7Zm0,6.26a2.23,2.23,0,0,0,1.79-.81,3.14,3.14,0,0,0,0-3.88,2.24,2.24,0,0,0-1.79-.82h-2.13v5.51Z" transform="translate(-139 -374.5)"></path><path class="cls-2" d="M371.42,463.68a1.61,1.61,0,0,0,1.54-.89h.87A2.64,2.64,0,0,1,373,464a2.85,2.85,0,0,1-3.49-.35,2.72,2.72,0,0,1-.73-1.94,2.78,2.78,0,0,1,.7-1.94,2.73,2.73,0,0,1,3.86,0,2.78,2.78,0,0,1,.7,1.94V462h-4.44a1.88,1.88,0,0,0,.58,1.2A1.77,1.77,0,0,0,371.42,463.68Zm-.06-4a1.77,1.77,0,0,0-1.23.46,1.89,1.89,0,0,0-.57,1.13h3.6a1.89,1.89,0,0,0-.57-1.13A1.77,1.77,0,0,0,371.36,459.65Z" transform="translate(-139 -374.5)"></path><path class="cls-2" d="M378.29,460.44c-.07-.55-.52-.83-1.33-.83s-1.23.26-1.23.77a.54.54,0,0,0,.26.48,2.45,2.45,0,0,0,.65.27c.27.07.55.13.86.19a4.43,4.43,0,0,1,.85.26,1.8,1.8,0,0,1,.65.45,1.08,1.08,0,0,1,.26.78,1.34,1.34,0,0,1-.58,1.18,2.67,2.67,0,0,1-1.58.41,2.51,2.51,0,0,1-1.68-.53,1.61,1.61,0,0,1-.62-1.22h.83a1.1,1.1,0,0,0,.82,1,1.79,1.79,0,0,0,.55.08,3.84,3.84,0,0,0,.5,0,2.37,2.37,0,0,0,.46-.11.72.72,0,0,0,.51-.69.59.59,0,0,0-.26-.51,2.45,2.45,0,0,0-.65-.28,8.43,8.43,0,0,0-.86-.2,5.28,5.28,0,0,1-.85-.25,1.78,1.78,0,0,1-.65-.44,1.08,1.08,0,0,1-.26-.76,1.33,1.33,0,0,1,.52-1.12,2.6,2.6,0,0,1,1.56-.4,2.31,2.31,0,0,1,1.53.47,1.54,1.54,0,0,1,.54,1Z" transform="translate(-139 -374.5)"></path><path class="cls-2" d="M381.32,457.09v1h-.86v-1Zm-.83,1.93h.8v5.3h-.8Z" transform="translate(-139 -374.5)"></path><path class="cls-2" d="M387,459.87V459h.79v5.14a2.26,2.26,0,0,1-.65,1.74,2.48,2.48,0,0,1-1.75.6,3.07,3.07,0,0,1-1.73-.42,2.15,2.15,0,0,1-.84-1.13h.88a1.49,1.49,0,0,0,1.55.83,1.76,1.76,0,0,0,1.33-.43,1.69,1.69,0,0,0,.42-1.25v-.73a2.16,2.16,0,0,1-1.9.95,2.39,2.39,0,0,1-1.86-.79,2.94,2.94,0,0,1,0-3.81,2.49,2.49,0,0,1,1.92-.79A2.11,2.11,0,0,1,387,459.87Zm-1.79,3.73a1.89,1.89,0,0,0,.77-.16,1.63,1.63,0,0,0,.58-.42,2.27,2.27,0,0,0,0-2.79,1.75,1.75,0,0,0-1.35-.58,1.77,1.77,0,0,0-1.38.58,2.2,2.2,0,0,0,0,2.79A1.73,1.73,0,0,0,385.22,463.6Z" transform="translate(-139 -374.5)"></path><path class="cls-2" d="M390.18,459v.83a2.88,2.88,0,0,1,.7-.65,1.7,1.7,0,0,1,.95-.27,2.52,2.52,0,0,1,.91.15,1.89,1.89,0,0,1,.67.45,2.31,2.31,0,0,1,.65,1.7v3.09h-.79v-3.07a1.6,1.6,0,0,0-.42-1.16,1.4,1.4,0,0,0-1.07-.44,1.57,1.57,0,0,0-1.6,1.62v3.05h-.79V459Z" transform="translate(-139 -374.5)"></path><path class="cls-1" d="M328.79,417.18a1.48,1.48,0,0,0,.25.35,1,1,0,0,1,.15.65,1.89,1.89,0,0,1-.35,1.1c-.24.34-.45.67-.65,1l-.81,1.3-.5.6.2-.1-.6.9-.6.51,1.4-.51,1.91-.8,1-.3a.17.17,0,0,0,.15-.05.25.25,0,0,1,.15,0,.56.56,0,0,1,.5-.15,4.53,4.53,0,0,0,.81.05.49.49,0,0,1,.45.35,1.68,1.68,0,0,0,.35.55v.4a1.16,1.16,0,0,1-.1.81,2,2,0,0,0-.2.9l-.2.2-.5.8-.71.81-1.5,1.6-2.71,3.41a4,4,0,0,0-.5.7c-.2.34-.37.6-.5.8l-.4,1.31v.2a.29.29,0,0,0,.1.2.28.28,0,0,0,.2.1l.8.1h.35a2.52,2.52,0,0,0,.65-.2,1.42,1.42,0,0,0,.36-.3c0-.07.25-.1.65-.1a2.21,2.21,0,0,1,.4-.3.93.93,0,0,1,.5-.2l.8-.3a4.13,4.13,0,0,1,.76-.61c.3-.2.38-.23.25-.1l1.6-1a17.63,17.63,0,0,0,2.16-1.4c.7-.54,1.42-1.07,2.15-1.61l3-2.51c.33-.26.59-.46.75-.6a3.55,3.55,0,0,0,.45-.4l.21-.2.6-.5a3.78,3.78,0,0,1,.5-.6,1.09,1.09,0,0,1,.8-.3c.74,0,.95.3.65.9a7.93,7.93,0,0,1-1,1.5l-.8.61a.83.83,0,0,0-.35.3,1.9,1.9,0,0,0-.25.4l-.61.4c-.26.27-.53.55-.8.85a2.41,2.41,0,0,1-.9.65,1.76,1.76,0,0,0-.7.45l-.3.36-1.21,1a22.34,22.34,0,0,1-3.66,2.51c-1,.53-1.89,1-2.56,1.4l-1.2.8a3,3,0,0,1-1.1.5l-1.41.5-1.5.2-.4-.2c-.27,0-.44,0-.5-.1a1.07,1.07,0,0,1-.7-.4c-.21-.13-.37-.25-.51-.35a.65.65,0,0,1-.2-.55l-.2-.6.4-1.71a.86.86,0,0,1,.3-.6,10.23,10.23,0,0,1,1.21-2c.13-.2.3-.44.5-.71a15.52,15.52,0,0,1,1.2-1.5l.81-1a2.56,2.56,0,0,0,.9-1l.5-.6-.1.2.7-1.1-.7.3a7.2,7.2,0,0,1-.85.35,6.73,6.73,0,0,1-1,.25l-1.1.3-.6.2a2.15,2.15,0,0,1-.7.1l-1.61-.2a1.82,1.82,0,0,1-.8-1.5.28.28,0,0,1-.1-.2v-.2a9.29,9.29,0,0,1,.9-2.81l1.31-1.91,2.4-2.3a4.35,4.35,0,0,0,.91-.6h.5Zm-2,2.2a12.42,12.42,0,0,0-1,1.31,9.74,9.74,0,0,0-.85,1.3,5.27,5.27,0,0,0-.6,1.51c0,.06.16-.17.5-.71s.56-.93.7-1.2a.28.28,0,0,1,.1-.2l.3-.3Z" transform="translate(-139 -374.5)"></path><path class="cls-1" d="M351.05,416.88a1.33,1.33,0,0,1,.8.5.46.46,0,0,0,.31.25c.13,0,.2.15.2.35v.8a.71.71,0,0,1-.05.3,1.34,1.34,0,0,0-.05.5c-.07,0-.1.11-.1.31l-1.11,1.4-1.3,1.4-.4.2a2.11,2.11,0,0,1-1.11.91l-.2.3-.4.3-.55.3-.55.3a10.16,10.16,0,0,1-2,1.2,10,10,0,0,0-.95.41l-.2.3-.7.6-.45.8a2.77,2.77,0,0,0-.35.7,3.7,3.7,0,0,1-.25.45.2.2,0,0,0-.05.15,2.16,2.16,0,0,1-.11.71,1.83,1.83,0,0,0-.1.5l.21.9c0,.13,0,.22.05.25a1.53,1.53,0,0,1,.15.25l.2.3q0-.09.3,0a1.46,1.46,0,0,0,.4.1h.6c.6-.13,1.05-.21,1.35-.25a8.9,8.9,0,0,0,1.46-.35l2.3-.9a.42.42,0,0,0,.26-.15.4.4,0,0,1,.25-.15h.1l.2-.1a.53.53,0,0,1,.4-.2,3.92,3.92,0,0,1,.85-.56c.23-.1.49-.21.75-.35l.91-.5.9-.6,1.3-.8.7-.6.4-.2.91-.51,1.8-1.4.7-.5a8.4,8.4,0,0,0,.81-.5q.6-.4.3-.3l1-.91h.2a.17.17,0,0,0,.15-.05.42.42,0,0,1,.25-.05c.34.2.52.41.55.61a4.34,4.34,0,0,1,.05.8.86.86,0,0,1-.3.6l-.5.5c-.07,0-.2.1-.4.3a1.56,1.56,0,0,1-.5.2l-2.71,2.21c-.13.13-.23.2-.3.2a.4.4,0,0,1-.3.1l-.6.5a.54.54,0,0,0-.25.1,2.3,2.3,0,0,1-.35.2l.1-.1c.2-.2.05-.08-.45.35a6.84,6.84,0,0,1-1.16.86l-.7.4-.7.3-.6.5-.71.5-.3.1c-.26.13-.58.32-.95.55a5.93,5.93,0,0,1-1.05.55.86.86,0,0,1-.6.3,1.25,1.25,0,0,1-.51.31c-.2.06-.26.06-.2,0a1,1,0,0,1-.5.25,1.56,1.56,0,0,0-.5.15l-.6.2-1.4.3a3.41,3.41,0,0,1-1.51.3,1.23,1.23,0,0,1-.35-.05,1.23,1.23,0,0,0-.35,0h-1a.09.09,0,0,1-.1-.1.92.92,0,0,1-.81-.3c-.13,0-.18,0-.15-.05s0-.09-.15-.15a2.42,2.42,0,0,1-.6-.4,1.67,1.67,0,0,1-.4-.91c0-.13,0-.21-.1-.25s-.1-.15-.1-.35a.42.42,0,0,0,0-.25.42.42,0,0,1-.05-.25l-.1-.5a1.53,1.53,0,0,0-.05-.3.42.42,0,0,1,.15-.4,3.45,3.45,0,0,1,.1-1v-.1a2.44,2.44,0,0,1,.3-.8l.4-.8a3.85,3.85,0,0,0,.15-.55.74.74,0,0,1,.35-.45l.4-.51-.1.1.3-.8.51-.6,1.1-1.8a.88.88,0,0,0,.35-.46,1.93,1.93,0,0,1,.35-.55l.4-.5,1.51-1.7.9-.81,1.6-1.3,1.61-.9h.45c.1,0,.38,0,.85-.1Zm-7.32,7.92.4-.3,1.21-.8,1.1-.81,1.4-.9h-.1a12.92,12.92,0,0,0,1.31-1.1l1-1v-.51a.29.29,0,0,1,.1-.2h-.25q-.15,0-.45.3l-.2.1a.94.94,0,0,0-.65.41c-.24.26-.42.4-.56.4a9.92,9.92,0,0,0-2.15,1.95,23.9,23.9,0,0,1-2.16,2.26Z" transform="translate(-139 -374.5)"></path><path class="cls-1" d="M369.81,417.48a1.33,1.33,0,0,1,.6.15,6.21,6.21,0,0,1,.6.35.63.63,0,0,1,.6.4c.2.14.3.27.3.4a.44.44,0,0,0,.15.4.45.45,0,0,1,.15.4v-.1a1.86,1.86,0,0,1,.3,1.26,4.54,4.54,0,0,1-.3,1.05l-.7.9-.9,1.21-.3.3a1.31,1.31,0,0,0-.3.4.28.28,0,0,0-.1.2l-.2.2-.2.2a8.44,8.44,0,0,0-.81,1.65c-.26.71-.47,1.26-.6,1.66l-.4,1.3a.4.4,0,0,1-.05.25.46.46,0,0,0,0,.26,1.57,1.57,0,0,0,.1.5,1.9,1.9,0,0,0,.05.4,1.83,1.83,0,0,1,.05.4l.3.6v-.1c0-.13.1-.1.3.1h-.1l.7.5h.4a.34.34,0,0,1,.21.1.26.26,0,0,0,.2.1c.06-.13.13-.16.2-.1a.38.38,0,0,0,.3.1.69.69,0,0,1,.5-.2h.5c.13,0,.22,0,.25-.1s.12-.1.25-.1l.8-.2.61-.2.9-.5,1.9-1.3,1-.61,1-.95a5,5,0,0,1,.95-.75l1-.9,3.52-3.31a.71.71,0,0,1,.45-.35,7.06,7.06,0,0,0,.75-.25l.5.4c.27.33.33.56.2.7a4,4,0,0,0-.5.7,17.33,17.33,0,0,0-2.31,2.31,14.26,14.26,0,0,1-1.3,1.5l-.2.2-.2.2L378.53,431l-.7.7c-.74.47-1.49,1-2.26,1.5a7.34,7.34,0,0,1-2.25,1.11.26.26,0,0,0-.2.1.46.46,0,0,1-.31.1,4.91,4.91,0,0,1-1.5.2,3.42,3.42,0,0,1-1,.1c0,.13-.14.2-.4.2a1.13,1.13,0,0,1-.51-.1,4,4,0,0,0-1-.2l.1.1a.29.29,0,0,1-.2-.1h-.1l-.7-.4A3.75,3.75,0,0,1,366,432c-.07-.53-.14-1-.21-1.55a4.12,4.12,0,0,1,.31-1.86v-.1l-.61.4-.8.7a2.85,2.85,0,0,1-1.05.81,12.35,12.35,0,0,0-1.16.6l-.2.1a7.34,7.34,0,0,1-1.35.7,8.26,8.26,0,0,0-.95.4.46.46,0,0,0-.2,0,.39.39,0,0,1-.2.05.32.32,0,0,1-.35,0,.92.92,0,0,0-.46-.1l-.5.1a1.24,1.24,0,0,1-.7-.3l-.45-.1s-.08-.17-.15-.5a.23.23,0,0,0-.15-.25c-.1,0-.15-.09-.15-.15l.2-1.41.4-.8-.2.1.3-.7.5-.9.8-1.21a.38.38,0,0,0,.1-.3l.51-.7,2.3-2.91-.2.1c.14-.13.27-.25.4-.35a3.23,3.23,0,0,0,.4-.35l1.31-1.1.8-.7-.1.2,1.81-1.31a5.92,5.92,0,0,1,1.75-.8A7,7,0,0,1,369.81,417.48Zm-10.63,11.93q-.21.4,0,.45a1.05,1.05,0,0,0,.65-.15c.3-.13.63-.3,1-.5a9.24,9.24,0,0,0,.85-.5c1-.6,1.86-1.15,2.56-1.65a18.26,18.26,0,0,0,2.16-1.86l1.6-1.6.2-.2a2.83,2.83,0,0,1,.5-.71,2.54,2.54,0,0,0,.5-.7l1.11-1.4a.21.21,0,0,1-.05-.25,1.23,1.23,0,0,0,.05-.35l-.4-.41h-.71a1.73,1.73,0,0,0-1.1.41l-.8.4a3,3,0,0,0-.5.3c-.4.27-.67.43-.8.5l-.11.2-1.3,1.1L364,423a2.76,2.76,0,0,1-.55.46,1.23,1.23,0,0,1-.8.8l-.21.5-1.7,2L360,428l-.7,1Z" transform="translate(-139 -374.5)"></path><path class="cls-1" d="M438.4,398.82h1.31a10.4,10.4,0,0,1,1.3.1,8.88,8.88,0,0,0,1.3.11h1.31a1.13,1.13,0,0,1,.6.35c.27.23.4.42.4.55v.6a2.83,2.83,0,0,1-.65.65,1.39,1.39,0,0,1-.85.35l-2-.15c-.64,0-1.29-.05-2-.05-1-.06-1.84-.1-2.51-.1h-4.41c-.87,0-2,0-3.41.1-1.14.14-2.23.25-3.26.35s-2.06.19-3.06.25a1.83,1.83,0,0,0-.5.1,2.87,2.87,0,0,0-.81.1,1.9,1.9,0,0,0-.4.05,1.79,1.79,0,0,1-.5.05l-1.3.21a10,10,0,0,1-1.21.1,4.61,4.61,0,0,1-1.3.25,8,8,0,0,0-1.6.25,1.24,1.24,0,0,1-.56,0,2.8,2.8,0,0,0-1.05.15l-2.91.7a1.23,1.23,0,0,0-.35.05,1.23,1.23,0,0,1-.35.05,1.17,1.17,0,0,1-.8.2.71.71,0,0,0-.3.05.62.62,0,0,1-.3,0l-4.52,1-1.1,1.21-2.51,3.21a9.71,9.71,0,0,1-1.15,1.65c-.44.5-.85,1-1.25,1.56l-2.71,3a15.36,15.36,0,0,1-1.61,1.91l-1.5,1.7-1.1,1.41-1.21,1.2a13.77,13.77,0,0,0-1.9,1.66c-.54.57-1.07,1.12-1.61,1.65l-1,1.41-.8,1.4-.2.2a.28.28,0,0,0-.1.2.6.6,0,0,1-.1.4,1.8,1.8,0,0,0-.3.7,2.1,2.1,0,0,0-.1.81.74.74,0,0,1-.06.25,1.18,1.18,0,0,0-.05.35.45.45,0,0,1-.1.25.88.88,0,0,0-.1.45.54.54,0,0,0,.1.25.48.48,0,0,1,.1.25l-.1.1h.1a.71.71,0,0,0,.05.3l.16.3c.06.41.36.61.9.61.2.26.73.4,1.6.4a2.91,2.91,0,0,0,1.61-.4l1.1-.41a4.41,4.41,0,0,1,.9-.4,3.41,3.41,0,0,1,.81-.2.29.29,0,0,0,.2-.1c.06,0,.1,0,.1-.05s0-.05.1-.05l.5-.2h.3l.5-.4.8-.6a.46.46,0,0,0,.2-.05l.6-.25.91-.5h-.1l1-.61-.1.1.6-.4a2,2,0,0,1,.5-.5l.6-.4a.79.79,0,0,0,.46-.2l.35-.3.8-.4-.3.1a1.22,1.22,0,0,1,.55-.45,1.8,1.8,0,0,0,.55-.35c.07,0,.14-.05.2-.15s.14-.15.2-.15a6.94,6.94,0,0,1,1.41-1.41l.8-.7v.2a1.09,1.09,0,0,1,.7-.4.15.15,0,0,0,.15-.1c0-.07.15-.1.35-.1.47,0,.7.27.7.8l-.4.4a.86.86,0,0,1-.3.6l-1.4,1.31-1.21,1.2-1,.6-.7.7a.75.75,0,0,0-.45.21,1.06,1.06,0,0,0-.35.4l-1.61,1.4v-.2c-.26.27-.46.4-.6.4l-.1.2a.65.65,0,0,1-.5.2,1.27,1.27,0,0,1-.45.3,1.37,1.37,0,0,0-.45.3,3,3,0,0,1-.7.41,2.2,2.2,0,0,1-.41.1l-.5.2h.1l-.8.6a1.37,1.37,0,0,0-.4.05,2.34,2.34,0,0,1-.5,0,.65.65,0,0,1-.6.4.4.4,0,0,0-.25.05.25.25,0,0,1-.15,0,1.11,1.11,0,0,1-.81.3l-1.5.4-.9.3a.21.21,0,0,0-.15.05.2.2,0,0,1-.15.05,1.26,1.26,0,0,1-1,0,.78.78,0,0,0-.3.05.62.62,0,0,1-.3.05l-.8-.1a7.64,7.64,0,0,1-1.76-.55,4.56,4.56,0,0,1-1-.75,1.94,1.94,0,0,1-.7-1.3v-.61a.25.25,0,0,0-.05-.15.4.4,0,0,1,0-.25v-.2a2.12,2.12,0,0,1,.1-1.1V430l.4-1.7,2-4.91.8-1.61,1.2-2.51.5-.8a1.18,1.18,0,0,1,.4-.8l-.2.2.5-.8a2.14,2.14,0,0,0,.36-.5c.1-.2.21-.47.35-.81l2-3.51c.2-.2.4-.41.6-.65a1,1,0,0,0,.3-.55,8.83,8.83,0,0,1,.56-1.1l.65-1.11a.92.92,0,0,0,.25-.4.85.85,0,0,1,.25-.4H392l-3.71.8a8.9,8.9,0,0,1-1.86.45,12.57,12.57,0,0,1-1.95.16c-.54.13-1.12.25-1.76.35s-1.25.18-1.85.25h-1.41a2.93,2.93,0,0,0-.9-.1,1.47,1.47,0,0,0-.7-.25,1,1,0,0,1-.6-.25c-.14,0-.34-.21-.6-.61l.1-.8c0-.27.3-.4.9-.4h.9c.07,0,.1,0,.1.05s0,.05.1.05h2.21l3.61-.5a14.54,14.54,0,0,0,4.11-.8l3.91-.71,1.61-.3.45-.9a1.71,1.71,0,0,1,.55-.7l.4-.6.9-1.21.7-.9v.1a.65.65,0,0,1,.41-.6.45.45,0,0,0,.1-.3l.9-.8.7-.91,1.2-1.2a.28.28,0,0,0,.1-.2l1.51-1.5,2-1.51.41-.2a8.45,8.45,0,0,0,.9-.55c.33-.23.43-.35.3-.35l1-.6.6-.41a3.85,3.85,0,0,1,1-.1,1.82,1.82,0,0,1,.5.21,2.31,2.31,0,0,1,.5.3l.4.4a.82.82,0,0,0,.2.6v1a.66.66,0,0,0-.2.45v.45a2.68,2.68,0,0,1-.05.46,2.48,2.48,0,0,0-.05.45l-.3.9a1.54,1.54,0,0,0-.2.7l-1.31,1.91a3.2,3.2,0,0,0-.45.65c-.16.3-.21.42-.15.35l-1.2,1.5-.1.21,1.3-.31a5.38,5.38,0,0,0,.86-.05c.23,0,.51-.08.85-.15l2.71-.6,1.4-.3,1.6-.4a6.82,6.82,0,0,1,1.61-.2,13.58,13.58,0,0,1,1.9-.3c.74-.07,1.37-.1,1.91-.1a1.76,1.76,0,0,1,.8-.25,6.75,6.75,0,0,1,.8-.05,1.62,1.62,0,0,1,.51-.1l3-.3,3.11-.4a.71.71,0,0,0,.3,0,1.3,1.3,0,0,1,.51-.06h2.6c.61,0,1.17,0,1.71,0s1.17-.06,1.9-.06Zm-51.75,23.57c.14-.2.32-.45.56-.75a5.73,5.73,0,0,1,.55-.65l2.5-2.71,1.11-1.2.55-.55a2.15,2.15,0,0,0,.45-.76l2.51-2.7,2.3-2.61,1.21-1.61,1.4-1.6.45-.65c.17-.24.32-.45.45-.65a23.78,23.78,0,0,0-3,.8l-2.11.4v.1l-1.71,2.81-1.5,2.1a24,24,0,0,0-1.4,2.26,27.41,27.41,0,0,0-1.31,2.66l-.4.6c-.6,1-1.14,1.94-1.6,2.81-.2.13-.3.27-.3.4Zm10.73-17.65.71-.3,2.91-.6.95-.2a6.87,6.87,0,0,0,.95-.3l.2-.2,1.2-1.81,1.51-2.3v.1l.6-.91a.29.29,0,0,1,.1-.2l.2-.2a1.7,1.7,0,0,1,.3-.8l.5-.8c.14-.47.12-.79-.05-1s-.65,0-1.45.46a8.32,8.32,0,0,0-2.21,1.9l-.4.3-.4.5-.4.4-.45.46c-.17.16-.22.18-.15.05a2.08,2.08,0,0,1-.7.6l-1.11,1.1-.5.8-1.1,1.21-.8,1Zm9.83-3.91v-.1l.1-.1Z" transform="translate(-139 -374.5)"></path><path class="cls-1" d="M405.61,419.69a.41.41,0,0,0,.2-.06.71.71,0,0,1,.3-.05,1.93,1.93,0,0,0,.45-.05c.17,0,.32.16.45.56a2,2,0,0,1-.3,1.6l-.5.6-.3.5-.1.2a2.56,2.56,0,0,0-.45.71c-.17.33-.35.67-.56,1l-.3.5.2-.1-.8,1.71-.6,2.5a1,1,0,0,0-.1.45v.36a1.91,1.91,0,0,0,.4,1.15c.27.37.84.48,1.71.35l1.85-.35a8.59,8.59,0,0,0,2-.65l1.8-.91c.54-.26,1-.5,1.31-.7l1.3-.9a6.76,6.76,0,0,1,1-.6,2.17,2.17,0,0,0,.81-.6l1.6-1.31.5-.4,1.71-1.3,1.2-1.11a.29.29,0,0,1,.1-.2.73.73,0,0,1,1,0,1.08,1.08,0,0,1-.1,1h-.1l-.4.7a6.46,6.46,0,0,1-.6.75c-.27.3-.34.39-.2.25l-1.71,1.41-.7.5-1.6,1.4a5.17,5.17,0,0,1-.86.7l-.75.5a14.81,14.81,0,0,1-1.7,1.06q-.71.35-1.41.75l-.8.4a8.65,8.65,0,0,0-1.1.55,5.26,5.26,0,0,1-1.31.55,11.78,11.78,0,0,1-1.2.41,4.46,4.46,0,0,1-1,.2,1.24,1.24,0,0,1-.8.15,8.54,8.54,0,0,0-1-.05h-.6a.92.92,0,0,1-.25-.05.65.65,0,0,0-.25,0,.18.18,0,0,1-.15-.06.47.47,0,0,0-.25,0c-.14,0-.22,0-.25-.1a.26.26,0,0,0-.25-.11l.1.11a.27.27,0,0,1-.2-.11l-.2-.15a.45.45,0,0,1-.2-.25,1.44,1.44,0,0,1-.51-.65,4.12,4.12,0,0,1-.4-2.05c.07-.61.14-1.16.2-1.66a10.94,10.94,0,0,1,.3-1.45,1,1,0,0,0,.26-.56,1.45,1.45,0,0,1,.25-.65.6.6,0,0,1,.1-.35c.06-.1.13-.21.2-.35l.3-.8c.13-.07.2-.13.2-.2a.65.65,0,0,1,.2-.5l.9-1.51.5-.7.2-.6,1.21-1.2Zm3.81-6.92.2.2a.32.32,0,0,1,.1.25.33.33,0,0,0,.1.25l.3.3v.1l.1,1.1-.35.35-.65.65-.2.1-.81.51c-.13,0-.2,0-.2-.05s0,0-.1,0a.09.09,0,0,1-.1-.1c-.33,0-.5-.24-.5-.71l-.6-.2v-.7a3.41,3.41,0,0,0,.3-.55,1.37,1.37,0,0,1,.3-.45v-.2a.54.54,0,0,1,.2-.45,4.59,4.59,0,0,1,.6-.35h.61c.06,0,.1,0,.1,0s0,.06.1.06h.1Z" transform="translate(-139 -374.5)"></path><path class="cls-1" d="M432.18,417.28a.93.93,0,0,1,.2.5,1.31,1.31,0,0,1,0,1.4c-.06.2-.13.4-.2.61a4.18,4.18,0,0,1-.3.7.53.53,0,0,1-.05.2.49.49,0,0,0-.05.2c-.27.47-.52.95-.75,1.45a9.75,9.75,0,0,1-1.15,1.76l-.51.6v.3c0,.07.06.15.16.25l.25.25.4.3.6.5a4.44,4.44,0,0,0,.75.31l.75.2h.6a.46.46,0,0,0,.31-.1,2.25,2.25,0,0,0,.8-.1,3,3,0,0,0,.4-.26.58.58,0,0,1,.3-.15,1.18,1.18,0,0,0,.4-.15,1.46,1.46,0,0,0,.4-.25,2.11,2.11,0,0,0,1.21-.7,4.76,4.76,0,0,0,.65-.55,2.5,2.5,0,0,1,.85-.55v.1a.32.32,0,0,0,.2-.1.92.92,0,0,0,.25-.05.69.69,0,0,1,.45.05,1,1,0,0,0,.1.4,1.23,1.23,0,0,0,.05.35.65.65,0,0,1,.05.25.32.32,0,0,0-.1.2.17.17,0,0,1-.05.15.25.25,0,0,0,0,.15,3.7,3.7,0,0,0-.85.7,2.49,2.49,0,0,1-.75.61l.1-.1a12,12,0,0,1-1.25.9,11.27,11.27,0,0,1-1.66.8,6,6,0,0,1-2.41.4h-.55a3,3,0,0,1-.75-.1l-1.2-.5a.4.4,0,0,1-.25-.15.42.42,0,0,0-.26-.15,6.63,6.63,0,0,1-.8-.9l-.3-.5-.1.1-.9,1.2-.4.5-.7.8-2.51,2-1.21,1a2,2,0,0,1-.75.65l-.75.35-1.91.91a5.73,5.73,0,0,1-1.3.2.6.6,0,0,0-.35.1c-.1.06-.22,0-.35-.1a2,2,0,0,1-.55-.3l-.35-.3a1.16,1.16,0,0,1-.35-.66,5.17,5.17,0,0,1-.05-.85,6.13,6.13,0,0,1,.5-2.11,1.48,1.48,0,0,0,.1-.6l.4-1q.19-.41.45-.9a4.82,4.82,0,0,0,.35-.9l.6-1.21,1-1.8c.06-.14.15-.3.25-.5a6,6,0,0,0,.25-.61v.1a.49.49,0,0,1,.15-.35.4.4,0,0,0,.15-.25l.3-.5a2.75,2.75,0,0,0,.4-.7c.07-.2.13-.44.2-.7l.5-.91.2-.55q.1-.24.9-.15a.77.77,0,0,1,.46.55,5,5,0,0,1,.05.55,1.81,1.81,0,0,1-.1.81l-.41,1c-.13.33-.26.67-.4,1a6.76,6.76,0,0,1-.5,1c-.06,0-.1.06-.1.2a.88.88,0,0,1-.1.4l-1,1.7.1-.2-2.11,4.11a11,11,0,0,0-.35,1.06,4,4,0,0,0-.15,1.05c0,.2.14.2.4,0a7.52,7.52,0,0,0,1.61-.6,15.49,15.49,0,0,0,1.4-.8l.8-.81,1.11-.8.6-.8.9-.7,1.61-1.81,1.2-1.7a1.17,1.17,0,0,0,.4-.6c.13-.07.2-.14.2-.21l.2-1.2a.54.54,0,0,1,.2-.25c.07,0,.1-.12.1-.25a7.42,7.42,0,0,1,1.71-3.31l.4-.4c.06-.2.17-.3.3-.3l.35-.05a1.93,1.93,0,0,1,.45-.05h.1Z" transform="translate(-139 -374.5)"></path><path class="cls-1" d="M447,416.88c.2,0,.46.16.8.5a.42.42,0,0,0,.3.25c.13,0,.2.15.2.35v.8a.71.71,0,0,1-.05.3,1.34,1.34,0,0,0,0,.5c-.07,0-.1.11-.1.31l-1.1,1.4-1.31,1.4-.4.2a2.13,2.13,0,0,1-1.1.91l-.2.3-.4.3-.56.3-.55.3a10.19,10.19,0,0,1-1.95,1.2,9.22,9.22,0,0,0-1,.41l-.2.3-.7.6-.45.8a3.24,3.24,0,0,0-.35.7,2.61,2.61,0,0,1-.25.45.2.2,0,0,0,0,.15,2.48,2.48,0,0,1-.1.71,1.52,1.52,0,0,0-.1.5l.2.9c0,.13,0,.22,0,.25a1.53,1.53,0,0,1,.15.25l.2.3q0-.09.3,0a1.46,1.46,0,0,0,.4.1h.6c.61-.13,1.06-.21,1.36-.25a9.09,9.09,0,0,0,1.45-.35l2.31-.9a.43.43,0,0,0,.25-.15.4.4,0,0,1,.25-.15h.1l.2-.1a.55.55,0,0,1,.4-.2,4.18,4.18,0,0,1,.85-.56c.24-.1.49-.21.76-.35l.9-.5.9-.6,1.31-.8.7-.6.4-.2.9-.51,1.81-1.4.7-.5c.13-.07.4-.23.8-.5s.5-.37.3-.3l1-.91h.21a.2.2,0,0,0,.15-.05.4.4,0,0,1,.25-.05,1.05,1.05,0,0,1,.55.61,5.45,5.45,0,0,1,.05.8.86.86,0,0,1-.3.6l-.5.5c-.07,0-.2.1-.41.3a1.48,1.48,0,0,1-.5.2l-2.7,2.21c-.14.13-.24.2-.31.2a.38.38,0,0,1-.3.1l-.6.5a.54.54,0,0,0-.25.1,2.3,2.3,0,0,1-.35.2l.1-.1c.2-.2,0-.08-.45.35a6.87,6.87,0,0,1-1.15.86l-.71.4-.7.3-.6.5-.7.5-.3.1a10.92,10.92,0,0,0-1,.55,5.61,5.61,0,0,1-1.05.55.86.86,0,0,1-.6.3,1.21,1.21,0,0,1-.5.31c-.2.06-.27.06-.2,0a1,1,0,0,1-.5.25,1.71,1.71,0,0,0-.51.15l-.6.2-1.4.3a3.36,3.36,0,0,1-1.51.3,1.23,1.23,0,0,1-.35-.05,1.18,1.18,0,0,0-.35,0h-1a.09.09,0,0,1-.1-.1.9.9,0,0,1-.8-.3c-.14,0-.19,0-.15-.05s0-.09-.15-.15a2.21,2.21,0,0,1-.61-.4,1.67,1.67,0,0,1-.4-.91c0-.13,0-.21-.1-.25s-.1-.15-.1-.35,0-.22-.05-.25a.42.42,0,0,1-.05-.25l-.1-.5a1,1,0,0,0-.05-.3.42.42,0,0,1,.15-.4,3.85,3.85,0,0,1,.1-1v-.1a2.44,2.44,0,0,1,.3-.8l.4-.8c.07-.2.12-.39.16-.55a.71.71,0,0,1,.35-.45l.4-.51-.1.1.3-.8.5-.6,1.1-1.8a.84.84,0,0,0,.35-.46,1.93,1.93,0,0,1,.35-.55l.41-.5,1.5-1.7.9-.81,1.61-1.3,1.6-.9h.45c.1,0,.39,0,.86-.1Zm-7.33,7.92.41-.3,1.2-.8,1.1-.81,1.41-.9h-.1a12.68,12.68,0,0,0,1.3-1.1l1-1v-.51a.34.34,0,0,1,.1-.2h-.25q-.15,0-.45.3l-.2.1a.94.94,0,0,0-.65.41c-.24.26-.42.4-.55.4a10,10,0,0,0-2.16,1.95,22.7,22.7,0,0,1-2.16,2.26Z" transform="translate(-139 -374.5)"></path><path class="cls-1" d="M323.6,424.05c-6.9,8-15.13,14.29-23.54,20.69-1.26,1,0,3.13,1.26,2.16,8.56-6.52,17-12.89,24.05-21.08,1-1.22-.72-3-1.77-1.77Z" transform="translate(-139 -374.5)"></path></svg>