<svg xmlns="http://www.w3.org/2000/svg" id="&#x421;&#x43B;&#x43E;&#x439;_1" data-name="&#x421;&#x43B;&#x43E;&#x439; 1" viewBox="0 0 143.44 157.31"><defs><style>.cls-1{fill:#e0b159;}.cls-2{fill:#fff;}</style></defs><path class="cls-1" d="M239.53,492.42a3.61,3.61,0,0,1,1.3.24,3.66,3.66,0,0,1,1.1,5.91,3.27,3.27,0,0,1-1.1.7,3.42,3.42,0,0,1-1.3.25h-3.18v-7.1Zm0,6.34a2.49,2.49,0,0,0,1.93-.83,3,3,0,0,0,0-3.92,2.49,2.49,0,0,0-1.93-.83H237.2v5.58Z" transform="translate(-225.92 -342.29)"></path><path class="cls-1" d="M245.22,493.19v2.38h4.19v.78h-4.19v2.39h4.7v.78h-5.55v-7.1h5.55v.77Z" transform="translate(-225.92 -342.29)"></path><path class="cls-1" d="M252.07,493.51a.87.87,0,0,0-.29.39,1.34,1.34,0,0,0-.08.46.62.62,0,0,0,.22.44,1.76,1.76,0,0,0,.59.34,5.12,5.12,0,0,0,.83.25l.95.22c.33.07.64.16,1,.26a3.49,3.49,0,0,1,.83.37,1.47,1.47,0,0,1,.81,1.31,1.72,1.72,0,0,1-.8,1.53,4.94,4.94,0,0,1-4.6-.1,2.14,2.14,0,0,1-.85-1.59h.89a1.32,1.32,0,0,0,.75,1.12,3.47,3.47,0,0,0,1.63.33c1.42,0,2.12-.42,2.12-1.25a.78.78,0,0,0-.38-.68,3.59,3.59,0,0,0-1-.41l-1.24-.3a8.6,8.6,0,0,1-1.24-.35,3,3,0,0,1-1-.58,1.3,1.3,0,0,1-.38-1,1.73,1.73,0,0,1,.71-1.42,4.31,4.31,0,0,1,4.35.08,1.8,1.8,0,0,1,.76,1.4h-.87c-.08-.59-.48-1-1.21-1.17a3.73,3.73,0,0,0-1-.11,3.3,3.3,0,0,0-1,.13A1.73,1.73,0,0,0,252.07,493.51Z" transform="translate(-225.92 -342.29)"></path><path class="cls-1" d="M259.06,499.52h-.85v-7.1h.85Z" transform="translate(-225.92 -342.29)"></path><path class="cls-1" d="M262.6,492.62a3.68,3.68,0,0,1,1.42-.29,4.73,4.73,0,0,1,1.26.15,4,4,0,0,1,1,.41,3.32,3.32,0,0,1,1.32,1.46h-.93a2.41,2.41,0,0,0-1-.91,2.93,2.93,0,0,0-1.38-.32,3.44,3.44,0,0,0-1.32.22,2.58,2.58,0,0,0-.92.6,3,3,0,0,0,0,4.05,3.13,3.13,0,0,0,4,.21,2.1,2.1,0,0,0,.82-1.73H264.1v-.73h3.54v3.78h-.79v-1.26a3,3,0,0,1-1.8,1.23,4.22,4.22,0,0,1-1.11.11,3.5,3.5,0,0,1-1.37-.28,3.39,3.39,0,0,1-1.16-.78,3.65,3.65,0,0,1,1.19-5.92Z" transform="translate(-225.92 -342.29)"></path><path class="cls-1" d="M275.65,492.42v7.1h-1l-4.65-6v6h-.86v-7.1h1l4.66,6v-6Z" transform="translate(-225.92 -342.29)"></path><path class="cls-1" d="M291.35,499.52h-.94l-.93-2.06h-3.73l-.93,2.06h-.94l3.2-7.1h1.07Zm-2.2-2.8-1.53-3.46-1.54,3.46Z" transform="translate(-225.92 -342.29)"></path><path class="cls-1" d="M293.39,499.52h-.85v-7.1h3.61a2.72,2.72,0,0,1,1.84.6,2,2,0,0,1,.7,1.62,1.8,1.8,0,0,1-1.18,1.81,3.23,3.23,0,0,1-.65.2l2,2.87h-1L296,496.79h-2.62Zm0-3.49H296a1.8,1.8,0,0,0,1.66-.71,1.24,1.24,0,0,0,.17-.68,1.29,1.29,0,0,0-.49-1.07,2,2,0,0,0-1.3-.39h-2.65Z" transform="translate(-225.92 -342.29)"></path><path class="cls-1" d="M305.63,493.19H303v6.33h-.85v-6.33h-2.63v-.77h6.11Z" transform="translate(-225.92 -342.29)"></path><path class="cls-1" d="M313.86,492.62a3.59,3.59,0,0,1,1.41-.29,4.73,4.73,0,0,1,1.26.15,4,4,0,0,1,1,.41,3.32,3.32,0,0,1,1.32,1.46h-.93a2.45,2.45,0,0,0-.95-.91,3,3,0,0,0-1.39-.32,3.51,3.51,0,0,0-1.32.22,2.67,2.67,0,0,0-.92.6,3,3,0,0,0,0,4.05,3.11,3.11,0,0,0,4,.21,2.1,2.1,0,0,0,.82-1.73h-2.75v-.73h3.54v3.78h-.79v-1.26a3,3,0,0,1-1.8,1.23,4.22,4.22,0,0,1-1.11.11,3.53,3.53,0,0,1-1.37-.28,3.49,3.49,0,0,1-1.16-.78,3.82,3.82,0,0,1,0-5.14A3.43,3.43,0,0,1,313.86,492.62Z" transform="translate(-225.92 -342.29)"></path><path class="cls-1" d="M327,499.52h-1l-.92-2.06h-3.74l-.92,2.06h-.95l3.21-7.1h1.07Zm-2.2-2.8-1.54-3.46-1.54,3.46Z" transform="translate(-225.92 -342.29)"></path><path class="cls-1" d="M329,492.42v6.32h4.11v.78h-5v-7.1Z" transform="translate(-225.92 -342.29)"></path><path class="cls-1" d="M335.32,492.42v6.32h4.11v.78h-5v-7.1Z" transform="translate(-225.92 -342.29)"></path><path class="cls-1" d="M341.61,493.19v2.38h4.2v.78h-4.2v2.39h4.7v.78h-5.55v-7.1h5.55v.77Z" transform="translate(-225.92 -342.29)"></path><path class="cls-1" d="M348.77,499.52h-.86v-7.1h3.61a2.73,2.73,0,0,1,1.85.6,2,2,0,0,1,.69,1.62,1.79,1.79,0,0,1-1.17,1.81,3.44,3.44,0,0,1-.65.2l2,2.87h-1l-1.82-2.73h-2.62Zm0-3.49h2.61a1.82,1.82,0,0,0,1.66-.71,1.24,1.24,0,0,0,.17-.68,1.29,1.29,0,0,0-.49-1.07,2,2,0,0,0-1.3-.39h-2.65Z" transform="translate(-225.92 -342.29)"></path><path class="cls-1" d="M358.69,499.52h-.86v-2.81l-3.16-4.29h1l2.55,3.45,2.56-3.45h1l-3.15,4.29Z" transform="translate(-225.92 -342.29)"></path><rect class="cls-1" width="1" height="140.99"></rect><rect class="cls-1" x="142.44" width="1" height="140.99"></rect><rect class="cls-1" x="70.83" width="1" height="140.99"></rect><path class="cls-2" d="M251.17,351.52a24.9,24.9,0,0,1,10.13-2.16,32,32,0,0,1,9.07,1.14,27.91,27.91,0,0,1,6.94,3.1,24.69,24.69,0,0,1,9.47,11.11h-6.69a17.74,17.74,0,0,0-6.82-6.9,19.71,19.71,0,0,0-9.93-2.49,24.16,24.16,0,0,0-9.47,1.67,19,19,0,0,0-6.62,4.62q-5.55,6-5.55,15.43t5.47,15.44q5.81,6.28,15.36,6.29A19.74,19.74,0,0,0,275.76,394a16.38,16.38,0,0,0,5.88-13.15H261.87v-5.55h25.4v28.75h-5.63v-9.56a22.38,22.38,0,0,1-12.91,9.4,31.71,31.71,0,0,1-8,.81,24.23,24.23,0,0,1-9.84-2.16,24.48,24.48,0,0,1-8.33-5.92q-7-7.68-7-19.61,0-11.76,7.27-19.6A24.68,24.68,0,0,1,251.17,351.52Z" transform="translate(-225.92 -342.29)"></path><path class="cls-2" d="M260.77,405.48a24.94,24.94,0,0,1-10.14-2.23,25.34,25.34,0,0,1-8.59-6.1c-4.79-5.23-7.22-12-7.22-20.11s2.52-14.76,7.47-20.11a25.58,25.58,0,0,1,8.58-6.1h0a25.83,25.83,0,0,1,10.43-2.22,32.83,32.83,0,0,1,9.28,1.17,28.71,28.71,0,0,1,7.13,3.19,25.57,25.57,0,0,1,9.76,11.44l.46,1h-8.28l-.22-.38a17.05,17.05,0,0,0-6.54-6.62,19,19,0,0,0-9.55-2.39,23.49,23.49,0,0,0-9.18,1.61,18.23,18.23,0,0,0-6.35,4.43c-3.56,3.87-5.36,8.9-5.36,14.93s1.77,11.12,5.27,14.93c3.7,4,8.68,6,14.81,6a19.05,19.05,0,0,0,12.74-4.56,15.61,15.61,0,0,0,5.61-11.83H261.12v-7.05H288v30.25h-7.13v-8a23.25,23.25,0,0,1-11.95,7.82A32.58,32.58,0,0,1,260.77,405.48Zm-9.29-53.27A23.72,23.72,0,0,0,243.4,358c-4.7,5.06-7.08,11.48-7.08,19.09s2.3,14.15,6.83,19.1a23.91,23.91,0,0,0,8.08,5.74,23.44,23.44,0,0,0,9.54,2.1,30.77,30.77,0,0,0,7.77-.79A21.71,21.71,0,0,0,281,394.11l1.38-2.08v11.3h4.13V376.08h-23.9v4.05h19.77v.75a17.2,17.2,0,0,1-6.15,13.73,20.53,20.53,0,0,1-13.71,4.91c-6.56,0-11.92-2.2-15.91-6.53-3.76-4.1-5.67-9.46-5.67-15.95s1.93-11.79,5.75-15.94a19.82,19.82,0,0,1,6.87-4.8,25,25,0,0,1,9.77-1.73,20.52,20.52,0,0,1,10.3,2.59,18.55,18.55,0,0,1,6.88,6.8h5.09a24.07,24.07,0,0,0-8.71-9.73,27.11,27.11,0,0,0-6.75-3,31.31,31.31,0,0,0-8.85-1.11,24.05,24.05,0,0,0-9.82,2.1Z" transform="translate(-225.92 -342.29)"></path><path class="cls-2" d="M333.5,349.36q12.09,0,19.85,8.08,7.59,7.85,7.6,19.6t-7.6,19.61q-7.75,8.09-19.85,8.08t-19.84-8.08q-7.61-7.84-7.6-19.61t7.6-19.6Q321.41,349.36,333.5,349.36Zm0,49.41q9.64,0,15.6-6.29,5.72-6,5.72-15.44t-5.72-15.43q-6-6.28-15.6-6.29t-15.6,6.29q-5.72,6-5.71,15.43t5.71,15.44Q323.87,398.77,333.5,398.77Z" transform="translate(-225.92 -342.29)"></path><path class="cls-2" d="M333.5,405.48c-8.23,0-15.09-2.8-20.39-8.31-5.17-5.35-7.8-12.12-7.8-20.13s2.63-14.77,7.81-20.12c5.29-5.52,12.15-8.31,20.38-8.31s15.1,2.79,20.39,8.31c5.18,5.35,7.81,12.12,7.81,20.12s-2.63,14.78-7.81,20.13C348.6,402.68,341.74,405.48,333.5,405.48Zm0-55.37c-7.81,0-14.3,2.64-19.3,7.85s-7.39,11.48-7.39,19.08,2.48,14,7.38,19.09S325.69,404,333.5,404s14.31-2.64,19.31-7.85a28.34,28.34,0,0,0,0-38.17C347.81,352.75,341.31,350.11,333.5,350.11Zm0,49.41c-6.61,0-12-2.19-16.14-6.52-3.93-4.16-5.92-9.52-5.92-16s2-11.79,5.92-16c4.1-4.33,9.53-6.52,16.14-6.52s12,2.19,16.15,6.52c3.93,4.16,5.92,9.53,5.92,16s-2,11.8-5.92,16C345.54,397.33,340.11,399.52,333.5,399.52Zm0-43.45c-6.18,0-11.24,2-15.05,6.05-3.66,3.87-5.51,8.89-5.51,14.92s1.85,11.06,5.51,14.92c3.8,4,8.87,6.06,15.05,6.06s11.25-2,15.06-6.06c3.66-3.86,5.51-8.88,5.51-14.92s-1.85-11.05-5.51-14.92S339.68,356.07,333.5,356.07Z" transform="translate(-225.92 -342.29)"></path><path class="cls-2" d="M261.38,420.81q12.09,0,19.85,8.09,7.59,7.85,7.6,19.6t-7.6,19.6q-7.75,8.1-19.85,8.09t-19.84-8.09q-7.6-7.83-7.6-19.6t7.6-19.6Q249.3,420.82,261.38,420.81Zm0,49.42q9.64,0,15.6-6.29,5.72-6,5.72-15.44T277,433.07q-6-6.3-15.6-6.29t-15.6,6.29q-5.72,6-5.71,15.43t5.71,15.44Q251.75,470.23,261.38,470.23Z" transform="translate(-225.92 -342.29)"></path><path class="cls-2" d="M261.38,476.94c-8.23,0-15.09-2.8-20.39-8.32-5.17-5.34-7.8-12.11-7.8-20.12s2.63-14.77,7.81-20.12c5.29-5.52,12.15-8.32,20.38-8.32s15.1,2.8,20.39,8.32c5.18,5.35,7.81,12.12,7.81,20.12s-2.63,14.78-7.81,20.13C276.48,474.14,269.62,476.94,261.38,476.94Zm0-55.38c-7.81,0-14.3,2.65-19.3,7.86-4.91,5.06-7.39,11.48-7.39,19.08s2.48,14,7.38,19.08c5,5.22,11.5,7.86,19.31,7.86s14.31-2.64,19.31-7.85a28.34,28.34,0,0,0,0-38.17C275.69,424.21,269.19,421.56,261.38,421.56Zm0,49.42c-6.61,0-12-2.2-16.14-6.53-3.93-4.15-5.92-9.52-5.92-15.95s2-11.79,5.92-15.95c4.1-4.33,9.53-6.52,16.14-6.52s12,2.19,16.15,6.52c3.93,4.16,5.92,9.52,5.92,15.95s-2,11.8-5.92,15.95C273.42,468.78,268,471,261.38,471Zm0-43.45c-6.18,0-11.24,2-15,6.05s-5.51,8.89-5.51,14.92,1.85,11.06,5.51,14.92c3.8,4,8.87,6.06,15,6.06s11.25-2,15.06-6.06c3.66-3.86,5.51-8.88,5.51-14.92s-1.85-11.05-5.51-14.92S267.56,427.53,261.38,427.53Z" transform="translate(-225.92 -342.29)"></path><path class="cls-2" d="M332.85,421.47a24.44,24.44,0,0,1,9.31,1.83,23.27,23.27,0,0,1,7.92,5.35q7.6,7.77,7.6,19.85t-7.6,19.85a23.27,23.27,0,0,1-7.92,5.35,24.45,24.45,0,0,1-9.31,1.84H310.06V421.47Zm-.24,48.27a17.22,17.22,0,0,0,13.8-6.29,24.31,24.31,0,0,0,0-29.9,17.21,17.21,0,0,0-13.8-6.28H316.19v42.47Z" transform="translate(-225.92 -342.29)"></path><path class="cls-2" d="M332.85,476.29H309.31V420.72h23.54a25.19,25.19,0,0,1,9.6,1.89,24.3,24.3,0,0,1,8.17,5.52c5.18,5.29,7.81,12.15,7.81,20.37s-2.63,15.08-7.81,20.37a24.1,24.1,0,0,1-8.18,5.52A25.12,25.12,0,0,1,332.85,476.29Zm-22-1.5h22a23.79,23.79,0,0,0,9-1.78,22.87,22.87,0,0,0,7.67-5.18c4.9-5,7.38-11.51,7.38-19.33s-2.48-14.32-7.38-19.32a22.72,22.72,0,0,0-7.67-5.18,23.79,23.79,0,0,0-9-1.78h-22Zm21.8-4.3H315.44v-44h17.17A18,18,0,0,1,347,433.07a25.05,25.05,0,0,1,0,30.87A18,18,0,0,1,332.61,470.49ZM316.94,469h15.67a16.56,16.56,0,0,0,13.22-6,23.55,23.55,0,0,0,0-28.93,16.57,16.57,0,0,0-13.23-6H316.94Z" transform="translate(-225.92 -342.29)"></path></svg>