<svg xmlns="http://www.w3.org/2000/svg" id="&#x421;&#x43B;&#x43E;&#x439;_1" data-name="&#x421;&#x43B;&#x43E;&#x439; 1" viewBox="0 0 136.06 106.62"><defs><style>.cls-1{fill:#fff;}.cls-2{fill:#e0b159;}.cls-3{fill:none;}</style></defs><path class="cls-1" d="M274,404.68a5.12,5.12,0,0,0-1.54-.66,8.38,8.38,0,0,0-1.93-.22h-3.82v7.48h3.82a6.27,6.27,0,0,0,3.55-.9,3.15,3.15,0,0,0,1.31-2.86,3.57,3.57,0,0,0-.38-1.69A3,3,0,0,0,274,404.68Zm-3.92,5h-.82v-4h.82c1.75,0,2.62.67,2.62,2S271.87,409.66,270.12,409.66Z" transform="translate(-229.61 -367.43)"></path><path class="cls-1" d="M273.68,401.64a3.64,3.64,0,0,0,0-4.84,4.28,4.28,0,0,0-3.08-.92h-3.85v6.68h3.85A4.28,4.28,0,0,0,273.68,401.64Zm-4.38-1V397.5h.82c1.15,0,1.73.53,1.73,1.58s-.58,1.59-1.73,1.59Z" transform="translate(-229.61 -367.43)"></path><path class="cls-1" d="M279.55,405.39a7.73,7.73,0,0,0-.95-1.66,6.18,6.18,0,0,0-1.38-1.24,4.21,4.21,0,0,0,.86-1,7.52,7.52,0,0,0,.59-1.29,5.75,5.75,0,0,0,.27-1.88,6,6,0,0,0-.57-2.7,5.2,5.2,0,0,0-1.58-1.93,7.16,7.16,0,0,0-2.45-1.18,11.92,11.92,0,0,0-3.15-.39h-9v23h9.37a11.6,11.6,0,0,0,3.5-.5,7.22,7.22,0,0,0,2.65-1.45,6.37,6.37,0,0,0,1.67-2.29,7.4,7.4,0,0,0,.59-3A6.27,6.27,0,0,0,279.55,405.39Zm-4.33,5.77a6.76,6.76,0,0,1-4.62,1.36h-5.17V394.64h5.17a6.09,6.09,0,0,1,3.89,1.14,4.16,4.16,0,0,1,1.46,3.44,4,4,0,0,1-.5,2.09,4.38,4.38,0,0,1-1.1,1.28,4.52,4.52,0,0,1-.92.56,5.31,5.31,0,0,1,1.32.62,5.73,5.73,0,0,1,1.35,1.38h0a4,4,0,0,1,.64,2.37A4.67,4.67,0,0,1,275.22,411.16Z" transform="translate(-229.61 -367.43)"></path><path class="cls-2" d="M244.71,406.25a15.11,15.11,0,1,0,15.11,15.11A15.1,15.1,0,0,0,244.71,406.25Zm8.19,22c-.49.39-1,.78-1.62,1.16a12.14,12.14,0,0,1-2,1,15.11,15.11,0,0,1-2.3.72,12.9,12.9,0,0,1-6.09-.18,7,7,0,0,1-2.41-1.24,4.84,4.84,0,0,1-1.41-1.88,6,6,0,0,1-.45-2.34,5.37,5.37,0,0,1,.8-3,7.26,7.26,0,0,1,2.13-2.07,6.51,6.51,0,0,1-1.12-1.7,5,5,0,0,1-.44-2.1,5.62,5.62,0,0,1,.47-2.29,5.48,5.48,0,0,1,1.29-1.82,6,6,0,0,1,1.93-1.18,6.83,6.83,0,0,1,2.41-.43,7.43,7.43,0,0,1,2.6.44,6.15,6.15,0,0,1,2,1.22,5.24,5.24,0,0,1,1.27,1.84,6.16,6.16,0,0,1,.44,2.33,4.36,4.36,0,0,1-.79,2.61,8.49,8.49,0,0,1-1.9,1.93l2.66,2.23c.24-.24.47-.48.69-.73s.5-.6.84-1l3.92,3.34a20,20,0,0,1-1.38,1.67A16,16,0,0,1,252.9,428.23Zm-1.49-2.69a9.88,9.88,0,0,1-1.12.91,12.45,12.45,0,0,1-2.51,1.33,9.17,9.17,0,0,1-3.43.6,6.55,6.55,0,0,1-1.44-.16,4.57,4.57,0,0,1-1.33-.53,3,3,0,0,1-1-1,2.65,2.65,0,0,1-.4-1.49,2.85,2.85,0,0,1,.73-2,7,7,0,0,1,2.05-1.42l.88-.44,4.57,3.81.56-.38L244.5,421a10.64,10.64,0,0,0,2.57-1.89,3.42,3.42,0,0,0,1-2.48,3.15,3.15,0,0,0-.31-1.4,3.23,3.23,0,0,0-.83-1.1,3.72,3.72,0,0,0-1.25-.7,4.55,4.55,0,0,0-1.53-.25,3.87,3.87,0,0,0-1.38.25,3.79,3.79,0,0,0-1.2.7,3.22,3.22,0,0,0-1.14,2.53,3.23,3.23,0,0,0,.58,1.92,8.66,8.66,0,0,0,1.58,1.66l.74.61-.71.35a11,11,0,0,0-1.21.72,4.91,4.91,0,0,0-1,.88,3.73,3.73,0,0,0-.66,1.08,3.4,3.4,0,0,0-.25,1.34,3.31,3.31,0,0,0,.41,1.69,3.59,3.59,0,0,0,1.08,1.21,5.1,5.1,0,0,0,1.55.7,7.32,7.32,0,0,0,1.82.23,9.44,9.44,0,0,0,3.6-.64,13.33,13.33,0,0,0,2.7-1.44,12.18,12.18,0,0,0,2.31-2.11l-.56-.38A12.41,12.41,0,0,1,251.41,425.54ZM243,419.77a5.74,5.74,0,0,1-1.52-1.69,3,3,0,0,1-.35-1.39,2.68,2.68,0,0,1,.82-2,2.93,2.93,0,0,1,2.14-.79,3.78,3.78,0,0,1,1.15.18,2.94,2.94,0,0,1,1,.52,2.89,2.89,0,0,1,.72.87,2.39,2.39,0,0,1,.28,1.18,2.92,2.92,0,0,1-.88,2.24,11,11,0,0,1-2.46,1.66Zm2-2.39a1.31,1.31,0,0,0,.3-.86,1,1,0,0,0-1.09-1.09,1.09,1.09,0,0,0-.8.31,1.06,1.06,0,0,0-.31.78,1.6,1.6,0,0,0,.19.77,3.35,3.35,0,0,0,.75.87A3.59,3.59,0,0,0,245,417.38Zm-2.28,7.69a1.12,1.12,0,0,0,.56,1,2.41,2.41,0,0,0,1.25.34,5.57,5.57,0,0,0,.9-.08,4.71,4.71,0,0,0,.86-.22l-2.84-2.4A1.62,1.62,0,0,0,242.74,425.07Z" transform="translate(-229.61 -367.43)"></path><rect class="cls-2" x="14.48" y="24.99" width="1.25" height="15.25"></rect><rect class="cls-2" x="14.48" y="66.04" width="1.25" height="16.88"></rect><path class="cls-2" d="M336.13,439.74v-3.59h1.58a2.24,2.24,0,0,1,.73.1.83.83,0,0,1,.4.34,1,1,0,0,1,.15.54.86.86,0,0,1-.25.64,1.23,1.23,0,0,1-.76.34,1.56,1.56,0,0,1,.28.17,2.83,2.83,0,0,1,.4.48l.62,1h-.6l-.47-.75c-.14-.21-.25-.38-.34-.49a.89.89,0,0,0-.24-.24.62.62,0,0,0-.22-.1h-.81v1.59Zm.47-2h1a1.78,1.78,0,0,0,.51-.06.54.54,0,0,0,.27-.22.53.53,0,0,0,.1-.32.54.54,0,0,0-.18-.42.89.89,0,0,0-.59-.16H336.6Z" transform="translate(-229.61 -367.43)"></path><path class="cls-2" d="M341.75,438.9l.45.06a1.08,1.08,0,0,1-.39.61,1.21,1.21,0,0,1-.75.22,1.15,1.15,0,0,1-.9-.35,1.37,1.37,0,0,1-.33-1,1.47,1.47,0,0,1,.33-1,1.16,1.16,0,0,1,.88-.36,1.1,1.1,0,0,1,.85.36,1.39,1.39,0,0,1,.33,1v.12h-1.94a1.07,1.07,0,0,0,.24.66.74.74,0,0,0,.55.22.71.71,0,0,0,.41-.12A.92.92,0,0,0,341.75,438.9Zm-1.44-.71h1.44a.81.81,0,0,0-.16-.49.68.68,0,0,0-.55-.26.69.69,0,0,0-.51.21A.79.79,0,0,0,340.31,438.19Z" transform="translate(-229.61 -367.43)"></path><path class="cls-2" d="M342.88,439l.44-.07a.57.57,0,0,0,.2.4.68.68,0,0,0,.47.14.71.71,0,0,0,.45-.12.38.38,0,0,0,.14-.29.25.25,0,0,0-.13-.23,1.83,1.83,0,0,0-.45-.15,5.17,5.17,0,0,1-.67-.22.6.6,0,0,1-.28-.24.71.71,0,0,1-.1-.35.69.69,0,0,1,.08-.32.88.88,0,0,1,.22-.25.81.81,0,0,1,.28-.12,1.16,1.16,0,0,1,.38-.06,1.44,1.44,0,0,1,.53.09.78.78,0,0,1,.35.24,1,1,0,0,1,.15.4l-.43.06a.48.48,0,0,0-.17-.31.62.62,0,0,0-.4-.12.75.75,0,0,0-.43.1.3.3,0,0,0-.13.24.25.25,0,0,0,.05.15.37.37,0,0,0,.17.12l.39.11a5,5,0,0,1,.65.21.66.66,0,0,1,.29.23.62.62,0,0,1,.1.37.79.79,0,0,1-.12.42.85.85,0,0,1-.37.3,1.38,1.38,0,0,1-.55.1,1.22,1.22,0,0,1-.77-.21A1,1,0,0,1,342.88,439Z" transform="translate(-229.61 -367.43)"></path><path class="cls-2" d="M346.82,439.34l.06.39a1.35,1.35,0,0,1-.33,0,.75.75,0,0,1-.37-.08.41.41,0,0,1-.19-.2,1.73,1.73,0,0,1-.05-.51v-1.5h-.32v-.34h.32v-.64l.44-.26v.9h.44v.34h-.44V439a.63.63,0,0,0,0,.24.16.16,0,0,0,.07.09.33.33,0,0,0,.15,0Z" transform="translate(-229.61 -367.43)"></path><path class="cls-2" d="M349.24,439.42a1.87,1.87,0,0,1-.47.29,1.29,1.29,0,0,1-.49.08,1,1,0,0,1-.65-.2.68.68,0,0,1-.23-.54.82.82,0,0,1,.08-.35.79.79,0,0,1,.23-.25,1.15,1.15,0,0,1,.32-.14,1.84,1.84,0,0,1,.39-.07,3.69,3.69,0,0,0,.78-.15c0-.06,0-.1,0-.12a.49.49,0,0,0-.13-.37,1,1,0,0,0-1,0,.66.66,0,0,0-.22.38l-.43-.06a1.05,1.05,0,0,1,.2-.44.88.88,0,0,1,.39-.27,1.68,1.68,0,0,1,.58-.09,1.54,1.54,0,0,1,.54.08.72.72,0,0,1,.31.2.83.83,0,0,1,.14.3,3.18,3.18,0,0,1,0,.4v.59a5.62,5.62,0,0,0,0,.77.76.76,0,0,0,.11.32h-.46A.85.85,0,0,1,349.24,439.42Zm0-1a3.21,3.21,0,0,1-.71.17,1.5,1.5,0,0,0-.39.09.39.39,0,0,0-.17.14.37.37,0,0,0-.06.21.36.36,0,0,0,.13.29.57.57,0,0,0,.39.12.94.94,0,0,0,.45-.11.72.72,0,0,0,.29-.31,1,1,0,0,0,.07-.44Z" transform="translate(-229.61 -367.43)"></path><path class="cls-2" d="M352.33,439.74v-.39a.94.94,0,0,1-.82.44,1.18,1.18,0,0,1-.43-.08.69.69,0,0,1-.43-.55,2,2,0,0,1,0-.41v-1.61h.44v1.44a2.25,2.25,0,0,0,0,.46.43.43,0,0,0,.17.28.59.59,0,0,0,.33.1.73.73,0,0,0,.38-.11.57.57,0,0,0,.24-.27,1.39,1.39,0,0,0,.07-.51v-1.39h.44v2.6Z" transform="translate(-229.61 -367.43)"></path><path class="cls-2" d="M353.71,439.74v-2.6h.39v.39a1.17,1.17,0,0,1,.28-.36.49.49,0,0,1,.28-.09.94.94,0,0,1,.46.14l-.16.41a.62.62,0,0,0-.32-.09.5.5,0,0,0-.26.08.51.51,0,0,0-.16.24,1.72,1.72,0,0,0-.07.52v1.36Z" transform="translate(-229.61 -367.43)"></path><path class="cls-2" d="M357.37,439.42a1.87,1.87,0,0,1-.47.29,1.29,1.29,0,0,1-.49.08,1,1,0,0,1-.65-.2.68.68,0,0,1-.23-.54.82.82,0,0,1,.08-.35.79.79,0,0,1,.23-.25,1.15,1.15,0,0,1,.32-.14,1.84,1.84,0,0,1,.39-.07,3.69,3.69,0,0,0,.78-.15c0-.06,0-.1,0-.12a.49.49,0,0,0-.13-.37,1,1,0,0,0-1,0,.66.66,0,0,0-.22.38l-.43-.06a1.05,1.05,0,0,1,.2-.44.88.88,0,0,1,.39-.27,1.68,1.68,0,0,1,.58-.09,1.54,1.54,0,0,1,.54.08.72.72,0,0,1,.31.2.83.83,0,0,1,.14.3,3.18,3.18,0,0,1,0,.4v.59a5.62,5.62,0,0,0,0,.77.76.76,0,0,0,.11.32h-.46A.85.85,0,0,1,357.37,439.42Zm0-1a3.18,3.18,0,0,1-.72.17,1.51,1.51,0,0,0-.38.09.39.39,0,0,0-.17.14.37.37,0,0,0-.06.21.36.36,0,0,0,.13.29.57.57,0,0,0,.39.12.94.94,0,0,0,.45-.11.72.72,0,0,0,.29-.31,1,1,0,0,0,.07-.44Z" transform="translate(-229.61 -367.43)"></path><path class="cls-2" d="M358.76,439.74v-2.6h.39v.37a1,1,0,0,1,.83-.43,1,1,0,0,1,.43.09.69.69,0,0,1,.3.22.83.83,0,0,1,.13.32,2.1,2.1,0,0,1,0,.43v1.6h-.44v-1.58a1.25,1.25,0,0,0-.05-.4.5.5,0,0,0-.19-.22.58.58,0,0,0-.3-.08.72.72,0,0,0-.49.18.92.92,0,0,0-.2.68v1.42Z" transform="translate(-229.61 -367.43)"></path><path class="cls-2" d="M362.8,439.34l.06.39a1.35,1.35,0,0,1-.33,0,.75.75,0,0,1-.37-.08.35.35,0,0,1-.18-.2,1.37,1.37,0,0,1-.06-.51v-1.5h-.32v-.34h.32v-.64l.44-.26v.9h.44v.34h-.44V439a1,1,0,0,0,0,.24.18.18,0,0,0,.08.09.28.28,0,0,0,.15,0Z" transform="translate(-229.61 -367.43)"></path><rect class="cls-2" x="106.69" y="74.81" width="3.65" height="0.42"></rect><path class="cls-1" d="M274,439.36a4.88,4.88,0,0,0-1.54-.66,8.38,8.38,0,0,0-1.93-.22h-3.82V446h3.82a6.35,6.35,0,0,0,3.55-.9,3.15,3.15,0,0,0,1.31-2.86,3.57,3.57,0,0,0-.38-1.69A3,3,0,0,0,274,439.36Zm-3.92,5h-.82v-4h.82c1.75,0,2.62.67,2.62,2S271.87,444.34,270.12,444.34Z" transform="translate(-229.61 -367.43)"></path><path class="cls-1" d="M273.68,436.32a3.64,3.64,0,0,0,0-4.84,4.28,4.28,0,0,0-3.08-.92h-3.85v6.68h3.85A4.28,4.28,0,0,0,273.68,436.32Zm-4.38-1v-3.17h.82c1.15,0,1.73.53,1.73,1.59s-.58,1.58-1.73,1.58Z" transform="translate(-229.61 -367.43)"></path><path class="cls-1" d="M279.55,440.07a7.73,7.73,0,0,0-.95-1.66,6,6,0,0,0-1.38-1.24,4.21,4.21,0,0,0,.86-1,7.89,7.89,0,0,0,.59-1.29,5.79,5.79,0,0,0,.27-1.88,6,6,0,0,0-.57-2.71,5.28,5.28,0,0,0-1.58-1.93,7.34,7.34,0,0,0-2.45-1.17,11.92,11.92,0,0,0-3.15-.39h-9v23h9.37a11.6,11.6,0,0,0,3.5-.5,7.52,7.52,0,0,0,2.65-1.45,6.37,6.37,0,0,0,1.67-2.29,7.47,7.47,0,0,0,.59-3A6.27,6.27,0,0,0,279.55,440.07Zm-4.33,5.77a6.76,6.76,0,0,1-4.62,1.36h-5.17V429.31h5.17a6.09,6.09,0,0,1,3.89,1.15A4.15,4.15,0,0,1,276,433.9a4,4,0,0,1-.5,2.09,4.66,4.66,0,0,1-1.1,1.28,4.08,4.08,0,0,1-.92.55,5.69,5.69,0,0,1,1.32.62,5.92,5.92,0,0,1,1.35,1.38h0a4.09,4.09,0,0,1,.64,2.38A4.69,4.69,0,0,1,275.22,445.84Z" transform="translate(-229.61 -367.43)"></path><path class="cls-1" d="M281.53,392.09v23h7.78v-23Zm4.55,20.43h-1.32V394.64h1.32Z" transform="translate(-229.61 -367.43)"></path><path class="cls-1" d="M305.21,405.77a9.55,9.55,0,0,0-1.13-2.1A10.31,10.31,0,0,0,302.6,402c-.54-.48-1-.91-1.49-1.27s-.82-.69-1.13-1-.47-.5-.47-.69a.6.6,0,0,1,.21-.48,1.35,1.35,0,0,1,.48-.24,2.7,2.7,0,0,1,.59-.09h.51c.26,0,.5,0,.73,0l.62.07.62.07V392l-1.48-.21-1.49-.16c-.55-.05-1.1-.08-1.65-.08a9.94,9.94,0,0,0-3,.43,7.19,7.19,0,0,0-2.43,1.26,5.76,5.76,0,0,0-1.62,2.06,6.64,6.64,0,0,0-.58,2.86,6.47,6.47,0,0,0,.48,2.57,8.36,8.36,0,0,0,1.22,2,11.86,11.86,0,0,0,1.59,1.58c.56.46,1.09.88,1.58,1.26a13.48,13.48,0,0,1,1.22,1,1.3,1.3,0,0,1,.49.91c0,.79-.53,1.18-1.59,1.18a14.76,14.76,0,0,1-1.77-.11,13.73,13.73,0,0,1-1.57-.27,11.53,11.53,0,0,1-1.59-.38v6.89a16.08,16.08,0,0,0,1.83.41c.57.12,1.24.21,2,.3a23,23,0,0,0,2.43.12,11.14,11.14,0,0,0,3.76-.57,7.31,7.31,0,0,0,2.6-1.55,6.07,6.07,0,0,0,1.5-2.31,8.3,8.3,0,0,0,.48-2.84A7,7,0,0,0,305.21,405.77ZM302,410.22a3.93,3.93,0,0,1-1.22,1.4,5,5,0,0,1-1.71.78,8.22,8.22,0,0,1-1.93.23,10,10,0,0,1-1.1-.06c-.36,0-.7-.07-1-.12s-.71-.1-1-.17l-.17,0v-1.32l.25.05c.32.07.65.13,1,.17a11.38,11.38,0,0,0,2.1.17,4.71,4.71,0,0,0,3-.82,2.74,2.74,0,0,0,1-2.35,3.12,3.12,0,0,0-.47-1.61,8,8,0,0,0-1.24-1.56c-.51-.51-1.07-1-1.65-1.53a22.58,22.58,0,0,1-1.66-1.58,9.4,9.4,0,0,1-1.31-1.69,3.72,3.72,0,0,1-.53-1.91,3.21,3.21,0,0,1,1.3-2.81,5.4,5.4,0,0,1,3.18-.88h.62l.55.06.49,0h.21V396h-.21a5.49,5.49,0,0,1-.58,0,4.89,4.89,0,0,0-.55-.05,4.36,4.36,0,0,0-3,.6,2.17,2.17,0,0,0-.71,1.76,2.74,2.74,0,0,0,.46,1.49,8.76,8.76,0,0,0,1.25,1.51c.52.52,1.07,1,1.64,1.52a23.08,23.08,0,0,1,1.67,1.6,8.89,8.89,0,0,1,1.31,1.77,4,4,0,0,1,.52,2A4.38,4.38,0,0,1,302,410.22Z" transform="translate(-229.61 -367.43)"></path><path class="cls-1" d="M304.89,392.09v6h4.24v16.95h7.58V398.12H321v-6Zm13.61,3.79h-4.93v16.64h-1.31V395.88h-4.92v-1.24H318.5Z" transform="translate(-229.61 -367.43)"></path><path class="cls-1" d="M335.79,401a4.52,4.52,0,0,0-1.69-3.77,7.69,7.69,0,0,0-4.78-1.33H326.7V406h2.62a7.69,7.69,0,0,0,4.78-1.32A4.45,4.45,0,0,0,335.79,401Zm-3.7,1.82a4,4,0,0,1-2.22.59h-.38v-5.1h.38a4,4,0,0,1,2.22.59,2.55,2.55,0,0,1,0,3.92Z" transform="translate(-229.61 -367.43)"></path><path class="cls-1" d="M337.24,407.49a7.19,7.19,0,0,0,1.55-1.52,8.75,8.75,0,0,0,1.07-2,8,8,0,0,0,.48-2.93,9,9,0,0,0-.77-3.85,8,8,0,0,0-2.15-2.8,9.69,9.69,0,0,0-3.26-1.73,13.64,13.64,0,0,0-4.08-.58h-7.93v23h7.34v-5.82l3.45,5.82h8.61Zm-.59,5h-1.56L331.83,407a13,13,0,0,1-2.51.24H326.7v5.24h-1.31V394.64h3.93a11,11,0,0,1,3.05.4,7.49,7.49,0,0,1,2.47,1.21,5.77,5.77,0,0,1,1.66,2,6,6,0,0,1,.61,2.75,5.66,5.66,0,0,1-1.15,3.66,6.53,6.53,0,0,1-2.82,2Z" transform="translate(-229.61 -367.43)"></path><path class="cls-1" d="M364.72,398.91a12.13,12.13,0,0,0-2.58-3.84,12.32,12.32,0,0,0-3.84-2.59,12.17,12.17,0,0,0-9.38,0,12.32,12.32,0,0,0-3.84,2.59,12.13,12.13,0,0,0-2.58,3.84,12,12,0,0,0,0,9.37,12.13,12.13,0,0,0,2.58,3.84,12,12,0,0,0,3.84,2.59,12.05,12.05,0,0,0,9.38,0,12,12,0,0,0,3.84-2.59,12.13,12.13,0,0,0,2.58-3.84,12,12,0,0,0,0-9.37Zm-2.79,8.2A9.15,9.15,0,0,1,360,410a9,9,0,0,1-2.87,1.94,9,9,0,0,1-7,0,9.12,9.12,0,0,1-4.81-4.81,9,9,0,0,1,0-7,9,9,0,0,1,1.94-2.88,9.15,9.15,0,0,1,2.87-1.94,9.15,9.15,0,0,1,7,0,9.15,9.15,0,0,1,2.87,1.94,9,9,0,0,1,1.94,2.88,9,9,0,0,1,0,7Z" transform="translate(-229.61 -367.43)"></path><path class="cls-1" d="M359.06,398.14a7.81,7.81,0,0,0-2.45-1.66,7.8,7.8,0,0,0-6,0,7.81,7.81,0,0,0-2.45,1.66,8,8,0,0,0-1.66,2.46,7.68,7.68,0,0,0,0,6,7.92,7.92,0,0,0,1.66,2.45,7.81,7.81,0,0,0,2.45,1.66,7.8,7.8,0,0,0,6,0,7.81,7.81,0,0,0,2.45-1.66,7.92,7.92,0,0,0,1.66-2.45,7.68,7.68,0,0,0,0-6A8,8,0,0,0,359.06,398.14Zm-1,7.33a4.79,4.79,0,0,1-1,1.54,5,5,0,0,1-1.53,1,4.84,4.84,0,0,1-3.76,0,5,5,0,0,1-1.53-1,4.79,4.79,0,0,1-1-1.54,4.82,4.82,0,0,1,0-3.75,4.64,4.64,0,0,1,1-1.53,4.88,4.88,0,0,1,1.53-1,4.84,4.84,0,0,1,3.76,0,4.88,4.88,0,0,1,1.53,1,4.64,4.64,0,0,1,1,1.53,4.82,4.82,0,0,1,0,3.75Z" transform="translate(-229.61 -367.43)"></path><path class="cls-1" d="M296,444.23l-5.08-13.3-5.07,13.3Zm-3.53-1.62h-3.1l1.55-4Z" transform="translate(-229.61 -367.43)"></path><path class="cls-1" d="M293.69,426.77h-5.51l-8.72,23h7.24l.75-2.07h7l.76,2.07h7.24Zm2.78,18.71H285.39l-.65,1.72h-1.41l6.8-17.89h1.6l6.81,17.89h-1.41Z" transform="translate(-229.61 -367.43)"></path><path class="cls-1" d="M319.17,442.17a7.68,7.68,0,0,0,1.55-1.52,8.84,8.84,0,0,0,1.07-2,7.92,7.92,0,0,0,.48-2.93,9,9,0,0,0-.78-3.84,7.85,7.85,0,0,0-2.15-2.81,9.62,9.62,0,0,0-3.25-1.72,13.75,13.75,0,0,0-4.09-.58h-7.92v23h7.34v-5.83l3.44,5.83h8.62Zm-.6,5H317l-3.26-5.49a12.31,12.31,0,0,1-2.52.25h-2.61v5.24h-1.32V429.31h3.93a11,11,0,0,1,3.06.41,7.33,7.33,0,0,1,2.46,1.2,5.72,5.72,0,0,1,2.27,4.73,5.63,5.63,0,0,1-1.15,3.67,6.6,6.6,0,0,1-2.81,2Z" transform="translate(-229.61 -367.43)"></path><path class="cls-1" d="M317.72,435.65a4.51,4.51,0,0,0-1.69-3.76,7.71,7.71,0,0,0-4.79-1.33h-2.61v10.16h2.61A7.77,7.77,0,0,0,316,439.4,4.46,4.46,0,0,0,317.72,435.65Zm-3.7,1.83a4,4,0,0,1-2.22.59h-.38V433h.38a4,4,0,0,1,2.22.58,2.58,2.58,0,0,1,0,3.93Z" transform="translate(-229.61 -367.43)"></path><rect class="cls-3" x="2.5" width="133.23" height="1.26"></rect><rect class="cls-3" x="5.61" y="105.41" width="127.56" height="1.21"></rect></svg>