<svg xmlns="http://www.w3.org/2000/svg" id="&#x421;&#x43B;&#x43E;&#x439;_1" data-name="&#x421;&#x43B;&#x43E;&#x439; 1" viewBox="0 0 178.45 163.26"><defs><style>.cls-1{fill:#fff;}.cls-2{fill:#e0b159;}</style></defs><path class="cls-1" d="M219.66,371.59c6.91-4.33,14.24-4.08,19-.33,4.16,3.25,6.49,9.16,7.07,17.74.42,6.49-.75,11.9-3.41,16.23A18.09,18.09,0,0,1,227,413.64a17.7,17.7,0,0,1-13.24-6.07,20.89,20.89,0,0,1-5.33-13.08,30.09,30.09,0,0,1,2.25-12.07,21.56,21.56,0,0,1,7.16-9.24A6.13,6.13,0,0,1,219.66,371.59Zm-5,19.07a21.74,21.74,0,0,0,1.67,12.16c1.91,4.66,5.25,8.41,9,8.74,4,.34,8.08-2.66,10.41-6.58a28.19,28.19,0,0,0,3.58-12.07,32.44,32.44,0,0,0-1.33-14,14.56,14.56,0,0,0-4.41-6.66c-2-1.67-3.92-2.08-5.83-1.17.66.42.91.67.66.92s-.75.08-1.58-.25C220.41,376.67,215.83,383.25,214.66,390.66Z" transform="translate(-208.41 -339.31)"></path><path class="cls-1" d="M255.21,414.23c.17,1.16-5.49,3.91-5.83,1.83a109.25,109.25,0,0,1-1.16-21.73c.08-.59,1.08-1.09,3.16-1.17,2.25-.08,3.42.42,3.33,1.33l-.25,3.83a19.62,19.62,0,0,1,9.5-2.58,1.9,1.9,0,0,1,1.58,1c.5.58.25.92-.75,1-5,.33-8.25,2.75-9.24,6.41-.09.25-.42.42-1.09.5C254.55,407.73,254.88,410.9,255.21,414.23Z" transform="translate(-208.41 -339.31)"></path><path class="cls-1" d="M269.78,403.07a16,16,0,0,0,0,6.58c.34,1.75,2.17,1.83,4.08-.25a2.75,2.75,0,0,1,1.09-.67c-.42-1.58-1-3.83-1.92-6.74-.58-1.84.08-3.42,1.83-4.83,1.25-1,2.17-1.17,2.75-.5a1,1,0,0,1,.25.75c.25,1.25.75,3.33,1.58,6.16l1.83,6.16a78.39,78.39,0,0,0,8.33-5.91,6.51,6.51,0,0,1,5.33-1.42c1.42.25,1.83.75,1.42,1.5a1.77,1.77,0,0,1-.75.83l-13.24,10a1.08,1.08,0,0,1,.08.5q1.24,7-2.25,10.49c-2,2.08-5.33,3.08-10,3.16a5.36,5.36,0,0,1-3.91-1.83,3,3,0,0,1-.84-3.83A18.43,18.43,0,0,1,269.7,418a51.7,51.7,0,0,1,6.25-4.83v-.08a9.88,9.88,0,0,1-6.17.5c-3.66-.92-6.66-4.16-6.58-7.83a11.68,11.68,0,0,1,3.59-8.16,11.41,11.41,0,0,1,8.16-3.66,2.76,2.76,0,0,1,2.74,1.41c.42.67.34,1-.33.92a3.66,3.66,0,0,1-.75-.17A8.43,8.43,0,0,0,269.78,403.07Zm.59,23.06c-.34.42-.17.59.58.59a5,5,0,0,0,3.91-1.84c1-1,1.5-2.66,1.58-5.07A59.59,59.59,0,0,0,270.37,426.13Z" transform="translate(-208.41 -339.31)"></path><path class="cls-1" d="M309.25,405.48a22.48,22.48,0,0,0,2.16,7.08c.92,1.92,2.84,1.58,4.42-.75.58-.83,1.83-1.08,3.75-.83,1.58.25,2.33.75,2.24,1.5a1.31,1.31,0,0,1-.41.83c-2.75,3.08-7.25,4-9.83,3a9.94,9.94,0,0,1-6.16-4.91,9.64,9.64,0,0,1-4.58,1.49,12.75,12.75,0,0,1-6.66-1.49c-2.08-1.09-3.17-2.75-3.08-4.67a15,15,0,0,1,4.08-10.07,13.7,13.7,0,0,1,9.24-4.83,2.12,2.12,0,0,1,1.5.66c2-.08,3.66.5,3.33,1.59A37.56,37.56,0,0,0,309.25,405.48Zm-6.66-9.66c-2.42,2.09-4,5.25-5.08,9.58-.58,2.33-.42,5.25.58,5.33a3.2,3.2,0,0,0,2.17-.67,14,14,0,0,0,3.33-3.58A32.76,32.76,0,0,1,302.59,395.82Z" transform="translate(-208.41 -339.31)"></path><path class="cls-1" d="M321,396.07c2.58-2.41,5.16-3.16,7.83-2.41,1.83.17,3.25,2.5,4.08,4.25a25.24,25.24,0,0,1,1.5,4.66c.16.42.33,1.25.66,2.58s.5,2,.5,2.17l.84,3.08c.08.08.25,0,.33-.25a44.51,44.51,0,0,1,3.91-5.58c.83-1.08,2.17-1.33,4-.92,1.5.34,2.08.92,1.83,1.83l-.25.59c-4.83,6.24-9,8.49-12.57,6.91a8.29,8.29,0,0,1-3.92-5.41,23.57,23.57,0,0,1-.66-2.34l-.58-2.66-.42-2.25c-.5-2.75-1.17-4.08-1.83-4.16-.25-.09-.59.16-1,.66a17.77,17.77,0,0,0-3,7,2.17,2.17,0,0,1-.5.83l.67,8.49c.08,1.34-5.92,3.67-6.08,1.5-.34-3.33-.75-10.16-1.67-20.56,0-1.34,5.91-3.83,6.08-1.59Z" transform="translate(-208.41 -339.31)"></path><path class="cls-1" d="M346.55,380.42c0,.5-5.49,3.33-5.74,1.42a17.63,17.63,0,0,1-.42-4.92c.09-.25,6.75-1,6.33.92A4,4,0,0,0,346.55,380.42Zm1.67,29.23c.75,2.91,2.41,5,4.08,4.58a3.53,3.53,0,0,0,1.66-1.09,29.16,29.16,0,0,0,3.42-4.33c.91-1.24,2.41-1.83,4.58-1.66,1.58.08,2.25.58,2.16,1.41a3.27,3.27,0,0,1-.5.92c-6.08,6.83-14,8.24-17.9,5-3.58-2.92-5.16-9.16-4.75-18.91.09-1.08,1.09-1.91,3-2.41s3.17-.33,3.58.5a2.15,2.15,0,0,1,.09.75C347.05,400.57,347.22,405.65,348.22,409.65Z" transform="translate(-208.41 -339.31)"></path><path class="cls-1" d="M364.21,403.15c-1.17,3.25-.92,5.58.58,7.16,1.41,1.42,3.5,1.75,6.33.92a20.06,20.06,0,0,0,8.41-5.33,7.2,7.2,0,0,1,5.41-2c1.42.09,2,.42,1.92,1.17a2.29,2.29,0,0,1-.84,1.25c-6.41,6.24-13.65,8.82-19.23,7.74a12.86,12.86,0,0,1-6.5-3.33,7.65,7.65,0,0,1-2.83-6,6.16,6.16,0,0,1,3.08-5.16,17.72,17.72,0,0,1,7.08-2.91,4.6,4.6,0,0,1,4.16.91c.59.5.42.84-.5,1a1.13,1.13,0,0,1-.58.09C367.12,399.74,364.87,401.24,364.21,403.15Z" transform="translate(-208.41 -339.31)"></path><path class="cls-2" d="M251.37,377.45V380h4v.81h-4V384h-.84v-7.36h5.32v.8Z" transform="translate(-208.41 -339.31)"></path><path class="cls-2" d="M261,383.12a2.26,2.26,0,0,1-2,1,2.54,2.54,0,0,1-2-.83,3,3,0,0,1-.73-2,2.91,2.91,0,0,1,.73-2,2.56,2.56,0,0,1,2-.84,2.21,2.21,0,0,1,1.94,1v-.9h.83V384H261Zm-1.88.22a1.74,1.74,0,0,0,1.42-.62,2.47,2.47,0,0,0,0-3,1.77,1.77,0,0,0-1.42-.62,1.87,1.87,0,0,0-1.45.62,2.39,2.39,0,0,0,0,3A1.84,1.84,0,0,0,259.13,383.34Z" transform="translate(-208.41 -339.31)"></path><path class="cls-2" d="M266.22,378.36v.84h-.1a1.76,1.76,0,0,0-1.46.72,2.59,2.59,0,0,0-.54,1.64V384h-.83v-5.56h.83v1.37a2,2,0,0,1,1.16-1.28,2,2,0,0,1,.89-.18Z" transform="translate(-208.41 -339.31)"></path><path class="cls-2" d="M268,379.3a1.82,1.82,0,0,1,1.69-.94,1.9,1.9,0,0,1,1,.3,2,2,0,0,1,.74.83,2.12,2.12,0,0,1,1.18-1,2,2,0,0,1,.72-.12,2.05,2.05,0,0,1,.78.16,2,2,0,0,1,.66.46,2.36,2.36,0,0,1,.63,1.67V384h-.84v-3.34a1.67,1.67,0,0,0-.39-1.13,1.28,1.28,0,0,0-1-.42,1.46,1.46,0,0,0-1.05.41,1.51,1.51,0,0,0-.45,1.16V384h-.83v-3.34a1.67,1.67,0,0,0-.39-1.13,1.29,1.29,0,0,0-1-.42,1.48,1.48,0,0,0-1.06.41,1.54,1.54,0,0,0-.44,1.16V384h-.84v-5.56H268Z" transform="translate(-208.41 -339.31)"></path><path class="cls-2" d="M288.12,384h-.92l-.9-2.13h-3.65l-.9,2.13h-.92l3.12-7.36H285Zm-2.15-2.9-1.5-3.59-1.5,3.59Z" transform="translate(-208.41 -339.31)"></path><path class="cls-2" d="M289.71,378.45v.87a2.67,2.67,0,0,1,.74-.68,1.76,1.76,0,0,1,1-.28,2.45,2.45,0,0,1,.95.16,1.94,1.94,0,0,1,.7.46,2.42,2.42,0,0,1,.69,1.8V384H293V380.8a1.73,1.73,0,0,0-.44-1.23,1.47,1.47,0,0,0-1.12-.45,1.63,1.63,0,0,0-1.68,1.69V384h-.83v-5.56Z" transform="translate(-208.41 -339.31)"></path><path class="cls-2" d="M299.51,383.12a2.25,2.25,0,0,1-2,1,2.55,2.55,0,0,1-2-.83,3,3,0,0,1-.73-2,2.91,2.91,0,0,1,.73-2,2.6,2.6,0,0,1,2-.84,2.2,2.2,0,0,1,1.93,1v-3.12h.83V384h-.83Zm-1.88.22a1.73,1.73,0,0,0,1.42-.62,2.47,2.47,0,0,0,0-3,1.76,1.76,0,0,0-1.42-.62,1.85,1.85,0,0,0-1.44.62,2.36,2.36,0,0,0,0,3A1.82,1.82,0,0,0,297.63,383.34Z" transform="translate(-208.41 -339.31)"></path><path class="cls-2" d="M310,383.29a2.4,2.4,0,0,0,1.38-.4,2.48,2.48,0,0,0,.89-1.08h.87a3.23,3.23,0,0,1-1.21,1.65,3.55,3.55,0,0,1-2.12.64,3.39,3.39,0,0,1-2.62-1.1,4.26,4.26,0,0,1,0-5.34,3.39,3.39,0,0,1,2.62-1.1,3.62,3.62,0,0,1,2.12.64,3.27,3.27,0,0,1,1.21,1.65h-.87a2.4,2.4,0,0,0-2.27-1.48,3.36,3.36,0,0,0-1.32.23,2.41,2.41,0,0,0-.87.63,3.39,3.39,0,0,0,0,4.2A2.76,2.76,0,0,0,310,383.29Z" transform="translate(-208.41 -339.31)"></path><path class="cls-2" d="M318.54,383.12a2.26,2.26,0,0,1-2,1,2.54,2.54,0,0,1-2-.83,3,3,0,0,1-.73-2,2.91,2.91,0,0,1,.73-2,2.58,2.58,0,0,1,2-.84,2.21,2.21,0,0,1,1.94,1v-.9h.83V384h-.83Zm-1.88.22a1.74,1.74,0,0,0,1.42-.62,2.47,2.47,0,0,0,0-3,1.77,1.77,0,0,0-1.42-.62,1.87,1.87,0,0,0-1.45.62,2.39,2.39,0,0,0,0,3A1.84,1.84,0,0,0,316.66,383.34Z" transform="translate(-208.41 -339.31)"></path><path class="cls-2" d="M323.21,376.93a1.25,1.25,0,0,0-.88.26,1,1,0,0,0-.3.84v.42h1.29v.73H322V384h-.83v-4.83h-1v-.73h1V378a1.7,1.7,0,0,1,.54-1.37,2.3,2.3,0,0,1,1.51-.45h.07v.79Z" transform="translate(-208.41 -339.31)"></path><path class="cls-2" d="M326.6,383.34a1.7,1.7,0,0,0,1.62-.93h.91a2.74,2.74,0,0,1-.92,1.22,2.6,2.6,0,0,1-1.62.47,2.68,2.68,0,0,1-2-.83,2.82,2.82,0,0,1-.77-2,2.88,2.88,0,0,1,.73-2,2.86,2.86,0,0,1,4.05,0,2.88,2.88,0,0,1,.73,2v.33h-4.66a2,2,0,0,0,.62,1.27A1.86,1.86,0,0,0,326.6,383.34Zm-.06-4.22a1.81,1.81,0,0,0-1.29.48,1.92,1.92,0,0,0-.6,1.19h3.78a2,2,0,0,0-.6-1.19A1.84,1.84,0,0,0,326.54,379.12Z" transform="translate(-208.41 -339.31)"></path><path class="cls-1" d="M252.32,421c-4.08.83-8.24,4.66-11.24,9.66a20.18,20.18,0,0,0-2.91,12.49c.41,4.66,2.66,9,6.57,10.82,6,2.84,14.41,3.09,21.32,1a33.33,33.33,0,0,0,6.08-2.49c2.08-1.09,4.41-2.5,7.08-4.17s4.66-2.91,5.91-3.66a11.83,11.83,0,0,1,7.58-1.83c1.33.25,1.58.75.83,1.58l-1.42.91c-1,.67-3.16,1.92-6.33,3.84-6.24,3.74-10.15,5.91-14.82,7.32a44.73,44.73,0,0,1-24.39.5c-5.42-1.33-10.5-4.33-13.08-9.07-2.58-4.92-2.16-11.24.25-16.24,2.58-5.25,7-9.66,11.74-11.49,5.92-2.33,13.58-2.5,17.74,2.16,2.16,2.42,2.66,4.92,1.58,7.58-.58,1.58-1.41,2.33-2.41,2.33-.84,0-1.25-.75-1.34-2.16C259.4,424.07,256.24,420.16,252.32,421Z" transform="translate(-208.41 -339.31)"></path><path class="cls-1" d="M306.69,446a22.3,22.3,0,0,0,2.17,7.08c.91,1.91,2.83,1.58,4.41-.75.58-.83,1.83-1.08,3.75-.83q2.37.38,2.25,1.5a1.32,1.32,0,0,1-.42.83c-2.75,3.08-7.24,4-9.83,3a10,10,0,0,1-6.16-4.92,9.55,9.55,0,0,1-4.58,1.5,12.78,12.78,0,0,1-6.66-1.5,5,5,0,0,1-3.08-4.66,15.09,15.09,0,0,1,4.08-10.08,13.72,13.72,0,0,1,9.24-4.82,2.08,2.08,0,0,1,1.5.66c2-.08,3.67.5,3.33,1.58A37.63,37.63,0,0,0,306.69,446ZM300,436.31c-2.41,2.08-4,5.25-5.08,9.58-.58,2.33-.41,5.24.58,5.33a3.2,3.2,0,0,0,2.17-.67A13.85,13.85,0,0,0,301,447,32.81,32.81,0,0,1,300,436.31Z" transform="translate(-208.41 -339.31)"></path><path class="cls-1" d="M321.85,428.73a35.63,35.63,0,0,0,1.5-9v-1.41c-3.09,1.08-6.25,5.41-7.66,9.41a19.21,19.21,0,0,0,.08,12.24l1.25,4,1.41,4.42c.67,2,1.5,5.57,2.08,8.16l.84-.84a12.65,12.65,0,0,1,7.49-4c1.25-.17,1.83.16,1.75.91a4.86,4.86,0,0,1-1,1.75,54.94,54.94,0,0,1-8.58,6.83,22.65,22.65,0,0,1-2,11.24,11.24,11.24,0,0,1-4,4.41,8.48,8.48,0,0,1-5.16,1.75c-4.42-.16-8.08-6.74-4.92-10.41.75-.91,1.92-2,2.59-2.74s2.33-1.75,2.91-2.34l3.08-2,1.5-1,1.5-.84-.17-.66a81.29,81.29,0,0,0-3.58-10.24,70.79,70.79,0,0,1-3.66-11.25,19.49,19.49,0,0,1,1.58-11.74,17.89,17.89,0,0,1,8.58-8.91c2-1,4.24-.83,6.66.59s3.83,3.33,3.91,5.83a13.93,13.93,0,0,1-2.83,9.16c-2.58,3.58-5.25,5.49-8,5.91-1.34.25-2,0-2-.75-.09-.42.25-.92,1-1.5A30.6,30.6,0,0,0,321.85,428.73Zm-6,35.89c-3.33,2.5-5.58,4.58-6.41,6.58-.75,1.75-.83,5.25-.17,5.25s1.42-.75,2.25-1.83c1.67-2.09,2.42-3.75,4-7.08a11.77,11.77,0,0,0,1-3.42Z" transform="translate(-208.41 -339.31)"></path><path class="cls-1" d="M338.33,437.73c.25-.67-.08-1-.83-.92a5.27,5.27,0,0,0-3,1.58,9.8,9.8,0,0,0-3.41,6.25,12.71,12.71,0,0,0,.17,4.33c.33,1.5.91,2.41,1.66,2.66a14.39,14.39,0,0,0,15.91-4,5.71,5.71,0,0,1,4.66-1.5c1.58.08,2.25.5,2.16,1.25a2.13,2.13,0,0,1-.58,1c-4.33,4.49-10.57,6.66-18.65,6.41-4.25-.17-7.41-1.5-9.41-4.08-2.58-3.33-2.67-8.5-.25-11.41a13.55,13.55,0,0,1,11.82-5c2.25.34,3.75,1.67,4.42,4.25a8.38,8.38,0,0,1-1.09,7.16c-.75,1.25-2.16,1.75-4.16,1.5-1.58-.17-2.33-.67-2.33-1.58a1.83,1.83,0,0,1,.5-1.17A50.74,50.74,0,0,0,338.33,437.73Z" transform="translate(-208.41 -339.31)"></path><path class="cls-2" d="M377,420.9s0,1,0,2.83c0,.92,0,2.06-.09,3.39,0,.67-.05,1.4-.11,2.16s-.16,1.58-.25,2.44A76.2,76.2,0,0,1,374.28,444a78.29,78.29,0,0,1-5.87,15.12,80.14,80.14,0,0,1-18.25,23.4,73.69,73.69,0,0,1-8.76,6.71,79.51,79.51,0,0,1-20.85,9.86,83.8,83.8,0,0,1-11.61,2.62,90,90,0,0,1-12,.91,91,91,0,0,1-11.93-.91,83.8,83.8,0,0,1-11.61-2.62,79.51,79.51,0,0,1-20.85-9.86,74.7,74.7,0,0,1-8.76-6.7,82,82,0,0,1-7.44-7.48,80.11,80.11,0,0,1-10.81-15.93A77.65,77.65,0,0,1,219.67,444a76.2,76.2,0,0,1-2.33-12.24c-.09-.86-.17-1.67-.25-2.44s-.08-1.48-.11-2.15c-.07-1.34-.11-2.48-.09-3.4l0-2.83s.05,1,.16,2.82c0,.92.14,2,.29,3.38.08.66.15,1.37.24,2.13s.23,1.56.36,2.4a75,75,0,0,0,2.86,12,83.84,83.84,0,0,0,6.35,14.59,82.46,82.46,0,0,0,11,15.2,78.81,78.81,0,0,0,7.38,7.07c1.31,1.16,2.74,2.2,4.14,3.3.71.53,1.45,1,2.18,1.54s1.48,1,2.25,1.5a79.28,79.28,0,0,0,31.38,11.72,86,86,0,0,0,11.55.82,85,85,0,0,0,11.46-.82,80.66,80.66,0,0,0,11.18-2.46,79.74,79.74,0,0,0,20.2-9.25c.77-.47,1.52-1,2.25-1.5s1.48-1,2.19-1.55c1.4-1.1,2.82-2.14,4.13-3.29a77.68,77.68,0,0,0,7.38-7.08,82.2,82.2,0,0,0,11-15.2,84.27,84.27,0,0,0,6.35-14.59,76.17,76.17,0,0,0,2.85-12c.13-.85.25-1.65.37-2.41s.16-1.47.23-2.13c.15-1.32.27-2.45.3-3.38Z" transform="translate(-208.41 -339.31)"></path><path class="cls-2" d="M242.14,362.56l1.2-1.2,1.45-1.43,2.06-1.85a70.14,70.14,0,0,1,5.89-4.64c1.16-.86,2.48-1.67,3.84-2.58s2.86-1.73,4.46-2.53a71.27,71.27,0,0,1,10.6-4.64,72.78,72.78,0,0,1,12.54-3.25,78.32,78.32,0,0,1,13.87-1.12l3.49.12a33.91,33.91,0,0,1,3.57.26l3.61.39c1.2.17,2.38.42,3.56.62a83.54,83.54,0,0,1,13.8,3.92,80.39,80.39,0,0,1,12.42,6.2c.95.6,1.91,1.17,2.84,1.77l2.66,1.92c1.79,1.22,3.37,2.64,4.95,4l1.17,1,1.09,1.05,2.12,2.05a27,27,0,0,1,1.95,2.08l1.82,2.05c.3.33.59.67.88,1l.79,1c.52.68,1,1.35,1.53,2,1,1.27,1.83,2.59,2.63,3.8a69.91,69.91,0,0,1,3.8,6.46,26.07,26.07,0,0,1,1.2,2.49l.84,1.87.7,1.54-.85-1.47c-.58-.94-1.33-2.38-2.45-4.11s-2.45-3.84-4.24-6.07c-.87-1.13-1.76-2.37-2.85-3.54l-1.61-1.86-.83-1-.91-.93a86.66,86.66,0,0,0-8.31-7.6c-1.59-1.22-3.17-2.53-4.95-3.64l-2.63-1.78c-.91-.55-1.85-1.08-2.79-1.63A85,85,0,0,0,325,347.53a80.55,80.55,0,0,0-13.29-3.66c-1.13-.21-2.27-.45-3.4-.63l-3.41-.39-1.7-.19c-.56-.07-1.16-.06-1.74-.1l-3.5-.14a82.42,82.42,0,0,0-13.31.81A79,79,0,0,0,272.39,346a82.14,82.14,0,0,0-10.53,4c-1.62.69-3.07,1.54-4.51,2.23s-2.74,1.5-3.94,2.26c-2.44,1.49-4.51,2.9-6.16,4.11L245,360.21c-.62.51-1.15.94-1.59,1.28Z" transform="translate(-208.41 -339.31)"></path></svg>