<svg xmlns="http://www.w3.org/2000/svg" id="&#x421;&#x43B;&#x43E;&#x439;_1" data-name="&#x421;&#x43B;&#x43E;&#x439; 1" viewBox="0 0 159 179.56"><defs><style>.cls-1{fill:#e0b159;}.cls-2{fill:#fff;}</style></defs><path class="cls-1" d="M283.87,409.47l1.38.19a2.14,2.14,0,0,1,.7-1.24,2.48,2.48,0,0,1,1.47-.35,2.38,2.38,0,0,1,1.61.48,1.59,1.59,0,0,1,.39,1.22v.36a12.34,12.34,0,0,1-2.52.49,10.84,10.84,0,0,0-1.25.21,3.4,3.4,0,0,0-1,.47,2.29,2.29,0,0,0-.73.81,2.31,2.31,0,0,0-.28,1.11,2.23,2.23,0,0,0,.74,1.72,3.07,3.07,0,0,0,2.11.67,4.27,4.27,0,0,0,1.56-.28,5,5,0,0,0,1.5-.94,3.11,3.11,0,0,0,.29,1h1.47a3.08,3.08,0,0,1-.36-1,20.07,20.07,0,0,1-.09-2.49v-1.88a7.59,7.59,0,0,0-.07-1.3,2.13,2.13,0,0,0-.44-1,2.22,2.22,0,0,0-1-.63,4.91,4.91,0,0,0-1.73-.25,5.48,5.48,0,0,0-1.89.29,2.73,2.73,0,0,0-1.24.84A3.3,3.3,0,0,0,283.87,409.47Zm5.55,2.29a3.43,3.43,0,0,1-.23,1.41,2.18,2.18,0,0,1-.93,1,2.91,2.91,0,0,1-1.45.36,1.78,1.78,0,0,1-1.25-.38,1.18,1.18,0,0,1-.43-.94,1.21,1.21,0,0,1,.19-.67,1.25,1.25,0,0,1,.56-.45,5.28,5.28,0,0,1,1.23-.29,10.07,10.07,0,0,0,2.31-.53Z" transform="translate(-218.14 -331.17)"></path><path class="cls-1" d="M299.28,407.89a2.15,2.15,0,0,0-.95-.71,3.47,3.47,0,0,0-1.38-.27,3,3,0,0,0-2.65,1.37v-1.19H293v8.33h1.41v-4.55a2.81,2.81,0,0,1,.66-2.17,2.27,2.27,0,0,1,1.55-.57,1.87,1.87,0,0,1,1,.25,1.39,1.39,0,0,1,.58.69,3.75,3.75,0,0,1,.16,1.28v5.07h1.42V410.3a8.27,8.27,0,0,0-.08-1.37A2.8,2.8,0,0,0,299.28,407.89Z" transform="translate(-218.14 -331.17)"></path><path class="cls-1" d="M307.36,414.37v1.05h1.31V403.93h-1.41v4.12a2.71,2.71,0,0,0-2.29-1.14,3.32,3.32,0,0,0-1.86.54,3.28,3.28,0,0,0-1.25,1.55,6.06,6.06,0,0,0-.41,2.26,5.33,5.33,0,0,0,.45,2.26,3.65,3.65,0,0,0,1.3,1.54,3.33,3.33,0,0,0,1.83.55A2.61,2.61,0,0,0,307.36,414.37Zm-4.46-3.11a3.79,3.79,0,0,1,.63-2.42,2,2,0,0,1,1.57-.77,2,2,0,0,1,1.62.8,3.92,3.92,0,0,1,.66,2.51,3.48,3.48,0,0,1-.65,2.31,2,2,0,0,1-1.57.76,2,2,0,0,1-1.59-.8A3.59,3.59,0,0,1,302.9,411.26Z" transform="translate(-218.14 -331.17)"></path><rect class="cls-1" x="222.41" y="446.82" width="62.15" height="2.46" transform="translate(-460.7 -20.72) rotate(-45)"></rect><rect class="cls-1" x="297.58" y="371.01" width="63.43" height="2.46" transform="translate(-384.9 10.71) rotate(-45)"></rect><path class="cls-2" d="M369.55,342.56V331.17H240.82l-22.68,22.68V482.58h11.13v7.79H377.08V342.56Zm-1.91,138.11H220v-126l21.57-21.57h126Z" transform="translate(-218.14 -331.17)"></path><path class="cls-1" d="M219.6,497.44h2.53a5.66,5.66,0,0,1,2.72.61,4.05,4.05,0,0,1,1.74,1.76,5.92,5.92,0,0,1,.6,2.76,5.1,5.1,0,0,1-1.34,3.75,5,5,0,0,1-3.72,1.35H219.6Zm2.5,9.21a4,4,0,0,0,2.87-1,5.14,5.14,0,0,0,0-6.17,4,4,0,0,0-2.87-1h-1.38v8.17Z" transform="translate(-218.14 -331.17)"></path><path class="cls-1" d="M222.13,507.72h-2.59V497.39h2.59a5.71,5.71,0,0,1,2.74.61,4.22,4.22,0,0,1,1.77,1.78,6.07,6.07,0,0,1,.6,2.79,5.17,5.17,0,0,1-1.35,3.79A5.08,5.08,0,0,1,222.13,507.72Zm-2.48-.11h2.48a4.93,4.93,0,0,0,3.68-1.33,5,5,0,0,0,1.32-3.71,5.91,5.91,0,0,0-.59-2.73,4,4,0,0,0-1.72-1.74,5.65,5.65,0,0,0-2.69-.6h-2.48Zm2.45-.91h-1.43v-8.28h1.43a4,4,0,0,1,2.91,1,5.18,5.18,0,0,1,0,6.25A4.05,4.05,0,0,1,222.1,506.7Zm-1.32-.1h1.32a4,4,0,0,0,2.83-1,5.06,5.06,0,0,0,0-6.09,3.9,3.9,0,0,0-2.83-1h-1.32Z" transform="translate(-218.14 -331.17)"></path><path class="cls-1" d="M248.1,500.87a3.38,3.38,0,0,1,1.19,1.27,3.6,3.6,0,0,1,.44,1.79,4.33,4.33,0,0,1,0,.44h-5.77a3,3,0,0,0,.71,1.84,2.13,2.13,0,0,0,1.75.77,2.91,2.91,0,0,0,1.49-.34,2.52,2.52,0,0,0,1-.94l.81.54a3.49,3.49,0,0,1-1.3,1.23,4,4,0,0,1-1.92.44,3.42,3.42,0,0,1-1.81-.48,3.3,3.3,0,0,1-1.25-1.34,4,4,0,0,1-.45-1.93,4.19,4.19,0,0,1,.44-1.93,3.33,3.33,0,0,1,1.23-1.34,3.51,3.51,0,0,1,3.51,0Zm.61,2.66a2.65,2.65,0,0,0-.74-1.64,2.21,2.21,0,0,0-1.59-.55,2.17,2.17,0,0,0-1.59.62,2.84,2.84,0,0,0-.79,1.57Z" transform="translate(-218.14 -331.17)"></path><path class="cls-1" d="M246.43,508a3.51,3.51,0,0,1-1.84-.48,3.47,3.47,0,0,1-1.27-1.36,4.23,4.23,0,0,1-.46-2,4.32,4.32,0,0,1,.45-2,3.35,3.35,0,0,1,3.07-1.85,3.25,3.25,0,0,1,1.74.48h0a3.29,3.29,0,0,1,1.22,1.29,3.68,3.68,0,0,1,.45,1.81,3.87,3.87,0,0,1,0,.44v.05H244a3,3,0,0,0,.69,1.76,2.1,2.1,0,0,0,1.71.74,2.94,2.94,0,0,0,1.47-.32,2.73,2.73,0,0,0,.93-.92l0-.05.9.6,0,0a3.45,3.45,0,0,1-1.33,1.24A4,4,0,0,1,246.43,508Zm-.05-7.5a3.3,3.3,0,0,0-1.76.48,3.26,3.26,0,0,0-1.21,1.31,4.1,4.1,0,0,0-.44,1.91,4,4,0,0,0,.45,1.91,3.28,3.28,0,0,0,1.22,1.31,3.35,3.35,0,0,0,1.79.47,3.88,3.88,0,0,0,1.89-.43,3.43,3.43,0,0,0,1.26-1.16l-.72-.48a2.73,2.73,0,0,1-.94.91,3,3,0,0,1-1.52.34,2.23,2.23,0,0,1-1.8-.78,3.22,3.22,0,0,1-.72-1.88v-.05h5.78c0-.09,0-.22,0-.39a3.69,3.69,0,0,0-.42-1.76,3.37,3.37,0,0,0-1.18-1.25h0A3.27,3.27,0,0,0,246.38,500.46Zm2.39,3.12h-4.84v-.06a3,3,0,0,1,.81-1.6,2.22,2.22,0,0,1,1.63-.64,2.25,2.25,0,0,1,1.63.57,2.69,2.69,0,0,1,.75,1.67Zm-4.7-.1h4.58a2.65,2.65,0,0,0-.71-1.55,2.18,2.18,0,0,0-1.56-.54,2.15,2.15,0,0,0-1.56.61A2.76,2.76,0,0,0,244.07,503.48Z" transform="translate(-218.14 -331.17)"></path><path class="cls-1" d="M266.31,507.47a2.92,2.92,0,0,1-1.18-1.23l.92-.45a2.15,2.15,0,0,0,2.17,1.19,2.62,2.62,0,0,0,1.29-.29.93.93,0,0,0,.51-.88,1.05,1.05,0,0,0-.41-.92,3.07,3.07,0,0,0-1.45-.38,3.7,3.7,0,0,1-2.06-.65,1.71,1.71,0,0,1-.62-1.39,1.8,1.8,0,0,1,.7-1.52,3.13,3.13,0,0,1,1.94-.54,2.81,2.81,0,0,1,2.83,1.65l-.91.45a1.81,1.81,0,0,0-.74-.88,2.5,2.5,0,0,0-1.26-.29,2.09,2.09,0,0,0-1.19.29.94.94,0,0,0-.41.81,1,1,0,0,0,.44.8,3.3,3.3,0,0,0,1.52.4,3.52,3.52,0,0,1,2,.65,1.72,1.72,0,0,1,.65,1.4,1.88,1.88,0,0,1-.4,1.21,2.42,2.42,0,0,1-1.08.75,4.11,4.11,0,0,1-1.46.26A3.47,3.47,0,0,1,266.31,507.47Z" transform="translate(-218.14 -331.17)"></path><path class="cls-1" d="M268.1,508a3.58,3.58,0,0,1-1.82-.44,3,3,0,0,1-1.2-1.25l0,0,1-.5,0,0a2.11,2.11,0,0,0,2.12,1.15,2.59,2.59,0,0,0,1.26-.27.89.89,0,0,0,.49-.84,1,1,0,0,0-.39-.87,3.09,3.09,0,0,0-1.42-.38,3.7,3.7,0,0,1-2.09-.66,1.78,1.78,0,0,1-.65-1.43,1.86,1.86,0,0,1,.73-1.56,3.16,3.16,0,0,1,2-.56A2.87,2.87,0,0,1,271,502l0,0-1,.49,0-.05a1.87,1.87,0,0,0-.72-.86,2.49,2.49,0,0,0-1.23-.28,2.09,2.09,0,0,0-1.16.28.92.92,0,0,0,0,1.52,3.26,3.26,0,0,0,1.5.39,3.67,3.67,0,0,1,2,.66,1.8,1.8,0,0,1,.68,1.45,1.9,1.9,0,0,1-.42,1.24,2.47,2.47,0,0,1-1.1.77A4,4,0,0,1,268.1,508Zm-2.89-1.69a2.78,2.78,0,0,0,1.13,1.15h0a3.45,3.45,0,0,0,1.76.43,4,4,0,0,0,1.44-.25,2.31,2.31,0,0,0,1-.74,1.77,1.77,0,0,0,.4-1.17,1.65,1.65,0,0,0-.64-1.36,3.56,3.56,0,0,0-2-.64,3.34,3.34,0,0,1-1.55-.41,1,1,0,0,1,0-1.7,2.11,2.11,0,0,1,1.22-.3,2.45,2.45,0,0,1,1.28.3,1.77,1.77,0,0,1,.74.85l.82-.39a2.77,2.77,0,0,0-2.76-1.58,3,3,0,0,0-1.9.54,1.72,1.72,0,0,0-.69,1.47,1.66,1.66,0,0,0,.61,1.35,3.68,3.68,0,0,0,2,.63,3,3,0,0,1,1.47.4,1.11,1.11,0,0,1,.44,1,1,1,0,0,1-.54.93,2.61,2.61,0,0,1-1.32.29,2.24,2.24,0,0,1-2.2-1.16Z" transform="translate(-218.14 -331.17)"></path><path class="cls-1" d="M287.47,499.05a.86.86,0,0,1-.23-.59.81.81,0,0,1,1.62,0,.8.8,0,0,1-.24.57.81.81,0,0,1-1.15,0Zm.07,8.62v-7h1v7Z" transform="translate(-218.14 -331.17)"></path><path class="cls-1" d="M288.62,507.72h-1.13V500.6h1.13Zm-1-.11h.91V500.7h-.91Zm.45-8.27a.85.85,0,0,1-.61-.25h0a.88.88,0,0,1-.24-.62.84.84,0,0,1,.86-.85.87.87,0,0,1,.87.87.87.87,0,0,1-.26.61A.88.88,0,0,1,288.05,499.34Zm-.54-.33a.76.76,0,0,0,1.07,0,.75.75,0,0,0,.23-.53.77.77,0,0,0-.76-.76.73.73,0,0,0-.54.22.72.72,0,0,0-.21.52A.79.79,0,0,0,287.51,499Z" transform="translate(-218.14 -331.17)"></path><path class="cls-1" d="M311.93,500.65v6.75a3.6,3.6,0,0,1-.39,1.69,2.9,2.9,0,0,1-1.09,1.16,3.09,3.09,0,0,1-1.61.42h-2.91v-.93h2.91a1.88,1.88,0,0,0,1.49-.66,2.44,2.44,0,0,0,.58-1.68v-.77a2.92,2.92,0,0,1-1.07.94,2.76,2.76,0,0,1-1.37.34,3.41,3.41,0,0,1-1.8-.48,3.3,3.3,0,0,1-1.25-1.34,4.1,4.1,0,0,1-.45-1.95,4.15,4.15,0,0,1,.44-1.92,3.36,3.36,0,0,1,1.23-1.33,3.41,3.41,0,0,1,1.8-.48,2.9,2.9,0,0,1,1.4.34,3,3,0,0,1,1.07.95v-1.05Zm-2.21,6a2.52,2.52,0,0,0,.88-1,3.59,3.59,0,0,0,0-2.92,2.45,2.45,0,0,0-.88-1,2.33,2.33,0,0,0-1.28-.36,2.26,2.26,0,0,0-1.26.36,2.36,2.36,0,0,0-.87,1,3.18,3.18,0,0,0-.32,1.44,3.35,3.35,0,0,0,.32,1.48,2.42,2.42,0,0,0,.87,1,2.26,2.26,0,0,0,1.26.36A2.33,2.33,0,0,0,309.72,506.62Z" transform="translate(-218.14 -331.17)"></path><path class="cls-1" d="M308.84,510.72h-3v-1h3a1.84,1.84,0,0,0,1.45-.65,2.39,2.39,0,0,0,.57-1.64v-.6a3.24,3.24,0,0,1-1,.82,2.93,2.93,0,0,1-1.4.34,3.38,3.38,0,0,1-3.1-1.84,4.25,4.25,0,0,1-.45-2,4.15,4.15,0,0,1,.45-1.95,3.37,3.37,0,0,1,1.24-1.35,3.53,3.53,0,0,1,1.83-.49,2.93,2.93,0,0,1,1.42.35,3.07,3.07,0,0,1,1,.83v-.93H312v6.8a3.69,3.69,0,0,1-.4,1.71,2.92,2.92,0,0,1-1.12,1.19A3.14,3.14,0,0,1,308.84,510.72Zm-2.85-.11h2.85a3.07,3.07,0,0,0,1.58-.41,2.74,2.74,0,0,0,1.07-1.14,3.45,3.45,0,0,0,.39-1.66v-6.7H311v1.17l-.1-.14a3,3,0,0,0-1.06-.93,2.87,2.87,0,0,0-1.37-.34,3.29,3.29,0,0,0-3,1.78,4.09,4.09,0,0,0-.43,1.9,4.16,4.16,0,0,0,.44,1.93,3.24,3.24,0,0,0,1.23,1.31,3.28,3.28,0,0,0,1.77.47,2.84,2.84,0,0,0,1.35-.33,3.18,3.18,0,0,0,1.05-.92l.1-.14v.94a2.46,2.46,0,0,1-.6,1.71,1.9,1.9,0,0,1-1.53.68H306Zm2.45-3.58a2.34,2.34,0,0,1-1.29-.36,2.49,2.49,0,0,1-.89-1,3.31,3.31,0,0,1-.32-1.5,3.24,3.24,0,0,1,.32-1.47,2.52,2.52,0,0,1,.89-1,2.35,2.35,0,0,1,1.29-.37,2.44,2.44,0,0,1,1.31.37,2.59,2.59,0,0,1,.9,1,3.42,3.42,0,0,1,.32,1.48,3.28,3.28,0,0,1-.33,1.48,2.49,2.49,0,0,1-.89,1h0A2.43,2.43,0,0,1,308.44,507Zm0-5.64a2.14,2.14,0,0,0-1.23.36,2.3,2.3,0,0,0-.85,1,3.15,3.15,0,0,0-.31,1.42,3.22,3.22,0,0,0,.31,1.45,2.33,2.33,0,0,0,.85,1,2.37,2.37,0,0,0,2.48,0,2.42,2.42,0,0,0,.86-1,3.45,3.45,0,0,0,0-2.86,2.42,2.42,0,0,0-.86-1A2.23,2.23,0,0,0,308.44,501.39Z" transform="translate(-218.14 -331.17)"></path><path class="cls-1" d="M332.92,500.71a2.31,2.31,0,0,1,1,.89,2.44,2.44,0,0,1,.37,1.37v4.7h-1v-4.24c0-1.39-.62-2.09-1.86-2.09a1.87,1.87,0,0,0-1.62.76,3.52,3.52,0,0,0-.54,2.06v3.51h-1v-7h1v1.17a2.67,2.67,0,0,1,.95-1,2.49,2.49,0,0,1,1.37-.37A3.11,3.11,0,0,1,332.92,500.71Z" transform="translate(-218.14 -331.17)"></path><path class="cls-1" d="M334.33,507.72H333.2v-4.29c0-1.37-.59-2-1.8-2a1.8,1.8,0,0,0-1.58.75,3.43,3.43,0,0,0-.53,2v3.56h-1.13V500.6h1.13v1a2.65,2.65,0,0,1,.87-.89,2.6,2.6,0,0,1,1.4-.38,3.17,3.17,0,0,1,1.38.31h0a2.37,2.37,0,0,1,1,.91,2.54,2.54,0,0,1,.37,1.4Zm-1-.11h.91V503a2.47,2.47,0,0,0-.36-1.35,2.28,2.28,0,0,0-1-.86h0a3,3,0,0,0-1.34-.3,2.55,2.55,0,0,0-1.34.36,2.59,2.59,0,0,0-.93,1l-.11.19V500.7h-.91v6.91h.91v-3.45a3.62,3.62,0,0,1,.55-2.09,1.93,1.93,0,0,1,1.67-.79c1.27,0,1.91.73,1.91,2.15Z" transform="translate(-218.14 -331.17)"></path><path class="cls-1" d="M355.41,500.87a3.33,3.33,0,0,1,1.2,1.27,3.71,3.71,0,0,1,.44,1.79,4.33,4.33,0,0,1,0,.44h-5.77a3,3,0,0,0,.7,1.84,2.16,2.16,0,0,0,1.76.77,2.93,2.93,0,0,0,1.49-.34,2.59,2.59,0,0,0,1-.94l.81.54a3.49,3.49,0,0,1-1.3,1.23,4,4,0,0,1-1.92.44,3.46,3.46,0,0,1-1.82-.48,3.34,3.34,0,0,1-1.24-1.34,4.41,4.41,0,0,1,0-3.86,3.19,3.19,0,0,1,1.23-1.34,3.35,3.35,0,0,1,1.79-.48A3.32,3.32,0,0,1,355.41,500.87Zm.62,2.66a2.65,2.65,0,0,0-.74-1.64,2.47,2.47,0,0,0-3.19.07,2.9,2.9,0,0,0-.78,1.57Z" transform="translate(-218.14 -331.17)"></path><path class="cls-1" d="M353.75,508a3.57,3.57,0,0,1-1.85-.48,3.45,3.45,0,0,1-1.26-1.36,4.08,4.08,0,0,1-.46-2,4.16,4.16,0,0,1,.45-2,3.35,3.35,0,0,1,3.07-1.85,3.28,3.28,0,0,1,1.74.48h0a3.23,3.23,0,0,1,1.22,1.29,3.79,3.79,0,0,1,.44,1.81c0,.23,0,.37,0,.45v0h-5.77a3,3,0,0,0,.69,1.76,2.1,2.1,0,0,0,1.72.74,2.87,2.87,0,0,0,1.46-.32,2.56,2.56,0,0,0,.93-.92l0-.05.91.6,0,0a3.45,3.45,0,0,1-1.33,1.24A4,4,0,0,1,353.75,508Zm-.05-7.5a3.3,3.3,0,0,0-1.76.48,3.26,3.26,0,0,0-1.21,1.31,4.1,4.1,0,0,0-.44,1.91,4,4,0,0,0,.45,1.91,3.22,3.22,0,0,0,1.22,1.31,3.35,3.35,0,0,0,1.79.47,3.91,3.91,0,0,0,1.89-.43,3.51,3.51,0,0,0,1.26-1.16l-.72-.48a2.73,2.73,0,0,1-.94.91,3,3,0,0,1-1.52.34,2.23,2.23,0,0,1-1.8-.78,3.09,3.09,0,0,1-.72-1.88v-.05H357a3.89,3.89,0,0,0,0-.39,3.58,3.58,0,0,0-.43-1.76,3.3,3.3,0,0,0-1.18-1.25h0A3.24,3.24,0,0,0,353.7,500.46Zm2.39,3.12h-4.84v-.06a2.94,2.94,0,0,1,.8-1.6,2.51,2.51,0,0,1,3.27-.07,2.69,2.69,0,0,1,.75,1.67Zm-4.71-.1H356a2.53,2.53,0,0,0-.71-1.55,2.39,2.39,0,0,0-3.11.07A2.84,2.84,0,0,0,351.38,503.48Z" transform="translate(-218.14 -331.17)"></path><path class="cls-1" d="M377.08,500.51v.94a1.45,1.45,0,0,0-.68-.16,2.2,2.2,0,0,0-1.21.36,2.73,2.73,0,0,0-.89,1.05,3.64,3.64,0,0,0-.34,1.61v3.36h-1v-7h1v1.41a3.47,3.47,0,0,1,1-1.22,2.42,2.42,0,0,1,1.41-.43A2.54,2.54,0,0,1,377.08,500.51Z" transform="translate(-218.14 -331.17)"></path><path class="cls-1" d="M374,507.72h-1.13V500.6H374v1.25a3.31,3.31,0,0,1,.94-1.05,2.45,2.45,0,0,1,2.14-.34h0v1.06l-.08,0a1.59,1.59,0,0,0-.66-.14,2.17,2.17,0,0,0-1.18.35,2.58,2.58,0,0,0-.87,1,3.55,3.55,0,0,0-.33,1.59Zm-1-.11h.91v-3.3a3.64,3.64,0,0,1,.34-1.64,2.72,2.72,0,0,1,.91-1.06,2.22,2.22,0,0,1,1.24-.37,1.64,1.64,0,0,1,.63.12v-.8a2,2,0,0,0-.63-.1,2.4,2.4,0,0,0-1.38.43,3.27,3.27,0,0,0-1,1.2l-.1.2V500.7H373Z" transform="translate(-218.14 -331.17)"></path><path class="cls-2" d="M240,380.27c1.15,0,1.89-.22,2.21-.64a3.72,3.72,0,0,0,.48-2.17v-6.89h-2.27v-.78h10.23v.78H249.3v10h-.53a2.11,2.11,0,0,0-1.81-.89,19.14,19.14,0,0,0-3,.64,17.45,17.45,0,0,1-4.2.64q-5.79,0-9-3.13t-3.18-9.39q0-6.27,3.32-9.67a11.88,11.88,0,0,1,8.93-3.41,17.53,17.53,0,0,1,4.35.55,18.87,18.87,0,0,0,2.54.55.73.73,0,0,0,.53-.16,2.12,2.12,0,0,0,.39-.55h.39l.29,7.7h-.64a25.47,25.47,0,0,0-3.5-5.41,5.16,5.16,0,0,0-3.92-2q-5.43,0-5.43,10.61v2.81q0,5.33,1.33,8T240,380.27Z" transform="translate(-218.14 -331.17)"></path><path class="cls-2" d="M264.64,381q-5.92,0-8.86-3.22t-2.93-9.3q0-6.09,3.15-9.58t8.89-3.5c3.83,0,6.73,1.11,8.68,3.32s2.93,5.35,2.93,9.42-1,7.24-3,9.49S268.59,381,264.64,381Zm4.55-11.33V367c0-4.33-.22-7.06-.64-8.2a3.64,3.64,0,0,0-2-2.41,5,5,0,0,0-1.81-.29,5.24,5.24,0,0,0-1.83.29,2.64,2.64,0,0,0-1.26,1,7.67,7.67,0,0,0-.8,1.49,9.94,9.94,0,0,0-.48,2.2c-.14,1.38-.21,3.4-.21,6.08v2.55a37.91,37.91,0,0,0,.34,6.16,7.71,7.71,0,0,0,.83,2.61,3.76,3.76,0,0,0,3.41,1.74,3.45,3.45,0,0,0,3.64-2.36Q269.19,375.52,269.19,369.65Z" transform="translate(-218.14 -331.17)"></path><path class="cls-2" d="M239.43,416q-5.93,0-8.86-3.21t-2.93-9.3q0-6.09,3.15-9.59t8.89-3.5c3.83,0,6.73,1.11,8.68,3.32s2.93,5.36,2.93,9.43-1,7.23-3,9.48S243.38,416,239.43,416ZM244,404.71v-2.63c0-4.33-.22-7.06-.64-8.2a3.66,3.66,0,0,0-2-2.42,5.29,5.29,0,0,0-1.81-.28,5.5,5.5,0,0,0-1.83.28,2.67,2.67,0,0,0-1.26,1,7.39,7.39,0,0,0-.8,1.49,9.81,9.81,0,0,0-.48,2.2c-.14,1.37-.21,3.4-.21,6.07v2.56a37.91,37.91,0,0,0,.34,6.16,7.71,7.71,0,0,0,.83,2.61,3.76,3.76,0,0,0,3.41,1.74,3.46,3.46,0,0,0,3.64-2.36Q244,410.56,244,404.71Z" transform="translate(-218.14 -331.17)"></path><path class="cls-2" d="M278.1,402.83q0,7.31-4.12,10.19-3.81,2.66-10.44,2.66H253.49V415h2.34V391.5h-2.34v-.68h11q6.82,0,10.23,2.79T278.1,402.83ZM262.76,415h1.35a5.53,5.53,0,0,0,5.13-2.53c1-1.7,1.54-4.53,1.54-8.51V401.9q0-8-3-9.62a8.88,8.88,0,0,0-4.12-.78h-.85Z" transform="translate(-218.14 -331.17)"></path><path class="cls-2" d="M316,414.77h10.83v.67h-2V439h2v.67H316V439H318V415.44H316Z" transform="translate(-218.14 -331.17)"></path><path class="cls-2" d="M358.75,426.77q0,7.32-4.12,10.19c-2.54,1.78-6,2.66-10.44,2.66H334.14V439h2.34V415.44h-2.34v-.67h11q6.83,0,10.23,2.79C357.61,419.41,358.75,422.49,358.75,426.77ZM343.41,439h1.35a5.54,5.54,0,0,0,5.13-2.54c1-1.69,1.54-4.53,1.54-8.5v-2.06q0-8-3.05-9.63a8.85,8.85,0,0,0-4.12-.78h-.85Z" transform="translate(-218.14 -331.17)"></path><path class="cls-2" d="M315.86,447.82h18.46l.35,7H334a12.64,12.64,0,0,0-3.13-4.92,7.43,7.43,0,0,0-4.79-1.33h-1.25v11h1.21a3.65,3.65,0,0,0,2.81-1.26,7.24,7.24,0,0,0,1.59-3.39H331v10.51h-.61a8.32,8.32,0,0,0-1.72-3.8,3.89,3.89,0,0,0-3-1.14h-.86v11.4h1.35a8.29,8.29,0,0,0,5.56-1.95,9.93,9.93,0,0,0,3.14-5h.71l-.28,7.74H315.86v-.78H318V448.61h-2.09Z" transform="translate(-218.14 -331.17)"></path><path class="cls-2" d="M352.25,472l-2.59-7.66h-7L339.89,472h2.67v.68h-5.44V472h1.67l9.06-24.39h2.91L359.71,472h1.63v.68H349.73V472Zm-6-17.75-3.34,9.3h6.42Z" transform="translate(-218.14 -331.17)"></path></svg>